<?xml version="1.0" encoding="UTF-8" standalone="no"?>
<!-- Created with Inkscape (http://www.inkscape.org/) -->

<svg
   xmlns:dc="http://purl.org/dc/elements/1.1/"
   xmlns:cc="http://creativecommons.org/ns#"
   xmlns:rdf="http://www.w3.org/1999/02/22-rdf-syntax-ns#"
   xmlns:svg="http://www.w3.org/2000/svg"
   xmlns="http://www.w3.org/2000/svg"
   xmlns:sodipodi="http://sodipodi.sourceforge.net/DTD/sodipodi-0.dtd"
   xmlns:inkscape="http://www.inkscape.org/namespaces/inkscape"
   width="744.09448819"
   height="1052.3622047"
   id="svg2"
   version="1.1"
   inkscape:version="0.92.3 (3ce5693, 2018-03-11)"
   sodipodi:docname="0.svg">
  <defs
     id="defs4">
    <inkscape:perspective
       sodipodi:type="inkscape:persp3d"
       inkscape:vp_x="0 : 526.18109 : 1"
       inkscape:vp_y="0 : 1000 : 0"
       inkscape:vp_z="744.09448 : 526.18109 : 1"
       inkscape:persp3d-origin="372.04724 : 350.78739 : 1"
       id="perspective3052" />
    <inkscape:path-effect
       effect="spiro"
       id="path-effect3864"
       is_visible="true" />
    <inkscape:path-effect
       effect="spiro"
       id="path-effect3860"
       is_visible="true" />
    <inkscape:path-effect
       effect="spiro"
       id="path-effect3854"
       is_visible="true" />
  </defs>
  <sodipodi:namedview
     id="base"
     pagecolor="#ffffff"
     bordercolor="#666666"
     borderopacity="1.0"
     inkscape:pageopacity="0.0"
     inkscape:pageshadow="2"
     inkscape:zoom="22.4"
     inkscape:cx="533.85696"
     inkscape:cy="650.66383"
     inkscape:document-units="px"
     inkscape:current-layer="layer1"
     showgrid="false"
     inkscape:window-width="1366"
     inkscape:window-height="713"
     inkscape:window-x="0"
     inkscape:window-y="27"
     inkscape:window-maximized="1" />
  <metadata
     id="metadata7">
    <rdf:RDF>
      <cc:Work
         rdf:about="">
        <dc:format>image/svg+xml</dc:format>
        <dc:type
           rdf:resource="http://purl.org/dc/dcmitype/StillImage" />
        <dc:title />
      </cc:Work>
    </rdf:RDF>
  </metadata>
  <g
     inkscape:label="Layer 1"
     inkscape:groupmode="layer"
     id="layer1">
    <path
       style="fill:none;stroke:#000000;stroke-width:1px;stroke-linecap:butt;stroke-linejoin:miter;stroke-opacity:1"
       d="m 530.44643,402.54076 c 0.0146,-0.0318 0.0293,-0.0637 0.0439,-0.0956 0.0147,-0.0319 0.0293,-0.0637 0.044,-0.0956 0.0147,-0.0318 0.0293,-0.0637 0.0439,-0.0956 0.0147,-0.0319 0.0293,-0.0637 0.0439,-0.0956 0.0147,-0.0319 0.0293,-0.0637 0.044,-0.0956 0.0146,-0.0319 0.0293,-0.0637 0.0439,-0.0956 0.0146,-0.0319 0.0293,-0.0637 0.0439,-0.0956 0.0146,-0.0318 0.0293,-0.0637 0.0439,-0.0956 0.0146,-0.0319 0.0293,-0.0637 0.0439,-0.0956 0.0146,-0.0319 0.0293,-0.0637 0.0439,-0.0956 0.0146,-0.0319 0.0293,-0.0637 0.0439,-0.0956 0.0146,-0.0319 0.0293,-0.0637 0.0439,-0.0956 0.0146,-0.0318 0.0293,-0.0637 0.0439,-0.0956 0.0146,-0.0319 0.0293,-0.0637 0.0439,-0.0956 0.0146,-0.0318 0.0293,-0.0637 0.0439,-0.0956 0.0146,-0.0319 0.0293,-0.0637 0.0439,-0.0956 0.0146,-0.0318 0.0293,-0.0637 0.0439,-0.0956 0.0146,-0.0319 0.0293,-0.0637 0.0439,-0.0956 0.0146,-0.0318 0.0293,-0.0637 0.0439,-0.0956 0.0146,-0.0319 0.0293,-0.0637 0.0439,-0.0956 0.0146,-0.0319 0.0293,-0.0637 0.0439,-0.0956 0.0147,-0.0319 0.0293,-0.0637 0.0439,-0.0956 0.0147,-0.0318 0.0293,-0.0637 0.0439,-0.0956 0.0147,-0.0319 0.0293,-0.0637 0.0439,-0.0956 0.0147,-0.0319 0.0293,-0.0637 0.0439,-0.0956 0.0147,-0.0319 0.0293,-0.0637 0.0439,-0.0956 0.0147,-0.0319 0.0293,-0.0637 0.0439,-0.0956 0.0147,-0.0319 0.0293,-0.0637 0.0439,-0.0956 0.0147,-0.0319 0.0293,-0.0637 0.044,-0.0956 0.0146,-0.0319 0.0293,-0.0637 0.0439,-0.0956 0.0146,-0.0319 0.0293,-0.0637 0.0439,-0.0956 0.0146,-0.0319 0.0293,-0.0637 0.0439,-0.0956 0.0146,-0.0318 0.0293,-0.0637 0.0439,-0.0956 0.0146,-0.0319 0.0293,-0.0637 0.0439,-0.0956 0.0146,-0.0318 0.0293,-0.0637 0.0439,-0.0956 0.0146,-0.0319 0.0293,-0.0637 0.0439,-0.0956 0.0146,-0.0319 0.0293,-0.0637 0.0439,-0.0956 0.0146,-0.0319 0.0293,-0.0637 0.0439,-0.0956 0.0146,-0.0318 0.0293,-0.0637 0.0439,-0.0956 0.0146,-0.0319 0.0293,-0.0637 0.0439,-0.0956 0.0146,-0.0319 0.0293,-0.0637 0.0439,-0.0956 0.0146,-0.0319 0.0293,-0.0637 0.0439,-0.0956 0.0146,-0.0319 0.0293,-0.0637 0.0439,-0.0956 0.0146,-0.0319 0.0293,-0.0637 0.0439,-0.0956 0.0146,-0.0319 0.0293,-0.0637 0.0439,-0.0956 0.0147,-0.0319 0.0293,-0.0637 0.0439,-0.0956 0.0147,-0.0319 0.0293,-0.0637 0.0439,-0.0956 0.0147,-0.0319 0.0293,-0.0637 0.0439,-0.0956 0.0147,-0.0319 0.0293,-0.0637 0.0439,-0.0956 0.0147,-0.0319 0.0293,-0.0637 0.0439,-0.0956 0.0147,-0.0318 0.0293,-0.0637 0.0439,-0.0956 0.0147,-0.0319 0.0293,-0.0637 0.0439,-0.0956 0.0147,-0.0319 0.0293,-0.0637 0.044,-0.0956 0.0146,-0.0319 0.0293,-0.0637 0.0439,-0.0956 0.0146,-0.0318 0.0293,-0.0637 0.0439,-0.0956 0.0146,-0.0319 0.0293,-0.0637 0.0439,-0.0956 0.0146,-0.0319 0.0293,-0.0637 0.0439,-0.0956 0.0146,-0.0319 0.0293,-0.0637 0.0439,-0.0956 0.0146,-0.0319 0.0293,-0.0637 0.0439,-0.0956 0.0146,-0.0318 0.0293,-0.0637 0.0439,-0.0956 0.0146,-0.0319 0.0293,-0.0637 0.0439,-0.0956 0.0146,-0.0319 0.0293,-0.0637 0.0439,-0.0956 0.0146,-0.0319 0.0459,-0.0648 0.0688,-0.0971 0.023,-0.0324 0.0376,-0.0642 0.019,-0.094 -0.0154,-0.0247 -0.0444,-0.0254 -0.0769,-0.0201 -0.0325,0.005 -0.0684,0.0166 -0.0975,0.0161 -0.029,-5e-4 -0.0581,-0.001 -0.0872,-0.002 -0.0291,-7.5e-4 -0.0581,-0.002 -0.0872,-0.002 -0.029,-5e-4 -0.0581,-0.001 -0.0872,-0.002 -0.0291,-7.5e-4 -0.0581,-0.001 -0.0872,-0.002 -0.029,-5e-4 -0.0581,-0.001 -0.0872,-0.002 -0.0291,-7.5e-4 -0.0582,-0.002 -0.0872,-0.002 -0.029,-5e-4 -0.0581,-0.001 -0.0872,-0.002 -0.0291,-7.5e-4 -0.0581,-0.002 -0.0872,-0.002 -0.029,-5e-4 -0.0581,-0.001 -0.0872,-0.002 -0.0291,-7.5e-4 -0.0581,-0.001 -0.0872,-0.002 -0.029,-5e-4 -0.0581,-0.001 -0.0872,-0.002 -0.0291,-7.5e-4 -0.0581,-0.002 -0.0872,-0.002 -0.029,-5e-4 -0.0581,-0.001 -0.0872,-0.002 -0.0291,-7.5e-4 -0.0581,-0.002 -0.0872,-0.002 -0.029,-5e-4 -0.0581,-0.001 -0.0872,-0.002 -0.0291,-7.5e-4 -0.0582,-0.001 -0.0872,-0.002 -0.029,-5e-4 -0.0581,-0.001 -0.0872,-0.002 -0.0291,-7.5e-4 -0.0582,-0.002 -0.0872,-0.002 -0.029,-5e-4 -0.0581,-0.001 -0.0872,-0.002 -0.0291,-7.5e-4 -0.0581,-0.002 -0.0872,-0.002 -0.029,-5e-4 -0.0581,-0.001 -0.0872,-0.002 -0.0291,-7.5e-4 -0.0581,-0.001 -0.0872,-0.002 -0.0291,-5e-4 -0.0581,-0.001 -0.0872,-0.002 -0.0291,-7.5e-4 -0.0581,-0.002 -0.0872,-0.002 -0.029,-5e-4 -0.0581,-0.001 -0.0872,-0.002 -0.0291,-7.5e-4 -0.0581,-0.002 -0.0872,-0.002 -0.029,-5e-4 -0.0581,-0.001 -0.0872,-0.002 -0.0291,-7.5e-4 -0.0581,-0.001 -0.0872,-0.002 -0.029,-5e-4 -0.0581,-0.001 -0.0872,-0.002 -0.0291,-7.5e-4 -0.0581,-0.002 -0.0872,-0.002 -0.029,-5e-4 -0.0581,-0.001 -0.0872,-0.002 -0.0291,-7.5e-4 -0.0582,-0.001 -0.0872,-0.002 -0.029,-5e-4 -0.0581,-0.001 -0.0872,-0.002 -0.0291,-7.5e-4 -0.0581,-0.001 -0.0872,-0.002 -0.029,-5e-4 -0.0581,-0.001 -0.0872,-0.002 -0.0291,-7.5e-4 -0.0581,-0.002 -0.0872,-0.002 -0.029,-5e-4 -0.0581,-0.001 -0.0872,-0.002 -0.0291,-7.5e-4 -0.0581,-0.001 -0.0872,-0.002 -0.029,-5e-4 -0.0581,-0.001 -0.0872,-0.002 -0.0291,-7.5e-4 -0.0581,-0.001 -0.0872,-0.002 -0.029,-5e-4 -0.0581,-0.001 -0.0872,-0.002 -0.0291,-7.5e-4 -0.0582,-0.002 -0.0872,-0.002 -0.029,-5e-4 -0.0581,-0.001 -0.0872,-0.002 -0.0291,-7.5e-4 -0.0581,-0.001 -0.0872,-0.002 -0.029,-5e-4 -0.0581,-0.001 -0.0872,-0.002 -0.0291,-7.5e-4 -0.0581,-0.001 -0.0872,-0.002 -0.0291,-5e-4 -0.0581,-0.001 -0.0872,-0.002 -0.0291,-7.5e-4 -0.0581,-0.002 -0.0872,-0.002 -0.029,-5e-4 -0.0581,-0.001 -0.0872,-0.002 -0.0291,-7.5e-4 -0.0581,-0.001 -0.0872,-0.002 -0.029,-5e-4 -0.0581,-0.001 -0.0872,-0.002 -0.0291,-7.5e-4 -0.0581,-0.001 -0.0872,-0.002 -0.029,-5e-4 -0.0581,-0.001 -0.0872,-0.002 -0.0291,-7.5e-4 -0.0581,-0.002 -0.0872,-0.002 -0.029,-5e-4 -0.0581,-0.001 -0.0872,-0.002 -0.0291,-7.5e-4 -0.0581,-0.001 -0.0872,-0.002 -0.029,-5e-4 -0.0581,-0.001 -0.0872,-0.002 -0.0291,-7.5e-4 -0.0582,-0.001 -0.0872,-0.002 -0.029,-5e-4 -0.0581,-0.001 -0.0872,-0.002 -0.0291,-7.5e-4 -0.0581,-0.002 -0.0872,-0.002 -0.029,-5e-4 -0.0605,-0.01 -0.0908,-0.0145 -0.0303,-0.005 -0.0594,-0.006 -0.0836,0.0105 -0.0522,0.035 -0.075,0.0936 -0.0905,0.15807 -0.0154,0.0645 -0.0235,0.13489 -0.0463,0.19349 -0.0228,0.0586 -0.0455,0.1172 -0.0683,0.17579 -0.0228,0.0586 -0.0456,0.11718 -0.0684,0.17577 -0.0228,0.0586 -0.0456,0.11719 -0.0684,0.17578 -0.0228,0.0586 -0.0456,0.11719 -0.0684,0.17579 -0.0228,0.0586 -0.0456,0.11718 -0.0684,0.17577 -0.0228,0.0586 -0.0455,0.11719 -0.0684,0.17579 -0.0228,0.0586 -0.0456,0.11718 -0.0684,0.17578 -0.0228,0.0586 -0.0455,0.11718 -0.0684,0.17578 -0.0228,0.0586 -0.0456,0.11719 -0.0684,0.17578 -0.0228,0.0586 -0.0456,0.11719 -0.0683,0.17578 -0.0228,0.0586 -0.0455,0.1172 -0.0683,0.17579 -0.0228,0.0586 -0.0456,0.11718 -0.0684,0.17578 -0.0228,0.0586 -0.0456,0.11718 -0.0684,0.17577 -0.0228,0.0586 -0.0455,0.11719 -0.0684,0.17579 -0.0228,0.0586 -0.0456,0.11718 -0.0684,0.17578 -0.0228,0.0586 -0.0456,0.11718 -0.0683,0.17578 -0.0228,0.0586 -0.0455,0.1172 -0.0683,0.17579 -0.0228,0.0586 -0.0456,0.11718 -0.0684,0.17577 -0.0228,0.0586 -0.0456,0.11719 -0.0684,0.17578 -0.0228,0.0586 -0.0456,0.11719 -0.0684,0.17579 -0.0228,0.0586 -0.0456,0.11718 -0.0684,0.17577 -0.0228,0.0586 -0.0455,0.11719 -0.0684,0.17579 -0.0228,0.0586 -0.0456,0.11718 -0.0684,0.17578 -0.0228,0.0586 -0.0455,0.11718 -0.0684,0.17578 -0.0228,0.0586 -0.0456,0.11719 -0.0684,0.17578 -0.0228,0.0586 -0.0456,0.11719 -0.0683,0.17578 -0.0228,0.0586 -0.0455,0.1172 -0.0683,0.17579 -0.0228,0.0586 -0.0456,0.11718 -0.0684,0.17578 -0.0228,0.0586 -0.0456,0.11718 -0.0684,0.17577 -0.0228,0.0586 -0.0455,0.11719 -0.0684,0.17579 -0.0228,0.0586 -0.0456,0.11718 -0.0684,0.17578 -0.0228,0.0586 -0.0456,0.11718 -0.0683,0.17578 -0.0228,0.0586 -0.0455,0.1172 -0.0683,0.17579 -0.0228,0.0586 -0.0456,0.11718 -0.0684,0.17577 -0.0228,0.0586 -0.0456,0.11719 -0.0684,0.17578 -0.0228,0.0586 -0.0456,0.11719 -0.0684,0.17579 -0.0228,0.0586 -0.0456,0.11718 -0.0684,0.17577 -0.0228,0.0586 -0.0455,0.11719 -0.0684,0.17579 -0.0228,0.0586 -0.0456,0.11718 -0.0684,0.17578 -0.0228,0.0586 -0.0455,0.11718 -0.0684,0.17578 -0.0228,0.0586 -0.0456,0.11719 -0.0684,0.17578 -0.0228,0.0586 -0.0456,0.11719 -0.0683,0.17578 -0.0228,0.0586 -0.0455,0.1172 -0.0683,0.17579 -0.0228,0.0586 -0.0456,0.11718 -0.0684,0.17578 -0.0228,0.0586 -0.0456,0.11718 -0.0684,0.17577 -0.0228,0.0586 -0.0455,0.11719 -0.0684,0.17579 -0.0228,0.0586 -0.0456,0.11718 -0.0684,0.17578 -0.0228,0.0586 -0.0456,0.11718 -0.0683,0.17578 -0.0228,0.0586 -0.0455,0.1172 -0.0683,0.17579 -0.0228,0.0586 -0.0456,0.11718 -0.0684,0.17577 -0.0228,0.0586 -0.0456,0.11719 -0.0684,0.17578 -0.0228,0.0586 -0.0456,0.11719 -0.0684,0.17579 -0.0228,0.0586 -0.0456,0.11718 -0.0684,0.17577 -0.0228,0.0586 -0.0455,0.11719 -0.0684,0.17579 -0.0228,0.0586 -0.0456,0.11718 -0.0684,0.17578 -0.0228,0.0586 -0.0455,0.11718 -0.0684,0.17578 -0.0228,0.0586 -0.0456,0.11719 -0.0684,0.17578 -0.0228,0.0586 -0.0456,0.11719 -0.0683,0.17578 -0.0228,0.0586 -0.0455,0.1172 -0.0683,0.17579 -0.0228,0.0586 -0.0456,0.11718 -0.0684,0.17578 -0.0228,0.0586 -0.0743,0.1202 -0.11136,0.18031 -0.0371,0.0601 -0.0599,0.1187 -0.0254,0.17125 0.0137,0.0208 0.0385,0.0218 0.0662,0.0178 0.0277,-0.004 0.0582,-0.0128 0.083,-0.0118 0.0249,10e-4 0.0498,0.002 0.0747,0.003 0.0249,10e-4 0.0497,0.002 0.0746,0.003 0.0249,0.001 0.0498,0.002 0.0746,0.003 0.0249,10e-4 0.0497,0.002 0.0746,0.003 0.0249,10e-4 0.0498,0.002 0.0746,0.003 0.0249,10e-4 0.0497,0.002 0.0746,0.003 0.0249,0.001 0.0498,0.002 0.0747,0.003 0.0249,10e-4 0.0497,0.002 0.0746,0.003 0.0249,10e-4 0.0498,0.002 0.0747,0.003 0.0249,10e-4 0.0497,0.002 0.0746,0.003 0.0249,0.001 0.0498,0.002 0.0747,0.003 0.0249,10e-4 0.0497,0.002 0.0746,0.003 0.0249,10e-4 0.0498,0.002 0.0747,0.003 0.0249,10e-4 0.0497,0.002 0.0746,0.003 0.0249,0.001 0.0498,0.002 0.0747,0.003 0.0249,10e-4 0.0497,0.002 0.0746,0.003 0.0249,10e-4 0.0498,0.002 0.0747,0.003 0.0249,10e-4 0.0497,0.002 0.0746,0.003 0.0249,0.001 0.0498,0.002 0.0747,0.003 0.0249,10e-4 0.0497,0.002 0.0746,0.003 0.0249,10e-4 0.0498,0.002 0.0747,0.003 0.0249,10e-4 0.0497,0.002 0.0746,0.003 0.0249,0.001 0.0498,0.002 0.0747,0.003 0.0249,10e-4 0.0497,0.002 0.0746,0.003 0.0249,10e-4 0.0498,0.002 0.0746,0.003 0.0249,10e-4 0.0497,0.002 0.0746,0.003 0.0249,0.001 0.0498,0.002 0.0746,0.003 0.0249,10e-4 0.0497,0.002 0.0746,0.003 0.0249,10e-4 0.0498,0.002 0.0747,0.003 0.0249,10e-4 0.0497,0.002 0.0746,0.003 0.0249,0.001 0.0498,0.002 0.0747,0.003 0.0249,10e-4 0.0497,0.002 0.0746,0.003 0.0249,10e-4 0.0498,0.002 0.0747,0.003 0.0249,10e-4 0.0497,0.002 0.0746,0.003 0.0249,0.001 0.0498,0.002 0.0747,0.003 0.0249,10e-4 0.0497,0.002 0.0746,0.003 0.0249,10e-4 0.0498,0.002 0.0747,0.003 0.0249,10e-4 0.0497,0.002 0.0746,0.003 0.0249,0.001 0.0498,0.002 0.0747,0.003 0.0249,10e-4 0.0497,0.002 0.0746,0.003 0.0249,10e-4 0.0498,0.002 0.0747,0.003 0.0249,10e-4 0.0497,0.002 0.0746,0.003 0.0249,0.001 0.0498,0.002 0.0747,0.003 0.0249,0.001 0.0497,0.002 0.0746,0.003 0.0249,10e-4 0.0498,0.002 0.0747,0.003 0.0249,10e-4 0.0497,0.002 0.0746,0.003 0.0249,0.001 0.0498,0.002 0.0746,0.003 0.0249,0.001 0.0497,0.002 0.0746,0.003 0.0249,10e-4 0.0498,0.002 0.0747,0.003 0.0249,10e-4 0.0497,0.002 0.0746,0.003 0.0249,0.001 0.0498,0.002 0.0747,0.003 0.0249,0.001 0.0497,0.002 0.0746,0.003 0.0249,10e-4 0.0498,0.002 0.0747,0.003 0.0249,10e-4 0.0497,0.002 0.0746,0.003 0.0249,0.001 0.0498,0.002 0.0747,0.003 0.0249,0.001 0.0497,0.002 0.0746,0.003 0.0249,10e-4 0.0498,0.002 0.0747,0.003 0.0249,10e-4 0.0497,0.002 0.0746,0.003 0.0249,0.001 0.0498,0.002 0.0747,0.003 0.0249,0.001 0.0497,0.002 0.0746,0.003 0.0249,10e-4 0.0516,0.009 0.0774,0.0134 0.0258,0.004 0.0507,0.005 0.0719,-0.007 0.0254,-0.0154 0.0377,-0.0423 0.0467,-0.0722 0.009,-0.0299 0.0149,-0.0626 0.0272,-0.0896 0.0123,-0.0269 0.0246,-0.0539 0.0369,-0.0809 0.0123,-0.027 0.0247,-0.054 0.037,-0.0809 0.0123,-0.0269 0.0246,-0.0539 0.0369,-0.0809 0.0123,-0.027 0.0247,-0.054 0.037,-0.0809 0.0123,-0.0269 0.0246,-0.0539 0.0369,-0.0809 0.0123,-0.027 0.0247,-0.054 0.037,-0.0809 0.0123,-0.0269 0.0246,-0.0539 0.0369,-0.0809 0.0123,-0.027 0.0247,-0.054 0.037,-0.0809 0.0123,-0.0269 0.0246,-0.0539 0.0369,-0.0809 0.0123,-0.027 0.0247,-0.054 0.037,-0.0809 0.0123,-0.0269 0.0246,-0.0539 0.0369,-0.0809 0.0123,-0.027 0.0247,-0.054 0.037,-0.0809 0.0123,-0.0269 0.0246,-0.0539 0.0369,-0.0809 0.0123,-0.027 0.0247,-0.054 0.037,-0.0809 0.0123,-0.0269 0.0246,-0.0539 0.0369,-0.0809 0.0123,-0.027 0.0247,-0.054 0.037,-0.0809 0.0123,-0.0269 0.0246,-0.0539 0.0369,-0.0809 0.0123,-0.027 0.0247,-0.054 0.037,-0.0809 0.0123,-0.0269 0.0246,-0.0539 0.0369,-0.0809 0.0123,-0.027 0.0247,-0.054 0.037,-0.0809 0.0123,-0.0269 0.0246,-0.0539 0.0369,-0.0809 0.0123,-0.027 0.0247,-0.054 0.037,-0.0809 0.0123,-0.027 0.0246,-0.0539 0.037,-0.0809 0.0123,-0.027 0.0246,-0.0539 0.037,-0.0809 0.0123,-0.027 0.0246,-0.0539 0.0369,-0.0809 0.0123,-0.027 0.0247,-0.0539 0.037,-0.0809 0.0123,-0.027 0.0246,-0.0539 0.0369,-0.0809 0.0123,-0.027 0.0247,-0.0539 0.037,-0.0809 0.0123,-0.027 0.0246,-0.0539 0.0369,-0.0809 0.0123,-0.027 0.0247,-0.0539 0.037,-0.0809 0.0123,-0.027 0.0246,-0.0539 0.037,-0.0809 0.0123,-0.027 0.0246,-0.0539 0.0369,-0.0809 0.0123,-0.027 0.0246,-0.0539 0.037,-0.0809 0.0123,-0.027 0.0246,-0.0539 0.0369,-0.0809 0.0123,-0.027 0.0246,-0.0539 0.037,-0.0809 0.0123,-0.027 0.0246,-0.0539 0.037,-0.0809 0.0123,-0.0269 0.0246,-0.0539 0.0369,-0.0809 0.0123,-0.027 0.0247,-0.054 0.037,-0.0809 0.0123,-0.0269 0.0246,-0.0539 0.0369,-0.0809 0.0123,-0.027 0.0247,-0.054 0.037,-0.0809 0.0123,-0.027 0.0246,-0.054 0.037,-0.0809 0.0123,-0.027 0.0246,-0.0539 0.0369,-0.0809 0.0123,-0.0269 0.0246,-0.0539 0.0369,-0.0809 0.0123,-0.027 0.0247,-0.054 0.037,-0.0809 0.0123,-0.0269 0.0246,-0.0539 0.0369,-0.0809 0.0123,-0.027 0.0247,-0.054 0.037,-0.0809 0.0123,-0.0269 0.0246,-0.0539 0.0369,-0.0809 0.0123,-0.027 0.0247,-0.054 0.037,-0.0809 0.0123,-0.0269 0.0246,-0.0539 0.0369,-0.0809 0.0123,-0.027 0.0247,-0.054 0.037,-0.0809 0.0123,-0.0269 0.0246,-0.0539 0.0369,-0.0809 0.0123,-0.027 0.0247,-0.054 0.037,-0.0809 0.0123,-0.027 0.0246,-0.054 0.037,-0.0809 0.0123,-0.027 0.0246,-0.0539 0.0369,-0.0809 0.0123,-0.027 0.0246,-0.0539 0.037,-0.0809 0.0123,-0.027 0.0246,-0.0539 0.0369,-0.0809 0.0123,-0.027 0.0246,-0.0539 0.037,-0.0809 0.0123,-0.027 0.0246,-0.0539 0.0369,-0.0809 0.0123,-0.027 0.0246,-0.0539 0.037,-0.0809 0.0123,-0.027 0.0246,-0.0539 0.037,-0.0809 0.0123,-0.027 0.0246,-0.0539 0.0369,-0.0809 0.0123,-0.027 0.0356,-0.0534 0.037,-0.0809 l 4.8e-4,-0.01 z"
       id="path229"
       inkscape:connector-curvature="0"
       sodipodi:nodetypes="csssssssssssssssssssssssssssssssssssssssssssssssssssssssssssssssssssssssssssssssssssssssssssssssssssssssssssssssssssssssssssssssssssssssssssssssssssssssssssssssssssssssssssssssssssssssssssssssssssssssssssssssssssssssssssssssssssssssssssssssssssssssssssssssssssssssssssssssssssssssssssssssssssssssssssssssssssssssssssssssscc" />
  </g>
</svg>
