<?xml version="1.0" encoding="UTF-8" standalone="no"?>
<!-- Created with Inkscape (http://www.inkscape.org/) -->

<svg
   xmlns:dc="http://purl.org/dc/elements/1.1/"
   xmlns:cc="http://creativecommons.org/ns#"
   xmlns:rdf="http://www.w3.org/1999/02/22-rdf-syntax-ns#"
   xmlns:svg="http://www.w3.org/2000/svg"
   xmlns="http://www.w3.org/2000/svg"
   xmlns:sodipodi="http://sodipodi.sourceforge.net/DTD/sodipodi-0.dtd"
   xmlns:inkscape="http://www.inkscape.org/namespaces/inkscape"
   width="744.09448819"
   height="1052.3622047"
   id="svg2"
   version="1.1"
   inkscape:version="0.92.3 (3ce5693, 2018-03-11)"
   sodipodi:docname="1.svg">
  <defs
     id="defs4">
    <inkscape:perspective
       sodipodi:type="inkscape:persp3d"
       inkscape:vp_x="0 : 526.18109 : 1"
       inkscape:vp_y="0 : 1000 : 0"
       inkscape:vp_z="744.09448 : 526.18109 : 1"
       inkscape:persp3d-origin="372.04724 : 350.78739 : 1"
       id="perspective3052" />
    <inkscape:path-effect
       effect="spiro"
       id="path-effect3864"
       is_visible="true" />
    <inkscape:path-effect
       effect="spiro"
       id="path-effect3860"
       is_visible="true" />
    <inkscape:path-effect
       effect="spiro"
       id="path-effect3854"
       is_visible="true" />
  </defs>
  <sodipodi:namedview
     id="base"
     pagecolor="#ffffff"
     bordercolor="#666666"
     borderopacity="1.0"
     inkscape:pageopacity="0.0"
     inkscape:pageshadow="2"
     inkscape:zoom="22.4"
     inkscape:cx="533.85696"
     inkscape:cy="650.66383"
     inkscape:document-units="px"
     inkscape:current-layer="layer1"
     showgrid="false"
     inkscape:window-width="1366"
     inkscape:window-height="713"
     inkscape:window-x="0"
     inkscape:window-y="27"
     inkscape:window-maximized="1" />
  <metadata
     id="metadata7">
    <rdf:RDF>
      <cc:Work
         rdf:about="">
        <dc:format>image/svg+xml</dc:format>
        <dc:type
           rdf:resource="http://purl.org/dc/dcmitype/StillImage" />
        <dc:title />
      </cc:Work>
    </rdf:RDF>
  </metadata>
  <g
     inkscape:label="Layer 1"
     inkscape:groupmode="layer"
     id="layer1">
    <path
       style="fill:none;stroke:#000000;stroke-width:1px;stroke-linecap:butt;stroke-linejoin:miter;stroke-opacity:1"
       d="m 530.35715,402.98718 c 0.0124,-0.0263 0.0247,-0.0525 0.037,-0.0788 0.0123,-0.0263 0.0246,-0.0526 0.0369,-0.0788 0.0123,-0.0263 0.0246,-0.0525 0.0369,-0.0788 0.0123,-0.0263 0.0247,-0.0526 0.037,-0.0788 0.0123,-0.0263 0.0246,-0.0525 0.0369,-0.0788 0.0123,-0.0263 0.0247,-0.0526 0.037,-0.0788 0.0123,-0.0263 0.0246,-0.0525 0.0369,-0.0788 0.0123,-0.0263 0.0247,-0.0526 0.037,-0.0788 0.0123,-0.0263 0.0246,-0.0525 0.0369,-0.0788 0.0123,-0.0263 0.0247,-0.0526 0.037,-0.0788 0.0123,-0.0263 0.0246,-0.0525 0.0369,-0.0788 0.0123,-0.0263 0.0247,-0.0526 0.037,-0.0788 0.0123,-0.0263 0.0246,-0.0525 0.0369,-0.0788 0.0123,-0.0263 0.0247,-0.0526 0.037,-0.0788 0.0123,-0.0263 0.0246,-0.0525 0.0369,-0.0788 0.0123,-0.0263 0.0247,-0.0526 0.037,-0.0788 0.0123,-0.0263 0.0246,-0.0525 0.0369,-0.0788 0.0123,-0.0263 0.0247,-0.0526 0.037,-0.0788 0.0123,-0.0263 0.0246,-0.0525 0.0369,-0.0788 0.0123,-0.0263 0.0247,-0.0526 0.037,-0.0788 0.0123,-0.0263 0.0246,-0.0525 0.0369,-0.0788 0.0123,-0.0263 0.0247,-0.0526 0.037,-0.0788 0.0123,-0.0263 0.0246,-0.0525 0.0369,-0.0788 0.0123,-0.0263 0.0247,-0.0526 0.037,-0.0788 0.0123,-0.0263 0.0246,-0.0525 0.0369,-0.0788 0.0123,-0.0263 0.0247,-0.0525 0.037,-0.0788 0.0123,-0.0263 0.0246,-0.0525 0.0369,-0.0788 0.0123,-0.0263 0.0247,-0.0526 0.037,-0.0788 0.0123,-0.0263 0.0246,-0.0525 0.037,-0.0788 0.0123,-0.0263 0.0246,-0.0525 0.0369,-0.0788 0.0123,-0.0263 0.0246,-0.0525 0.037,-0.0788 0.0123,-0.0263 0.0246,-0.0526 0.0369,-0.0788 0.0123,-0.0263 0.0246,-0.0525 0.037,-0.0788 0.0123,-0.0263 0.0246,-0.0525 0.0369,-0.0788 0.0123,-0.0263 0.0246,-0.0525 0.037,-0.0788 0.0123,-0.0263 0.0247,-0.0526 0.037,-0.0788 0.0123,-0.0263 0.0246,-0.0525 0.0369,-0.0788 0.0123,-0.0263 0.0247,-0.0525 0.037,-0.0788 0.0123,-0.0263 0.0246,-0.0525 0.0369,-0.0788 0.0123,-0.0263 0.0247,-0.0526 0.037,-0.0788 0.0123,-0.0263 0.0246,-0.0525 0.0369,-0.0788 0.0123,-0.0263 0.0247,-0.0526 0.037,-0.0788 0.0123,-0.0263 0.0246,-0.0525 0.0369,-0.0788 0.0123,-0.0263 0.0247,-0.0526 0.037,-0.0788 0.0123,-0.0262 0.0246,-0.0525 0.0369,-0.0788 0.0123,-0.0263 0.0247,-0.0526 0.037,-0.0788 0.0123,-0.0263 0.0246,-0.0525 0.0369,-0.0788 0.0123,-0.0263 0.0247,-0.0526 0.037,-0.0788 0.0123,-0.0263 0.0246,-0.0526 0.037,-0.0788 0.0123,-0.0263 0.0246,-0.0525 0.0369,-0.0788 0.0123,-0.0263 0.0246,-0.0525 0.0369,-0.0788 0.0123,-0.0263 0.0247,-0.0526 0.037,-0.0788 0.0123,-0.0263 0.0246,-0.0525 0.0369,-0.0788 0.0123,-0.0263 0.0247,-0.0526 0.037,-0.0788 0.0123,-0.0263 0.0246,-0.0525 0.0369,-0.0788 0.0123,-0.0263 0.0247,-0.0526 0.037,-0.0788 0.0123,-0.0263 0.0246,-0.0525 0.0369,-0.0788 0.0123,-0.0263 0.0247,-0.0526 0.037,-0.0788 0.0123,-0.0263 0.0246,-0.0525 0.0369,-0.0788 0.0123,-0.0263 0.0247,-0.0526 0.037,-0.0788 0.0123,-0.0263 0.0246,-0.0525 0.0369,-0.0788 0.0123,-0.0263 0.0247,-0.0525 0.037,-0.0788 0.0123,-0.0263 0.0411,-0.0554 0.0616,-0.0831 0.0205,-0.0277 0.0329,-0.054 0.0123,-0.0745 -0.0255,-0.0254 -0.058,-0.01 -0.0923,0.0155 -0.0343,0.0255 -0.0704,0.0613 -0.10297,0.0766 -0.0326,0.0153 -0.0651,0.0307 -0.0977,0.046 -0.0326,0.0154 -0.0651,0.0307 -0.0977,0.046 -0.0326,0.0154 -0.0651,0.0307 -0.0977,0.0461 -0.0326,0.0153 -0.0651,0.0307 -0.0977,0.046 -0.0326,0.0154 -0.0651,0.0307 -0.0977,0.046 -0.0326,0.0154 -0.0651,0.0307 -0.0977,0.0461 -0.0326,0.0153 -0.0651,0.0307 -0.0977,0.046 -0.0326,0.0154 -0.0651,0.0307 -0.0976,0.046 -0.0326,0.0154 -0.0651,0.0307 -0.0977,0.0461 -0.0326,0.0154 -0.0651,0.0307 -0.0977,0.046 -0.0326,0.0154 -0.0651,0.0307 -0.0977,0.046 -0.0326,0.0154 -0.0651,0.0307 -0.0977,0.0461 -0.0326,0.0154 -0.0651,0.0307 -0.0977,0.046 -0.0326,0.0154 -0.0651,0.0307 -0.0977,0.0461 -0.0326,0.0153 -0.0651,0.0307 -0.0977,0.046 -0.0326,0.0154 -0.0651,0.0307 -0.0976,0.046 -0.0326,0.0154 -0.0651,0.0307 -0.0977,0.0461 -0.0326,0.0153 -0.0651,0.0307 -0.0977,0.046 -0.0326,0.0154 -0.0651,0.0307 -0.0977,0.046 -0.0326,0.0154 -0.0651,0.0307 -0.0977,0.0461 -0.0326,0.0153 -0.0651,0.0307 -0.0977,0.046 -0.0326,0.0154 -0.0651,0.0307 -0.0977,0.046 -0.0326,0.0154 -0.0651,0.0307 -0.0977,0.0461 -0.0326,0.0154 -0.0651,0.0307 -0.0976,0.046 -0.0326,0.0154 -0.0651,0.0307 -0.0977,0.046 -0.0326,0.0154 -0.0651,0.0307 -0.0977,0.0461 -0.0326,0.0154 -0.0651,0.0307 -0.0977,0.046 -0.0326,0.0154 -0.0651,0.0307 -0.0977,0.0461 -0.0326,0.0153 -0.0651,0.0307 -0.0977,0.046 -0.0326,0.0154 -0.0651,0.0307 -0.0977,0.046 -0.0326,0.0154 -0.0651,0.0307 -0.0977,0.0461 -0.0326,0.0153 -0.0651,0.0307 -0.0976,0.046 -0.0326,0.0154 -0.0651,0.0307 -0.0977,0.046 -0.0326,0.0154 -0.0651,0.0307 -0.0977,0.0461 -0.0326,0.0153 -0.0651,0.0307 -0.0977,0.046 -0.0326,0.0154 -0.0651,0.0307 -0.0977,0.046 -0.0326,0.0154 -0.0651,0.0307 -0.0977,0.0461 -0.0326,0.0154 -0.0651,0.0307 -0.0977,0.046 -0.0326,0.0154 -0.0651,0.0307 -0.0977,0.046 -0.0326,0.0154 -0.0651,0.0307 -0.0977,0.0461 -0.0326,0.0154 -0.0651,0.0307 -0.0977,0.046 -0.0326,0.0154 -0.0651,0.0307 -0.0977,0.0461 -0.0326,0.0153 -0.0651,0.0307 -0.0977,0.046 -0.0326,0.0154 -0.0651,0.0307 -0.0977,0.046 -0.0326,0.0154 -0.0651,0.0307 -0.0977,0.0461 -0.0326,0.0153 -0.0651,0.0307 -0.0977,0.046 -0.0326,0.0154 -0.0651,0.0307 -0.0977,0.046 -0.0326,0.0154 -0.0651,0.0307 -0.0977,0.0461 -0.0326,0.0153 -0.0651,0.0307 -0.0977,0.046 -0.0326,0.0154 -0.0651,0.0307 -0.0977,0.046 -0.0326,0.0154 -0.0651,0.0307 -0.0977,0.0461 -0.0326,0.0154 -0.0651,0.0307 -0.0977,0.046 -0.0326,0.0154 -0.0651,0.0307 -0.0977,0.046 -0.0326,0.0154 -0.0651,0.0307 -0.0977,0.0461 -0.0326,0.0154 -0.0651,0.0307 -0.0977,0.046 -0.0326,0.0154 -0.0651,0.0307 -0.0977,0.0461 -0.0326,0.0153 -0.0651,0.0307 -0.0977,0.046 -0.0326,0.0154 -0.0651,0.0307 -0.0977,0.046 -0.0326,0.0154 -0.0651,0.0307 -0.0977,0.0461 -0.0326,0.0153 -0.0651,0.0307 -0.0977,0.046 -0.0326,0.0154 -0.089,0.0221 -0.13353,0.0331 -0.0445,0.011 -0.0771,0.0264 -0.0618,0.059 0.0147,0.0313 0.0461,0.0167 0.0816,-0.009 0.0356,-0.0262 0.0753,-0.0638 0.10669,-0.0784 0.0314,-0.0147 0.0628,-0.0293 0.0942,-0.044 0.0314,-0.0146 0.0628,-0.0293 0.0942,-0.0439 0.0314,-0.0146 0.0628,-0.0293 0.0942,-0.0439 0.0314,-0.0146 0.0628,-0.0293 0.0942,-0.0439 0.0314,-0.0147 0.0628,-0.0293 0.0942,-0.0439 0.0314,-0.0147 0.0628,-0.0293 0.0942,-0.0439 0.0314,-0.0147 0.0628,-0.0293 0.0942,-0.0439 0.0314,-0.0147 0.0628,-0.0293 0.0942,-0.0439 0.0314,-0.0147 0.0628,-0.0293 0.0942,-0.0439 0.0314,-0.0147 0.0628,-0.0293 0.0942,-0.0439 0.0314,-0.0147 0.0628,-0.0293 0.0942,-0.0439 0.0314,-0.0147 0.0628,-0.0293 0.0942,-0.0439 0.0314,-0.0147 0.0628,-0.0293 0.0942,-0.044 0.0314,-0.0146 0.0628,-0.0293 0.0942,-0.0439 0.0314,-0.0146 0.0628,-0.0293 0.0942,-0.0439 0.0314,-0.0146 0.0628,-0.0293 0.0942,-0.0439 0.0314,-0.0147 0.0628,-0.0293 0.0942,-0.0439 0.0314,-0.0147 0.0628,-0.0293 0.0942,-0.0439 0.0314,-0.0147 0.0628,-0.0293 0.0942,-0.0439 0.0314,-0.0147 0.0628,-0.0293 0.0942,-0.0439 0.0314,-0.0147 0.0628,-0.0293 0.0942,-0.0439 0.0314,-0.0147 0.0628,-0.0293 0.0942,-0.0439 0.0314,-0.0147 0.0628,-0.0293 0.0942,-0.0439 0.0314,-0.0147 0.0628,-0.0293 0.0942,-0.0439 0.0314,-0.0147 0.0628,-0.0293 0.0942,-0.044 0.0314,-0.0146 0.0628,-0.0293 0.0942,-0.0439 0.0314,-0.0146 0.0628,-0.0293 0.0942,-0.0439 0.0314,-0.0146 0.0628,-0.0293 0.0942,-0.0439 0.0314,-0.0146 0.0628,-0.0293 0.0942,-0.0439 0.0314,-0.0147 0.0628,-0.0293 0.0942,-0.0439 0.0314,-0.0147 0.0628,-0.0293 0.0942,-0.0439 0.0314,-0.0147 0.0628,-0.0293 0.0942,-0.0439 0.0314,-0.0147 0.0628,-0.0293 0.0942,-0.0439 0.0314,-0.0147 0.0628,-0.0293 0.0942,-0.0439 0.0314,-0.0147 0.0628,-0.0293 0.0942,-0.0439 0.0314,-0.0147 0.0628,-0.0293 0.0942,-0.0439 0.0314,-0.0147 0.0628,-0.0293 0.0942,-0.044 0.0314,-0.0146 0.0628,-0.0293 0.0942,-0.0439 0.0314,-0.0146 0.0628,-0.0293 0.0942,-0.0439 0.0314,-0.0146 0.0628,-0.0293 0.0942,-0.0439 0.0314,-0.0147 0.0628,-0.0293 0.0942,-0.0439 0.0314,-0.0147 0.0628,-0.0293 0.0942,-0.0439 0.0314,-0.0147 0.0628,-0.0293 0.0942,-0.0439 0.0314,-0.0147 0.0628,-0.0293 0.0942,-0.0439 0.0314,-0.0147 0.0628,-0.0293 0.0942,-0.0439 0.0314,-0.0147 0.0628,-0.0293 0.0942,-0.0439 0.0314,-0.0147 0.0628,-0.0293 0.0942,-0.0439 0.0314,-0.0147 0.0628,-0.0293 0.0942,-0.0439 0.0314,-0.0147 0.0628,-0.0293 0.0942,-0.044 0.0314,-0.0146 0.0628,-0.0293 0.0942,-0.0439 0.0314,-0.0146 0.0628,-0.0293 0.0942,-0.0439 0.0314,-0.0146 0.0628,-0.0293 0.0942,-0.0439 0.0314,-0.0146 0.0628,-0.0293 0.0942,-0.0439 0.0314,-0.0147 0.0628,-0.0293 0.0942,-0.0439 0.0314,-0.0147 0.0628,-0.0293 0.0942,-0.0439 0.0314,-0.0147 0.0628,-0.0293 0.0942,-0.0439 0.0314,-0.0147 0.0628,-0.0293 0.0942,-0.0439 0.0314,-0.0147 0.0628,-0.0293 0.0942,-0.0439 0.0314,-0.0147 0.0628,-0.0293 0.0942,-0.0439 0.0314,-0.0147 0.0628,-0.0293 0.0942,-0.0439 0.0314,-0.0147 0.0662,-0.0488 0.0993,-0.0732 0.0331,-0.0244 0.0645,-0.039 0.0891,-0.0147 0.0414,0.041 0.0172,0.0941 -0.0233,0.15006 -0.0406,0.056 -0.0975,0.11501 -0.12175,0.16802 -0.0242,0.053 -0.0484,0.10603 -0.0726,0.15904 -0.0242,0.053 -0.0483,0.10603 -0.0725,0.15904 -0.0242,0.053 -0.0484,0.10603 -0.0725,0.15904 -0.0242,0.053 -0.0483,0.10603 -0.0725,0.15904 -0.0242,0.053 -0.0484,0.10603 -0.0725,0.15904 -0.0242,0.053 -0.0483,0.10603 -0.0725,0.15904 -0.0242,0.053 -0.0484,0.10603 -0.0725,0.15905 -0.0242,0.053 -0.0483,0.10602 -0.0725,0.15903 -0.0242,0.053 -0.0484,0.10603 -0.0725,0.15904 -0.0242,0.053 -0.0483,0.10603 -0.0725,0.15904 -0.0242,0.053 -0.0484,0.10603 -0.0725,0.15905 -0.0242,0.053 -0.0484,0.10602 -0.0725,0.15903 -0.0242,0.053 -0.0484,0.10603 -0.0725,0.15904 -0.0242,0.053 -0.0483,0.10603 -0.0725,0.15904 -0.0242,0.053 -0.0484,0.10603 -0.0725,0.15904 -0.0242,0.053 -0.0483,0.10603 -0.0725,0.15904 -0.0242,0.053 -0.0484,0.10603 -0.0726,0.15904 -0.0242,0.053 -0.0483,0.10603 -0.0725,0.15904 -0.0242,0.053 -0.0484,0.10603 -0.0725,0.15904 -0.0242,0.053 -0.0483,0.10603 -0.0725,0.15904 -0.0242,0.053 -0.0484,0.10603 -0.0725,0.15904 -0.0242,0.053 -0.0483,0.10603 -0.0725,0.15904 -0.0242,0.053 -0.0484,0.10603 -0.0725,0.15904 -0.0242,0.053 -0.0483,0.10603 -0.0725,0.15904 -0.0242,0.053 -0.0484,0.10603 -0.0725,0.15905 -0.0242,0.053 -0.0483,0.10603 -0.0725,0.15904 -0.0242,0.053 -0.0484,0.10603 -0.0725,0.15904 -0.0242,0.053 -0.0484,0.10603 -0.0725,0.15904 -0.0242,0.053 -0.0484,0.10603 -0.0725,0.15904 -0.0242,0.053 -0.0484,0.10603 -0.0726,0.15904 -0.0242,0.053 -0.0484,0.10603 -0.0725,0.15904 -0.0242,0.053 -0.0484,0.10603 -0.0726,0.15904 -0.0242,0.053 -0.0484,0.10603 -0.0725,0.15904 -0.0242,0.053 -0.0483,0.10603 -0.0725,0.15904 -0.0242,0.053 -0.0484,0.10603 -0.0725,0.15904 -0.0242,0.053 -0.0483,0.10603 -0.0725,0.15904 -0.0242,0.053 -0.0484,0.10603 -0.0725,0.15904 -0.0242,0.053 -0.0484,0.10603 -0.0725,0.15904 -0.0242,0.053 -0.0484,0.10603 -0.0725,0.15904 -0.0242,0.053 -0.0484,0.10603 -0.0725,0.15904 -0.0242,0.053 -0.0484,0.10603 -0.0725,0.15904 -0.0242,0.053 -0.0484,0.10603 -0.0725,0.15904 -0.0242,0.053 -0.0484,0.10603 -0.0725,0.15904 -0.0242,0.053 -0.0484,0.10603 -0.0725,0.15904 -0.0242,0.053 -0.0484,0.10603 -0.0726,0.15904 -0.0242,0.053 -0.0483,0.10603 -0.0725,0.15904 -0.0242,0.053 -0.0484,0.10603 -0.0725,0.15904 -0.0242,0.053 -0.0483,0.10603 -0.0725,0.15904 -0.0242,0.053 -0.0484,0.10603 -0.0725,0.15904 -0.0242,0.053 -0.0483,0.10603 -0.0725,0.15904 -0.0242,0.053 -0.0484,0.10603 -0.0725,0.15904 -0.0242,0.053 -0.0483,0.10603 -0.0725,0.15904 -0.0242,0.053 -0.0484,0.10603 -0.0725,0.15904 -0.0242,0.053 -0.0483,0.10603 -0.0725,0.15904 -0.0242,0.053 -0.0484,0.10603 -0.0725,0.15904 -0.0242,0.053 -0.0483,0.10603 -0.0725,0.15904 -0.0242,0.053 -0.0484,0.10603 -0.0725,0.15904 -0.0242,0.053 -0.0484,0.10603 -0.0725,0.15904 -0.0242,0.053 -0.0484,0.10603 -0.0725,0.15904 -0.0242,0.053 -0.0484,0.10603 -0.0725,0.15904 -0.0242,0.053 -0.0869,0.12025 -0.13031,0.18037 -0.0434,0.0601 -0.0676,0.11313 -0.0148,0.13771 0.0275,0.0128 0.0406,-0.0146 0.05,-0.0521 0.009,-0.0375 0.0151,-0.0851 0.0281,-0.1125 0.013,-0.0274 0.026,-0.0549 0.039,-0.0823 0.013,-0.0274 0.0261,-0.0549 0.039,-0.0823 0.013,-0.0274 0.026,-0.0549 0.039,-0.0823 0.013,-0.0274 0.0261,-0.0549 0.0391,-0.0823 0.013,-0.0274 0.026,-0.0549 0.039,-0.0823 0.013,-0.0274 0.026,-0.0549 0.039,-0.0823 0.013,-0.0275 0.026,-0.0549 0.039,-0.0823 0.013,-0.0274 0.0261,-0.0549 0.0391,-0.0823 0.013,-0.0274 0.026,-0.0549 0.039,-0.0823 0.013,-0.0274 0.026,-0.0549 0.039,-0.0823 0.013,-0.0274 0.026,-0.0549 0.039,-0.0823 0.013,-0.0274 0.0261,-0.0549 0.039,-0.0823 0.013,-0.0274 0.026,-0.0549 0.0391,-0.0823 0.013,-0.0274 0.026,-0.0549 0.039,-0.0823 0.013,-0.0275 0.026,-0.0549 0.039,-0.0823 0.013,-0.0274 0.0261,-0.0549 0.039,-0.0823 0.013,-0.0274 0.026,-0.0549 0.0391,-0.0823 0.013,-0.0274 0.026,-0.0549 0.039,-0.0823 0.013,-0.0274 0.026,-0.0549 0.039,-0.0823 0.013,-0.0274 0.0261,-0.0549 0.039,-0.0823 0.013,-0.0274 0.026,-0.0549 0.039,-0.0823 0.013,-0.0274 0.0261,-0.0549 0.0391,-0.0823 0.013,-0.0274 0.026,-0.0549 0.039,-0.0823 0.013,-0.0274 0.026,-0.0549 0.039,-0.0823 0.013,-0.0274 0.026,-0.0549 0.039,-0.0823 0.013,-0.0274 0.0261,-0.0549 0.0391,-0.0823 0.013,-0.0275 0.026,-0.0549 0.039,-0.0823 0.013,-0.0274 0.026,-0.0549 0.039,-0.0823 0.013,-0.0274 0.026,-0.0549 0.039,-0.0823 0.013,-0.0274 0.0261,-0.0549 0.039,-0.0823 0.013,-0.0274 0.026,-0.0549 0.0391,-0.0823 0.013,-0.0274 0.026,-0.0549 0.039,-0.0823 0.013,-0.0274 0.026,-0.0549 0.039,-0.0823 0.013,-0.0274 0.0261,-0.0549 0.039,-0.0823 0.013,-0.0275 0.026,-0.0549 0.0391,-0.0823 0.013,-0.0274 0.026,-0.0549 0.039,-0.0823 0.013,-0.0274 0.026,-0.0549 0.039,-0.0823 0.013,-0.0274 0.0261,-0.0549 0.039,-0.0823 0.013,-0.0274 0.026,-0.0549 0.0391,-0.0823 0.013,-0.0274 0.026,-0.0549 0.039,-0.0823 0.013,-0.0274 0.026,-0.0549 0.039,-0.0823 0.013,-0.0274 0.026,-0.0549 0.039,-0.0823 0.013,-0.0275 0.026,-0.0549 0.039,-0.0823 0.013,-0.0274 0.0261,-0.0549 0.0391,-0.0823 0.013,-0.0274 0.026,-0.0549 0.039,-0.0823 0.013,-0.0274 0.026,-0.0549 0.039,-0.0823 0.013,-0.0274 0.026,-0.0549 0.039,-0.0823 0.013,-0.0274 0.0261,-0.0549 0.0391,-0.0823 0.013,-0.0274 0.026,-0.0549 0.039,-0.0823 0.013,-0.0274 0.026,-0.0549 0.039,-0.0823 0.013,-0.0274 0.026,-0.0549 0.039,-0.0823 0.013,-0.0274 0.0261,-0.0549 0.039,-0.0823 0.013,-0.0275 0.026,-0.0549 0.0391,-0.0823 0.013,-0.0274 0.026,-0.0549 0.039,-0.0823 0.013,-0.0274 0.026,-0.0549 0.039,-0.0823 0.013,-0.0274 0.0261,-0.0549 0.039,-0.0823 0.013,-0.0274 0.026,-0.0549 0.0391,-0.0823 0.013,-0.0274 0.026,-0.0549 0.039,-0.0823 0.013,-0.0274 0.026,-0.0549 0.039,-0.0823 0.013,-0.0274 0.026,-0.0549 0.039,-0.0823 0.013,-0.0274 0.0261,-0.0549 0.0391,-0.0823 0.013,-0.0274 0.0208,-0.0782 0.039,-0.0823 l 0.001,-2.3e-4 z"
       id="path208"
       inkscape:connector-curvature="0"
       sodipodi:nodetypes="csssssssssssssssssssssssssssssssssssssssssssssssssssssssssssssssssssssssssssssssssssssssssssssssssssssssssssssssssssssssssssssssssssssssssssssssssssssssssssssssssssssssssssssssssssssssssssssssssssssssssssssssssssssssssssssssssssssssssssssssssssssssssssssssssssssssssssssssssssssssssssssssssssssssssssssssssssssssssssssssscc" />
  </g>
</svg>
