<?xml version="1.0" encoding="UTF-8" standalone="no"?>
<!-- Created with Inkscape (http://www.inkscape.org/) -->

<svg
   xmlns:dc="http://purl.org/dc/elements/1.1/"
   xmlns:cc="http://creativecommons.org/ns#"
   xmlns:rdf="http://www.w3.org/1999/02/22-rdf-syntax-ns#"
   xmlns:svg="http://www.w3.org/2000/svg"
   xmlns="http://www.w3.org/2000/svg"
   xmlns:sodipodi="http://sodipodi.sourceforge.net/DTD/sodipodi-0.dtd"
   xmlns:inkscape="http://www.inkscape.org/namespaces/inkscape"
   width="744.09448819"
   height="1052.3622047"
   id="svg2"
   version="1.1"
   inkscape:version="0.92.3 (3ce5693, 2018-03-11)"
   sodipodi:docname="2.svg">
  <defs
     id="defs4">
    <inkscape:perspective
       sodipodi:type="inkscape:persp3d"
       inkscape:vp_x="0 : 526.18109 : 1"
       inkscape:vp_y="0 : 1000 : 0"
       inkscape:vp_z="744.09448 : 526.18109 : 1"
       inkscape:persp3d-origin="372.04724 : 350.78739 : 1"
       id="perspective3052" />
    <inkscape:path-effect
       effect="spiro"
       id="path-effect3864"
       is_visible="true" />
    <inkscape:path-effect
       effect="spiro"
       id="path-effect3860"
       is_visible="true" />
    <inkscape:path-effect
       effect="spiro"
       id="path-effect3854"
       is_visible="true" />
  </defs>
  <sodipodi:namedview
     id="base"
     pagecolor="#ffffff"
     bordercolor="#666666"
     borderopacity="1.0"
     inkscape:pageopacity="0.0"
     inkscape:pageshadow="2"
     inkscape:zoom="22.4"
     inkscape:cx="533.85696"
     inkscape:cy="650.66383"
     inkscape:document-units="px"
     inkscape:current-layer="layer1"
     showgrid="false"
     inkscape:window-width="1366"
     inkscape:window-height="713"
     inkscape:window-x="0"
     inkscape:window-y="27"
     inkscape:window-maximized="1" />
  <metadata
     id="metadata7">
    <rdf:RDF>
      <cc:Work
         rdf:about="">
        <dc:format>image/svg+xml</dc:format>
        <dc:type
           rdf:resource="http://purl.org/dc/dcmitype/StillImage" />
        <dc:title></dc:title>
      </cc:Work>
    </rdf:RDF>
  </metadata>
  <g
     inkscape:label="Layer 1"
     inkscape:groupmode="layer"
     id="layer1">
    <path
       style="fill:none;stroke:#000000;stroke-width:1px;stroke-linecap:butt;stroke-linejoin:miter;stroke-opacity:1"
       d="m 528.4375,403.65682 c 0.007,-0.0112 0.0166,-0.0259 0.0287,-0.044 0.0121,-0.0181 0.0267,-0.0395 0.0436,-0.064 0.0169,-0.0245 0.0362,-0.0521 0.0575,-0.0827 0.0214,-0.0305 0.0449,-0.0639 0.0704,-0.0999 0.0255,-0.036 0.0529,-0.0747 0.0822,-0.11571 0.0292,-0.0411 0.0603,-0.0845 0.0929,-0.13013 0.0327,-0.0456 0.0669,-0.0934 0.10267,-0.14314 0.0357,-0.0497 0.0729,-0.10139 0.11136,-0.15475 0.0385,-0.0534 0.0782,-0.10843 0.11901,-0.16496 0.0408,-0.0565 0.0828,-0.11452 0.12562,-0.17374 0.0429,-0.0592 0.0866,-0.11969 0.1312,-0.18114 0.0445,-0.0615 0.0898,-0.12391 0.13573,-0.18712 0.0459,-0.0632 0.0924,-0.1272 0.13923,-0.1917 0.0469,-0.0645 0.0942,-0.12954 0.14169,-0.19487 0.0475,-0.0653 0.0953,-0.13096 0.14312,-0.19664 0.0478,-0.0657 0.0957,-0.13143 0.1435,-0.197 0.0478,-0.0656 0.0954,-0.13096 0.14284,-0.19595 0.0474,-0.065 0.0945,-0.12956 0.14116,-0.1935 0.0466,-0.0639 0.0928,-0.12722 0.13842,-0.18964 0.0456,-0.0624 0.0905,-0.12395 0.13465,-0.18437 0.0441,-0.0604 0.0875,-0.11974 0.12985,-0.17771 0.0424,-0.058 0.0838,-0.11458 0.124,-0.16962 0.0402,-0.055 0.0793,-0.10851 0.11712,-0.16015 0.0378,-0.0516 0.0742,-0.10148 0.1092,-0.14926 0.035,-0.0478 0.0684,-0.0935 0.10024,-0.13696 0.0318,-0.0435 0.062,-0.0846 0.0902,-0.12327 0.0283,-0.0387 0.0548,-0.0748 0.0792,-0.10815 0.0244,-0.0334 0.0469,-0.064 0.0671,-0.0917 0.0203,-0.0276 0.0394,-0.0479 0.0564,-0.0639 0.017,-0.016 0.0319,-0.0277 0.0438,-0.0381 0.0119,-0.0104 0.0207,-0.0195 0.0255,-0.0304 0.005,-0.0109 0.006,-0.0235 0.001,-0.0409 -0.012,-0.0501 -0.0411,-0.0869 -0.0807,-0.11515 -0.0397,-0.0283 -0.09,-0.0482 -0.14449,-0.0647 -0.0545,-0.0165 -0.11333,-0.0297 -0.17,-0.0445 -0.0567,-0.0148 -0.11121,-0.0314 -0.15724,-0.0546 -0.046,-0.0232 -0.0921,-0.0465 -0.13812,-0.0697 -0.046,-0.0232 -0.0921,-0.0465 -0.13811,-0.0698 -0.046,-0.0233 -0.0921,-0.0465 -0.13812,-0.0697 -0.046,-0.0233 -0.0921,-0.0465 -0.13811,-0.0698 -0.046,-0.0232 -0.0921,-0.0465 -0.13811,-0.0697 -0.046,-0.0232 -0.0921,-0.0465 -0.13812,-0.0697 -0.046,-0.0233 -0.0921,-0.0465 -0.13811,-0.0698 -0.046,-0.0233 -0.0921,-0.0465 -0.13811,-0.0697 -0.046,-0.0233 -0.0921,-0.0465 -0.13812,-0.0698 -0.046,-0.0232 -0.0921,-0.0465 -0.13811,-0.0697 -0.046,-0.0232 -0.0921,-0.0465 -0.13812,-0.0698 -0.046,-0.0233 -0.0921,-0.0465 -0.13811,-0.0697 -0.046,-0.0233 -0.0921,-0.0465 -0.13811,-0.0697 -0.046,-0.0233 -0.0921,-0.0465 -0.13812,-0.0698 -0.046,-0.0232 -0.0921,-0.0465 -0.13811,-0.0697 -0.046,-0.0232 -0.0921,-0.0465 -0.13811,-0.0698 -0.046,-0.0233 -0.0921,-0.0465 -0.13812,-0.0697 -0.046,-0.0233 -0.0921,-0.0465 -0.13811,-0.0698 -0.046,-0.0233 -0.0921,-0.0465 -0.13812,-0.0697 -0.046,-0.0233 -0.0921,-0.0465 -0.13811,-0.0698 -0.046,-0.0233 -0.0921,-0.0465 -0.13811,-0.0697 -0.046,-0.0233 -0.0921,-0.0465 -0.13812,-0.0697 -0.046,-0.0233 -0.0921,-0.0465 -0.13811,-0.0698 -0.046,-0.0233 -0.0921,-0.0465 -0.13812,-0.0697 -0.046,-0.0233 -0.091,-0.055 -0.13564,-0.0889 -0.0447,-0.0339 -0.0891,-0.07 -0.13401,-0.10174 -0.0449,-0.0318 -0.0904,-0.0593 -0.13729,-0.0761 -0.0469,-0.0168 -0.0951,-0.0231 -0.14551,-0.0122 -0.0514,0.0111 -0.0936,0.0371 -0.13008,0.0724 -0.0365,0.0353 -0.0672,0.08 -0.0956,0.12837 -0.0284,0.0484 -0.0545,0.1005 -0.0818,0.15075 -0.0273,0.0503 -0.0557,0.0986 -0.0887,0.13956 -0.033,0.0409 -0.066,0.0818 -0.0991,0.12277 -0.033,0.0409 -0.066,0.0818 -0.099,0.12277 -0.033,0.0409 -0.066,0.0818 -0.0991,0.12276 -0.033,0.0409 -0.066,0.0819 -0.0991,0.12277 -0.033,0.0409 -0.066,0.0819 -0.0991,0.12277 -0.033,0.0409 -0.066,0.0819 -0.099,0.12277 -0.033,0.0409 -0.066,0.0818 -0.0991,0.12277 -0.033,0.0409 -0.066,0.0818 -0.0991,0.12276 -0.033,0.0409 -0.066,0.0818 -0.0991,0.12277 -0.033,0.0409 -0.066,0.0818 -0.099,0.12277 -0.033,0.0409 -0.066,0.0818 -0.0991,0.12277 -0.033,0.0409 -0.066,0.0818 -0.0991,0.12276 -0.033,0.0409 -0.066,0.0818 -0.099,0.12277 -0.033,0.0409 -0.066,0.0818 -0.0991,0.12277 -0.033,0.0409 -0.066,0.0818 -0.0991,0.12277 -0.033,0.0409 -0.066,0.0818 -0.0991,0.12277 -0.033,0.0409 -0.066,0.0818 -0.099,0.12276 -0.033,0.0409 -0.066,0.0819 -0.0991,0.12277 -0.033,0.0409 -0.066,0.0819 -0.0991,0.12277 -0.033,0.0409 -0.066,0.0818 -0.0991,0.12277 -0.033,0.0409 -0.066,0.0818 -0.099,0.12277 -0.033,0.0409 -0.066,0.0818 -0.0991,0.12276 -0.033,0.0409 -0.066,0.0818 -0.0991,0.12277 -0.033,0.0409 -0.066,0.0818 -0.0991,0.12277 -0.033,0.0409 -0.0844,0.0837 -0.1405,0.12705 -0.0561,0.0433 -0.1167,0.0871 -0.16814,0.12989 -0.0514,0.0428 -0.0937,0.0847 -0.11287,0.1242 -0.0192,0.0395 -0.0154,0.0766 0.0253,0.10993 0.0388,0.0318 0.0743,0.0284 0.10764,0.003 0.0334,-0.0254 0.0646,-0.0728 0.095,-0.12899 0.0304,-0.0562 0.06,-0.1212 0.0899,-0.1818 0.03,-0.0606 0.0604,-0.11679 0.0925,-0.15539 0.0321,-0.0386 0.0642,-0.0772 0.0963,-0.11579 0.0321,-0.0386 0.0642,-0.0772 0.0963,-0.11579 0.0321,-0.0386 0.0642,-0.0772 0.0963,-0.1158 0.0321,-0.0386 0.0642,-0.0772 0.0963,-0.11579 0.0321,-0.0386 0.0642,-0.0772 0.0963,-0.11579 0.0321,-0.0386 0.0642,-0.0772 0.0963,-0.11579 0.0321,-0.0386 0.0642,-0.0772 0.0963,-0.11579 0.0321,-0.0386 0.0642,-0.0772 0.0963,-0.1158 0.0321,-0.0386 0.0642,-0.0772 0.0963,-0.11579 0.0321,-0.0386 0.0642,-0.0772 0.0963,-0.11579 0.0321,-0.0386 0.0642,-0.0772 0.0963,-0.11579 0.0321,-0.0386 0.0642,-0.0772 0.0963,-0.1158 0.0321,-0.0386 0.0642,-0.0772 0.0963,-0.11579 0.0321,-0.0386 0.0642,-0.0772 0.0963,-0.11579 0.0321,-0.0386 0.0642,-0.0772 0.0963,-0.11579 0.0321,-0.0386 0.0642,-0.0772 0.0963,-0.11579 0.0321,-0.0386 0.0642,-0.0772 0.0963,-0.1158 0.0321,-0.0386 0.0642,-0.0772 0.0963,-0.11579 0.0321,-0.0386 0.0642,-0.0772 0.0963,-0.11579 0.0321,-0.0386 0.0642,-0.0772 0.0963,-0.11579 0.0321,-0.0386 0.0642,-0.0772 0.0963,-0.11579 0.0321,-0.0386 0.0642,-0.0772 0.0963,-0.1158 0.0321,-0.0386 0.0642,-0.0772 0.0963,-0.11579 0.0321,-0.0386 0.0642,-0.0772 0.0963,-0.11579 0.0321,-0.0386 0.0599,-0.0843 0.0867,-0.13182 0.0267,-0.0475 0.0524,-0.0968 0.0802,-0.14252 0.0278,-0.0457 0.0578,-0.0879 0.0931,-0.12113 0.0353,-0.0333 0.0759,-0.0576 0.12508,-0.0677 0.0481,-0.01 0.094,-0.004 0.13851,0.0126 0.0445,0.0163 0.0877,0.0426 0.13031,0.073 0.0426,0.0304 0.0847,0.0648 0.12705,0.0971 0.0423,0.0324 0.085,0.0628 0.12868,0.0851 0.0437,0.0223 0.0874,0.0446 0.13114,0.067 0.0437,0.0223 0.0874,0.0446 0.13114,0.067 0.0437,0.0223 0.0874,0.0446 0.13114,0.067 0.0437,0.0223 0.0874,0.0446 0.13114,0.067 0.0437,0.0223 0.0874,0.0446 0.13113,0.067 0.0437,0.0223 0.0874,0.0446 0.13114,0.067 0.0437,0.0223 0.0874,0.0446 0.13114,0.067 0.0437,0.0223 0.0874,0.0446 0.13114,0.067 0.0437,0.0223 0.0874,0.0446 0.13114,0.067 0.0437,0.0223 0.0874,0.0446 0.13113,0.067 0.0437,0.0223 0.0874,0.0446 0.13114,0.067 0.0437,0.0223 0.0874,0.0446 0.13114,0.067 0.0437,0.0223 0.0874,0.0446 0.13114,0.067 0.0437,0.0223 0.0874,0.0446 0.13114,0.067 0.0437,0.0223 0.0874,0.0446 0.13113,0.067 0.0437,0.0223 0.0874,0.0446 0.13114,0.067 0.0437,0.0223 0.0874,0.0446 0.13114,0.067 0.0437,0.0223 0.0874,0.0446 0.13114,0.067 0.0437,0.0223 0.0874,0.0446 0.13114,0.067 0.0437,0.0223 0.0874,0.0446 0.13114,0.067 0.0437,0.0223 0.0874,0.0446 0.13113,0.067 0.0437,0.0223 0.0874,0.0446 0.13114,0.067 0.0437,0.0223 0.0874,0.0446 0.13114,0.067 0.0437,0.0223 0.0874,0.0446 0.13114,0.067 0.0437,0.0223 0.0953,0.0383 0.14881,0.0528 0.0535,0.0145 0.10903,0.0273 0.1606,0.0434 0.0516,0.016 0.0992,0.0352 0.13703,0.0622 0.0378,0.027 0.0658,0.062 0.0781,0.10948 0.0288,0.11126 0.0111,0.21455 -0.0357,0.31287 -0.0467,0.0983 -0.12254,0.19166 -0.20995,0.28301 -0.0874,0.0913 -0.18644,0.18071 -0.27966,0.27106 -0.0932,0.0904 -0.18063,0.1817 -0.24481,0.27703 -0.0642,0.0953 -0.12835,0.19067 -0.19252,0.286 -0.0642,0.0953 -0.12835,0.19066 -0.19252,0.28599 -0.0642,0.0953 -0.12835,0.19066 -0.19253,0.28599 -0.0642,0.0953 -0.12834,0.19067 -0.19252,0.286 -0.0642,0.0953 -0.12835,0.19066 -0.19252,0.28599 -0.0642,0.0953 -0.12835,0.19066 -0.19252,0.28599 -0.0642,0.0953 -0.12835,0.19067 -0.19252,0.286 -0.0642,0.0953 -0.12835,0.19066 -0.19253,0.28599 -0.0642,0.0953 -0.12834,0.19066 -0.19252,0.28599 -0.0642,0.0953 -0.12835,0.19067 -0.19252,0.286 -0.0642,0.0953 -0.12835,0.19066 -0.19252,0.28599 -0.0642,0.0953 -0.12835,0.19066 -0.19252,0.28599 -0.0642,0.0953 -0.12835,0.19067 -0.19253,0.286 -0.0642,0.0953 -0.12835,0.19066 -0.19252,0.28599 -0.0642,0.0953 -0.12835,0.19066 -0.19252,0.286 -0.0642,0.0953 -0.12835,0.19066 -0.19252,0.28599 -0.0642,0.0953 -0.12835,0.19066 -0.19253,0.28599 -0.0642,0.0953 -0.12834,0.19066 -0.19252,0.286 -0.0642,0.0953 -0.12835,0.19066 -0.19252,0.28599 -0.0642,0.0953 -0.12835,0.19066 -0.19252,0.28599 -0.0642,0.0953 -0.12835,0.19066 -0.19252,0.286 -0.0642,0.0953 -0.12835,0.19066 -0.19253,0.28599 -0.0642,0.0953 -0.12835,0.19066 -0.19252,0.28599 -0.0642,0.0953 -0.12835,0.19067 -0.19252,0.286 -0.0642,0.0953 -0.15749,0.18892 -0.2581,0.28208 -0.10061,0.0932 -0.2085,0.18589 -0.30182,0.27949 -0.0933,0.0936 -0.17206,0.18806 -0.21438,0.28469 -0.0423,0.0966 -0.0482,0.19544 0.004,0.29771 0.034,0.0662 0.0881,0.10054 0.15494,0.11485 0.0668,0.0143 0.14628,0.009 0.2308,-0.005 0.0845,-0.0137 0.1741,-0.0353 0.26115,-0.053 0.087,-0.0177 0.17156,-0.0313 0.24597,-0.029 0.0744,0.002 0.14881,0.005 0.22321,0.007 0.0744,0.002 0.14881,0.005 0.22322,0.007 0.0744,0.002 0.14881,0.005 0.22321,0.007 0.0744,0.002 0.14881,0.005 0.22322,0.007 0.0744,0.002 0.1488,0.005 0.22321,0.007 0.0744,0.002 0.14881,0.005 0.22321,0.007 0.0744,0.002 0.14881,0.005 0.22322,0.007 0.0744,0.002 0.14881,0.005 0.22321,0.007 0.0744,0.002 0.14881,0.005 0.22322,0.007 0.0744,0.002 0.14881,0.005 0.22321,0.007 0.0744,0.002 0.14881,0.005 0.22322,0.007 0.0744,0.002 0.14881,0.005 0.22321,0.007 0.0744,0.002 0.14881,0.005 0.22321,0.007 0.0744,0.002 0.14881,0.005 0.22322,0.007 0.0744,0.002 0.14881,0.005 0.22321,0.007 0.0744,0.002 0.14881,0.005 0.22322,0.007 0.0744,0.002 0.14881,0.005 0.22321,0.007 0.0744,0.002 0.14881,0.005 0.22322,0.007 0.0744,0.002 0.14881,0.005 0.22321,0.007 0.0744,0.002 0.14881,0.005 0.22322,0.007 0.0744,0.002 0.1488,0.005 0.22321,0.007 0.0744,0.002 0.14881,0.005 0.22321,0.007 0.0744,0.002 0.14881,0.005 0.22322,0.007 0.0744,0.002 0.14881,0.005 0.22321,0.007 0.0744,0.002 0.16639,0.0238 0.26278,0.0501 0.0964,0.0263 0.19716,0.0573 0.28915,0.0788 0.092,0.0215 0.17518,0.0334 0.2364,0.0214 0.0612,-0.0121 0.10046,-0.0481 0.10453,-0.12238 0.004,-0.0713 -0.0297,-0.10968 -0.0868,-0.12758 -0.0571,-0.0179 -0.13761,-0.0153 -0.22752,-0.004 -0.0899,0.0108 -0.18921,0.0299 -0.28382,0.0448 -0.0946,0.0149 -0.18452,0.0258 -0.25566,0.0202 -0.0711,-0.006 -0.1423,-0.0112 -0.21345,-0.0167 -0.0711,-0.006 -0.1423,-0.0112 -0.21345,-0.0168 -0.0711,-0.006 -0.1423,-0.0112 -0.21345,-0.0167 -0.0711,-0.006 -0.1423,-0.0112 -0.21345,-0.0167 -0.0711,-0.006 -0.1423,-0.0112 -0.21345,-0.0167 -0.0711,-0.006 -0.1423,-0.0112 -0.21345,-0.0167 -0.0711,-0.006 -0.1423,-0.0112 -0.21345,-0.0167 -0.0711,-0.006 -0.1423,-0.0112 -0.21344,-0.0167 -0.0711,-0.006 -0.1423,-0.0112 -0.21345,-0.0167 -0.0712,-0.006 -0.1423,-0.0112 -0.21345,-0.0167 -0.0711,-0.006 -0.1423,-0.0112 -0.21345,-0.0167 -0.0711,-0.006 -0.1423,-0.0112 -0.21345,-0.0168 -0.0711,-0.006 -0.1423,-0.0112 -0.21345,-0.0167 -0.0711,-0.006 -0.1423,-0.0112 -0.21345,-0.0167 -0.0711,-0.006 -0.1423,-0.0112 -0.21345,-0.0167 -0.0711,-0.006 -0.1423,-0.0112 -0.21344,-0.0167 -0.0711,-0.006 -0.1423,-0.0112 -0.21345,-0.0167 -0.0711,-0.006 -0.1423,-0.0112 -0.21345,-0.0167 -0.0711,-0.006 -0.1423,-0.0112 -0.21345,-0.0167 -0.0711,-0.006 -0.1423,-0.0112 -0.21345,-0.0167 -0.0711,-0.006 -0.1423,-0.0112 -0.21345,-0.0167 -0.0711,-0.006 -0.1423,-0.0112 -0.21345,-0.0167 -0.0711,-0.006 -0.1423,-0.0112 -0.21345,-0.0168 -0.0712,-0.006 -0.1423,-0.0112 -0.21344,-0.0167 -0.0712,-0.006 -0.1522,0.003 -0.23573,0.0161 -0.0835,0.0127 -0.16952,0.029 -0.25057,0.038 -0.0811,0.009 -0.15715,0.0108 -0.22088,-0.006 -0.0637,-0.0165 -0.11507,-0.0513 -0.14662,-0.11535 -0.0253,-0.0512 -0.0223,-0.10083 -0.002,-0.14936 0.0206,-0.0485 0.0588,-0.096 0.10405,-0.14306 0.0453,-0.0471 0.0976,-0.0937 0.14636,-0.14055 0.0488,-0.0469 0.0941,-0.0939 0.1252,-0.14181 0.0312,-0.0479 0.0623,-0.0958 0.0935,-0.14369 0.0312,-0.0479 0.0623,-0.0958 0.0935,-0.1437 0.0312,-0.0479 0.0623,-0.0958 0.0935,-0.14369 0.0312,-0.0479 0.0623,-0.0958 0.0935,-0.14369 0.0312,-0.0479 0.0623,-0.0958 0.0935,-0.1437 0.0312,-0.0479 0.0623,-0.0958 0.0935,-0.14369 0.0312,-0.0479 0.0623,-0.0958 0.0935,-0.1437 0.0312,-0.0479 0.0623,-0.0958 0.0935,-0.14369 0.0312,-0.0479 0.0623,-0.0958 0.0935,-0.1437 0.0312,-0.0479 0.0623,-0.0958 0.0935,-0.14369 0.0312,-0.0479 0.0623,-0.0958 0.0935,-0.1437 0.0312,-0.0479 0.0623,-0.0958 0.0935,-0.14369 0.0312,-0.0479 0.0623,-0.0958 0.0935,-0.14369 0.0312,-0.0479 0.0623,-0.0958 0.0935,-0.1437 0.0312,-0.0479 0.0623,-0.0958 0.0935,-0.14369 0.0311,-0.0479 0.0623,-0.0958 0.0935,-0.1437 0.0312,-0.0479 0.0623,-0.0958 0.0935,-0.14369 0.0312,-0.0479 0.0623,-0.0958 0.0935,-0.1437 0.0312,-0.0479 0.0623,-0.0958 0.0935,-0.14369 0.0312,-0.0479 0.0623,-0.0958 0.0935,-0.1437 0.0312,-0.0479 0.0623,-0.0958 0.0935,-0.14369 0.0312,-0.0479 0.0623,-0.0958 0.0935,-0.14369 0.0312,-0.0479 0.0623,-0.0958 0.0935,-0.1437 0.0312,-0.0479 0.0623,-0.0958 0.0935,-0.14369 0.0312,-0.0479 0.0662,-0.10154 0.10223,-0.15661 0.036,-0.0551 0.073,-0.11159 0.10807,-0.16522 0.0351,-0.0536 0.0682,-0.10441 0.0964,-0.148 0.0282,-0.0436 0.0516,-0.08 0.0672,-0.10495 z"
       id="path187"
       inkscape:connector-curvature="0"
       sodipodi:nodetypes="sssssssssssssssssssssssssssssssssssssssssssssssssssssssssssssssssssssssssssssssssssssssssssssssssssssssssssssssssssssssssssssssssssssssssssssssssssssssssssssssssssssssssssssssssssssssssssssssssssssssssssssssssssssssssssssssssssssssssssssssssssssssssssssssssssssssssssssssssssssssssssssssss" />
  </g>
</svg>
