<?xml version="1.0" encoding="UTF-8" standalone="no"?>
<!-- Created with Inkscape (http://www.inkscape.org/) -->

<svg
   xmlns:dc="http://purl.org/dc/elements/1.1/"
   xmlns:cc="http://creativecommons.org/ns#"
   xmlns:rdf="http://www.w3.org/1999/02/22-rdf-syntax-ns#"
   xmlns:svg="http://www.w3.org/2000/svg"
   xmlns="http://www.w3.org/2000/svg"
   xmlns:sodipodi="http://sodipodi.sourceforge.net/DTD/sodipodi-0.dtd"
   xmlns:inkscape="http://www.inkscape.org/namespaces/inkscape"
   width="744.09448819"
   height="1052.3622047"
   id="svg2"
   version="1.1"
   inkscape:version="0.92.3 (3ce5693, 2018-03-11)"
   sodipodi:docname="3.svg">
  <defs
     id="defs4">
    <inkscape:perspective
       sodipodi:type="inkscape:persp3d"
       inkscape:vp_x="0 : 526.18109 : 1"
       inkscape:vp_y="0 : 1000 : 0"
       inkscape:vp_z="744.09448 : 526.18109 : 1"
       inkscape:persp3d-origin="372.04724 : 350.78739 : 1"
       id="perspective3052" />
    <inkscape:path-effect
       effect="spiro"
       id="path-effect3864"
       is_visible="true" />
    <inkscape:path-effect
       effect="spiro"
       id="path-effect3860"
       is_visible="true" />
    <inkscape:path-effect
       effect="spiro"
       id="path-effect3854"
       is_visible="true" />
  </defs>
  <sodipodi:namedview
     id="base"
     pagecolor="#ffffff"
     bordercolor="#666666"
     borderopacity="1.0"
     inkscape:pageopacity="0.0"
     inkscape:pageshadow="2"
     inkscape:zoom="22.4"
     inkscape:cx="535.36582"
     inkscape:cy="645.79371"
     inkscape:document-units="px"
     inkscape:current-layer="layer1"
     showgrid="false"
     inkscape:window-width="1366"
     inkscape:window-height="713"
     inkscape:window-x="0"
     inkscape:window-y="27"
     inkscape:window-maximized="1" />
  <metadata
     id="metadata7">
    <rdf:RDF>
      <cc:Work
         rdf:about="">
        <dc:format>image/svg+xml</dc:format>
        <dc:type
           rdf:resource="http://purl.org/dc/dcmitype/StillImage" />
        <dc:title />
      </cc:Work>
    </rdf:RDF>
  </metadata>
  <g
     inkscape:label="Layer 1"
     inkscape:groupmode="layer"
     id="layer1">
    <path
       style="fill:none;stroke:#000000;stroke-width:1px;stroke-linecap:butt;stroke-linejoin:miter;stroke-opacity:1"
       d="m 526.83036,407.00504 c -3.3e-4,-0.0178 0.0124,-0.0138 0.0355,-0.0397 0.0232,-0.0259 0.0572,-0.0639 0.10038,-0.11232 0.0432,-0.0484 0.0956,-0.10732 0.1557,-0.17497 0.0601,-0.0677 0.12777,-0.14407 0.20153,-0.2276 0.0738,-0.0835 0.15359,-0.17417 0.23789,-0.27024 0.0843,-0.0961 0.1731,-0.19759 0.26478,-0.30288 0.0917,-0.10529 0.18627,-0.21434 0.28217,-0.3255 0.0959,-0.11117 0.19312,-0.22443 0.29008,-0.33813 0.097,-0.1137 0.19366,-0.22784 0.28851,-0.34074 0.0949,-0.1129 0.18787,-0.22458 0.27746,-0.33335 0.0896,-0.10877 0.17576,-0.21464 0.25692,-0.31595 0.0812,-0.10131 0.15733,-0.19805 0.22691,-0.28856 0.0696,-0.0905 0.13258,-0.17478 0.18741,-0.25115 0.0548,-0.0764 0.10151,-0.14483 0.13843,-0.20373 0.0369,-0.0589 0.0641,-0.10822 0.08,-0.14631 0.0159,-0.0381 0.0204,-0.065 0.012,-0.0789 -0.008,-0.0139 -0.0289,-0.0375 -0.0602,-0.0694 -0.0312,-0.0319 -0.0731,-0.0721 -0.12408,-0.11939 -0.051,-0.0473 -0.11103,-0.10168 -0.17861,-0.1619 -0.0676,-0.0602 -0.1427,-0.12628 -0.22379,-0.1969 -0.0811,-0.0706 -0.16815,-0.14583 -0.25963,-0.22436 -0.0915,-0.0785 -0.18737,-0.16038 -0.28611,-0.2443 -0.0987,-0.0839 -0.20035,-0.16992 -0.30325,-0.25673 -0.1029,-0.0868 -0.20709,-0.17444 -0.31102,-0.26164 -0.10393,-0.0872 -0.20761,-0.17395 -0.30946,-0.25902 -0.10185,-0.0851 -0.20188,-0.16844 -0.29854,-0.24888 -0.0967,-0.0804 -0.18993,-0.15793 -0.27827,-0.23122 -0.0883,-0.0733 -0.17174,-0.1424 -0.24864,-0.20605 -0.0769,-0.0636 -0.14731,-0.12185 -0.20967,-0.17335 -0.0624,-0.0515 -0.11665,-0.0963 -0.16134,-0.13314 -0.0447,-0.0368 -0.0798,-0.0657 -0.10367,-0.0854 -0.0239,-0.0197 -0.0208,-0.0309 -0.0366,-0.0301 -0.1051,0.005 -0.14881,0.14881 -0.22322,0.22322 -0.0744,0.0744 -0.14881,0.1488 -0.22321,0.22321 -0.0744,0.0744 -0.14881,0.14881 -0.22321,0.22322 -0.0744,0.0744 -0.14881,0.14881 -0.22321,0.22321 -0.0744,0.0744 -0.14881,0.14881 -0.22321,0.22322 -0.0744,0.0744 -0.14882,0.14881 -0.22322,0.22321 -0.0744,0.0744 -0.14881,0.14881 -0.22321,0.22322 -0.0744,0.0744 -0.14881,0.14881 -0.22322,0.22321 -0.0744,0.0744 -0.14881,0.14881 -0.22321,0.22321 -0.0744,0.0744 -0.14882,0.14881 -0.22322,0.22321 -0.0744,0.0744 -0.14881,0.14881 -0.22321,0.22322 -0.0744,0.0744 -0.14882,0.1488 -0.22322,0.22321 -0.0744,0.0744 -0.14881,0.14881 -0.22321,0.22322 -0.0744,0.0744 -0.14881,0.14881 -0.22321,0.22321 -0.0744,0.0744 -0.14881,0.14881 -0.22321,0.22322 -0.0744,0.0744 -0.29715,0.14834 -0.22322,0.22321 0.073,0.0739 0.14881,-0.14509 0.22322,-0.21763 0.0744,-0.0725 0.1488,-0.1451 0.22321,-0.21764 0.0744,-0.0725 0.14881,-0.14509 0.22321,-0.21763 0.0744,-0.0725 0.14881,-0.14509 0.22321,-0.21763 0.0744,-0.0725 0.14881,-0.14509 0.22322,-0.21763 0.0744,-0.0726 0.14881,-0.14509 0.22321,-0.21764 0.0744,-0.0725 0.14881,-0.14509 0.22322,-0.21763 0.0744,-0.0725 0.14881,-0.14509 0.22321,-0.21764 0.0744,-0.0725 0.14881,-0.14509 0.22322,-0.21763 0.0744,-0.0725 0.1488,-0.1451 0.22321,-0.21764 0.0744,-0.0725 0.14881,-0.14509 0.22322,-0.21763 0.0744,-0.0725 0.14881,-0.14509 0.22321,-0.21763 0.0744,-0.0725 0.14881,-0.14509 0.22321,-0.21763 0.0744,-0.0726 0.14881,-0.1451 0.22321,-0.21764 0.0744,-0.0726 0.14881,-0.14509 0.22321,-0.21763 0.0744,-0.0726 0.11932,-0.21561 0.22322,-0.21764 0.0889,-0.002 0.13207,0.11905 0.19811,0.17857 0.066,0.0595 0.13207,0.11905 0.1981,0.17857 0.066,0.0595 0.13207,0.11905 0.1981,0.17858 0.066,0.0595 0.13207,0.11905 0.1981,0.17857 0.066,0.0595 0.13207,0.11905 0.19811,0.17857 0.066,0.0595 0.13207,0.11905 0.1981,0.17857 0.066,0.0595 0.13207,0.11905 0.1981,0.17857 0.066,0.0595 0.13208,0.11905 0.19811,0.17857 0.066,0.0595 0.13207,0.11905 0.1981,0.17857 0.066,0.0595 0.13207,0.11905 0.1981,0.17857 0.066,0.0595 0.13207,0.11905 0.1981,0.17858 0.066,0.0595 0.13207,0.11905 0.19811,0.17857 0.066,0.0595 0.13207,0.11905 0.1981,0.17857 0.066,0.0595 0.13207,0.11905 0.1981,0.17857 0.066,0.0595 0.13207,0.11905 0.1981,0.17857 0.066,0.0595 0.19147,0.0899 0.19811,0.17857 0.008,0.10082 -0.12835,0.15625 -0.19253,0.23438 -0.0642,0.0781 -0.12835,0.15624 -0.19252,0.23437 -0.0642,0.0781 -0.12835,0.15625 -0.19252,0.23438 -0.0642,0.0781 -0.12835,0.15625 -0.19252,0.23437 -0.0642,0.0781 -0.12835,0.15625 -0.19253,0.23438 -0.0642,0.0781 -0.12835,0.15624 -0.19252,0.23437 -0.0642,0.0781 -0.12835,0.15625 -0.19252,0.23438 -0.0642,0.0781 -0.12835,0.15625 -0.19252,0.23437 -0.0642,0.0781 -0.12835,0.15625 -0.19253,0.23438 -0.0642,0.0781 -0.12835,0.15624 -0.19252,0.23437 -0.0642,0.0781 -0.12835,0.15625 -0.19252,0.23438 -0.0642,0.0781 -0.12835,0.15625 -0.19252,0.23437 -0.0642,0.0781 -0.12835,0.15625 -0.19252,0.23438 -0.0642,0.0781 -0.12836,0.15624 -0.19253,0.23437 -0.0642,0.0781 -0.12835,0.15625 -0.19252,0.23438 -0.0642,0.0781 -0.20158,0.13367 -0.19252,0.23437 0.007,0.0802 0.12277,0.10417 0.18415,0.15625 0.0614,0.0521 0.12277,0.10417 0.18415,0.15625 0.0614,0.0521 0.12277,0.10417 0.18415,0.15625 0.0614,0.0521 0.12278,0.10417 0.18416,0.15625 0.0614,0.0521 0.12277,0.10417 0.18415,0.15625 0.0614,0.0521 0.12277,0.10417 0.18415,0.15625 0.0614,0.0521 0.12277,0.10417 0.18415,0.15625 0.0614,0.0521 0.12277,0.10417 0.18415,0.15625 0.0614,0.0521 0.12277,0.10417 0.18415,0.15625 0.0614,0.0521 0.12278,0.10417 0.18416,0.15625 0.0614,0.0521 0.12277,0.10417 0.18415,0.15625 0.0614,0.0521 0.12277,0.10417 0.18415,0.15625 0.0614,0.0521 0.12277,0.10417 0.18415,0.15625 0.0614,0.0521 0.12278,0.10417 0.18416,0.15625 0.0614,0.0521 0.12277,0.10417 0.18415,0.15625 0.0614,0.0521 0.17905,0.0759 0.18415,0.15625 0.006,0.10184 -0.13765,0.15067 -0.20648,0.22601 -0.0688,0.0753 -0.13765,0.15066 -0.20647,0.226 -0.0688,0.0753 -0.13765,0.15067 -0.20647,0.22601 -0.0688,0.0753 -0.13765,0.15067 -0.20647,0.226 -0.0688,0.0753 -0.13765,0.15067 -0.20648,0.22601 -0.0688,0.0753 -0.13765,0.15067 -0.20647,0.226 -0.0688,0.0753 -0.13765,0.15067 -0.20648,0.22601 -0.0688,0.0753 -0.13765,0.15066 -0.20647,0.226 -0.0688,0.0753 -0.13765,0.15067 -0.20647,0.226 -0.0688,0.0753 -0.13765,0.15067 -0.20647,0.226 -0.0688,0.0753 -0.13765,0.15067 -0.20648,0.22601 -0.0688,0.0753 -0.13765,0.15066 -0.20647,0.226 -0.0688,0.0753 -0.13765,0.15067 -0.20647,0.22601 -0.0688,0.0753 -0.13765,0.15067 -0.20647,0.226 -0.0688,0.0753 -0.13765,0.15067 -0.20648,0.22601 -0.0688,0.0753 -0.10507,0.21455 -0.20647,0.226 -0.10229,0.0116 -0.16927,-0.11719 -0.25391,-0.17578 -0.0846,-0.0586 -0.16927,-0.11719 -0.2539,-0.17578 -0.0846,-0.0586 -0.16927,-0.11719 -0.25391,-0.17578 -0.0846,-0.0586 -0.16927,-0.1172 -0.25391,-0.17579 -0.0846,-0.0586 -0.16927,-0.11719 -0.25391,-0.17578 -0.0846,-0.0586 -0.16927,-0.11719 -0.2539,-0.17578 -0.0846,-0.0586 -0.16927,-0.11719 -0.25391,-0.17578 -0.0846,-0.0586 -0.16927,-0.11719 -0.2539,-0.17578 -0.0846,-0.0586 -0.16927,-0.11719 -0.25391,-0.17578 -0.0846,-0.0586 -0.16927,-0.11719 -0.2539,-0.17578 -0.0846,-0.0586 -0.16927,-0.11719 -0.25391,-0.17578 -0.0846,-0.0586 -0.16927,-0.1172 -0.25391,-0.17579 -0.0846,-0.0586 -0.16927,-0.11719 -0.25391,-0.17578 -0.0846,-0.0586 -0.16927,-0.11719 -0.2539,-0.17578 -0.0846,-0.0586 -0.16927,-0.11719 -0.25391,-0.17578 -0.0846,-0.0586 -0.31006,-0.0895 -0.2539,-0.17578 0.0535,-0.0822 0.16741,0.10231 0.25111,0.15346 0.0837,0.0512 0.16741,0.10231 0.25112,0.15346 0.0837,0.0512 0.16741,0.10231 0.25111,0.15346 0.0837,0.0512 0.16741,0.10231 0.25112,0.15346 0.0837,0.0512 0.16741,0.10231 0.25111,0.15346 0.0837,0.0512 0.16741,0.10231 0.25112,0.15346 0.0837,0.0512 0.16741,0.10231 0.25111,0.15346 0.0837,0.0511 0.16741,0.10231 0.25112,0.15346 0.0837,0.0511 0.16741,0.10231 0.25112,0.15346 0.0837,0.0512 0.16741,0.10231 0.25112,0.15346 0.0837,0.0512 0.16741,0.10231 0.25112,0.15346 0.0837,0.0512 0.16741,0.10231 0.25111,0.15346 0.0837,0.0512 0.16741,0.10231 0.25112,0.15346 0.0837,0.0512 0.16741,0.10231 0.25111,0.15346 0.0837,0.0512 0.16741,0.10231 0.25112,0.15346 0.0837,0.0512 0.15383,0.16607 0.25111,0.15346 0.0933,-0.0121 0.13021,-0.13579 0.19531,-0.20369 0.0651,-0.0679 0.13021,-0.13579 0.19531,-0.20368 0.0651,-0.0679 0.13021,-0.13579 0.19532,-0.20368 0.0651,-0.0679 0.13021,-0.13579 0.19531,-0.20368 0.0651,-0.0679 0.13021,-0.13579 0.19531,-0.20369 0.0651,-0.0679 0.13021,-0.13579 0.19531,-0.20368 0.0651,-0.0679 0.13021,-0.13579 0.19532,-0.20368 0.0651,-0.0679 0.13021,-0.13579 0.19531,-0.20368 0.0651,-0.0679 0.13021,-0.13579 0.19531,-0.20369 0.0651,-0.0679 0.13021,-0.13579 0.19531,-0.20368 0.0651,-0.0679 0.13021,-0.13579 0.19532,-0.20369 0.0651,-0.0679 0.13021,-0.13578 0.19531,-0.20368 0.0651,-0.0679 0.13021,-0.13579 0.19531,-0.20368 0.0651,-0.0679 0.13021,-0.13579 0.19531,-0.20368 0.0651,-0.0679 0.13021,-0.13579 0.19532,-0.20369 0.0651,-0.0679 0.19546,-0.10961 0.19531,-0.20368 -1.1e-4,-0.0737 -0.10231,-0.10603 -0.15346,-0.15904 -0.0512,-0.053 -0.10231,-0.10603 -0.15346,-0.15904 -0.0512,-0.053 -0.10231,-0.10603 -0.15346,-0.15904 -0.0512,-0.053 -0.10231,-0.10603 -0.15346,-0.15904 -0.0512,-0.053 -0.10231,-0.10603 -0.15346,-0.15904 -0.0512,-0.053 -0.10231,-0.10603 -0.15346,-0.15904 -0.0512,-0.053 -0.1023,-0.10603 -0.15345,-0.15904 -0.0512,-0.053 -0.10231,-0.10603 -0.15346,-0.15904 -0.0512,-0.053 -0.10231,-0.10603 -0.15346,-0.15904 -0.0512,-0.053 -0.10231,-0.10603 -0.15346,-0.15904 -0.0512,-0.053 -0.10231,-0.10603 -0.15346,-0.15904 -0.0512,-0.053 -0.10231,-0.10603 -0.15346,-0.15904 -0.0512,-0.053 -0.10231,-0.10603 -0.15346,-0.15904 -0.0512,-0.053 -0.10231,-0.10603 -0.15346,-0.15904 -0.0512,-0.053 -0.10231,-0.10603 -0.15346,-0.15904 -0.0512,-0.053 -0.15212,-0.0854 -0.15347,-0.15904 z"
       id="path40"
       inkscape:connector-curvature="0"
       sodipodi:nodetypes="sssssssssssssssssssssssssssssssssssssssssssssssssssssssssssssssssssssssssssssssssssssssssssssssssssssssssssssssssssssssssssssssssssssssssssssssssssssssssssssssssssssssssssssssssssssssssssssssss" />
  </g>
</svg>
