<?xml version="1.0" encoding="UTF-8" standalone="no"?>
<!-- Created with Inkscape (http://www.inkscape.org/) -->

<svg
   xmlns:dc="http://purl.org/dc/elements/1.1/"
   xmlns:cc="http://creativecommons.org/ns#"
   xmlns:rdf="http://www.w3.org/1999/02/22-rdf-syntax-ns#"
   xmlns:svg="http://www.w3.org/2000/svg"
   xmlns="http://www.w3.org/2000/svg"
   xmlns:sodipodi="http://sodipodi.sourceforge.net/DTD/sodipodi-0.dtd"
   xmlns:inkscape="http://www.inkscape.org/namespaces/inkscape"
   width="744.09448819"
   height="1052.3622047"
   id="svg2"
   version="1.1"
   inkscape:version="0.92.3 (3ce5693, 2018-03-11)"
   sodipodi:docname="4.svg">
  <defs
     id="defs4">
    <inkscape:perspective
       sodipodi:type="inkscape:persp3d"
       inkscape:vp_x="0 : 526.18109 : 1"
       inkscape:vp_y="0 : 1000 : 0"
       inkscape:vp_z="744.09448 : 526.18109 : 1"
       inkscape:persp3d-origin="372.04724 : 350.78739 : 1"
       id="perspective3052" />
    <inkscape:path-effect
       effect="spiro"
       id="path-effect3864"
       is_visible="true" />
    <inkscape:path-effect
       effect="spiro"
       id="path-effect3860"
       is_visible="true" />
    <inkscape:path-effect
       effect="spiro"
       id="path-effect3854"
       is_visible="true" />
  </defs>
  <sodipodi:namedview
     id="base"
     pagecolor="#ffffff"
     bordercolor="#666666"
     borderopacity="1.0"
     inkscape:pageopacity="0.0"
     inkscape:pageshadow="2"
     inkscape:zoom="15.839192"
     inkscape:cx="527.71808"
     inkscape:cy="658.28091"
     inkscape:document-units="px"
     inkscape:current-layer="layer1"
     showgrid="false"
     inkscape:window-width="1366"
     inkscape:window-height="713"
     inkscape:window-x="0"
     inkscape:window-y="27"
     inkscape:window-maximized="1" />
  <metadata
     id="metadata7">
    <rdf:RDF>
      <cc:Work
         rdf:about="">
        <dc:format>image/svg+xml</dc:format>
        <dc:type
           rdf:resource="http://purl.org/dc/dcmitype/StillImage" />
        <dc:title></dc:title>
      </cc:Work>
    </rdf:RDF>
  </metadata>
  <g
     inkscape:label="Layer 1"
     inkscape:groupmode="layer"
     id="layer1">
    <path
       style="fill:none;stroke:#000000;stroke-width:1px;stroke-linecap:butt;stroke-linejoin:miter;stroke-opacity:1"
       d="m 524.96365,398.47781 c 0.0808,-0.0513 0.14058,-0.12066 0.18725,-0.20134 0.0467,-0.0807 0.0802,-0.17268 0.10853,-0.26919 0.0283,-0.0965 0.0514,-0.19755 0.0771,-0.29633 0.0257,-0.0988 0.054,-0.19528 0.0928,-0.28275 0.0388,-0.0875 0.0776,-0.17494 0.1164,-0.2624 0.0388,-0.0875 0.0776,-0.17494 0.11641,-0.26241 0.0388,-0.0875 0.0776,-0.17493 0.1164,-0.2624 0.0388,-0.0875 0.0776,-0.17493 0.1164,-0.2624 0.0388,-0.0875 0.0776,-0.17494 0.11641,-0.26241 0.0388,-0.0875 0.0776,-0.17493 0.1164,-0.2624 0.0388,-0.0875 0.0776,-0.17493 0.11641,-0.2624 0.0388,-0.0875 0.0776,-0.17494 0.1164,-0.2624 0.0388,-0.0875 0.0776,-0.17494 0.11641,-0.26241 0.0388,-0.0875 0.0776,-0.17493 0.1164,-0.2624 0.0388,-0.0875 0.0776,-0.17493 0.11641,-0.2624 0.0388,-0.0875 0.0776,-0.17494 0.1164,-0.26241 0.0388,-0.0875 0.0776,-0.17493 0.1164,-0.2624 0.0388,-0.0875 0.0776,-0.17493 0.11641,-0.2624 0.0388,-0.0875 0.0776,-0.17494 0.1164,-0.2624 0.0388,-0.0875 0.0776,-0.17494 0.11641,-0.26241 0.0388,-0.0875 0.0776,-0.17493 0.1164,-0.2624 0.0388,-0.0875 0.0776,-0.17493 0.11641,-0.2624 0.0388,-0.0875 0.0776,-0.17494 0.1164,-0.2624 0.0388,-0.0875 0.0776,-0.17494 0.1164,-0.26241 0.0388,-0.0875 0.0776,-0.17493 0.11641,-0.2624 0.0388,-0.0875 0.0776,-0.17494 0.1164,-0.2624 0.0388,-0.0875 0.0776,-0.17494 0.11641,-0.26241 0.0388,-0.0875 0.0776,-0.17493 0.1164,-0.2624 0.0388,-0.0875 0.0653,-0.20626 0.0888,-0.33288 0.0235,-0.12662 0.0438,-0.26107 0.0704,-0.37986 0.0265,-0.11879 0.0592,-0.22192 0.1072,-0.2859 0.048,-0.064 0.11136,-0.0888 0.19925,-0.051 0.19768,0.0851 0.25508,0.22691 0.22482,0.40423 -0.0303,0.17732 -0.1482,0.39013 -0.30119,0.61712 -0.153,0.227 -0.34107,0.46819 -0.5116,0.70228 -0.17054,0.23409 -0.32353,0.46109 -0.4064,0.6597 -0.0829,0.19861 -0.16573,0.39722 -0.24859,0.59583 -0.0829,0.19861 -0.16573,0.39722 -0.24859,0.59583 -0.0829,0.19861 -0.16573,0.39722 -0.2486,0.59584 -0.0829,0.19861 -0.16572,0.39722 -0.24859,0.59583 -0.0829,0.19861 -0.16573,0.39722 -0.24859,0.59583 -0.0829,0.19861 -0.16573,0.39722 -0.24859,0.59583 -0.0829,0.19861 -0.16573,0.39722 -0.24859,0.59583 -0.0829,0.19861 -0.16573,0.39723 -0.2486,0.59584 -0.0829,0.19861 -0.16572,0.39722 -0.24859,0.59583 -0.0829,0.19861 -0.16573,0.39722 -0.24859,0.59583 -0.0829,0.19861 -0.16573,0.39722 -0.24859,0.59583 -0.0829,0.19861 -0.16573,0.39722 -0.2486,0.59583 -0.0829,0.19862 -0.16572,0.39723 -0.24859,0.59584 -0.0829,0.19861 -0.16573,0.39722 -0.24859,0.59583 -0.0829,0.19861 -0.16573,0.39722 -0.24859,0.59583 -0.0829,0.19861 -0.16573,0.39722 -0.24859,0.59583 -0.0829,0.19861 -0.16573,0.39723 -0.2486,0.59584 -0.0829,0.19861 -0.16572,0.39722 -0.24859,0.59583 -0.0829,0.19861 -0.16573,0.39722 -0.24859,0.59583 -0.0829,0.19861 -0.16573,0.39722 -0.24859,0.59583 -0.0829,0.19861 -0.16573,0.39722 -0.24859,0.59583 -0.0829,0.19862 -0.16573,0.39723 -0.2486,0.59584 -0.0829,0.19861 -0.16572,0.39722 -0.24859,0.59583 -0.0829,0.19861 -0.16573,0.39722 -0.24859,0.59583 -0.0829,0.19861 -0.13658,0.46707 -0.183,0.75298 -0.0464,0.28592 -0.0856,0.58929 -0.13927,0.85775 -0.0537,0.26845 -0.122,0.50198 -0.22673,0.64821 -0.10473,0.14623 -0.2459,0.20515 -0.44537,0.12439 -0.10675,-0.0432 -0.13908,-0.11843 -0.12489,-0.21363 0.0142,-0.0952 0.0749,-0.21039 0.15417,-0.33359 0.0793,-0.12319 0.17721,-0.25438 0.26581,-0.38157 0.0886,-0.12719 0.1679,-0.25038 0.20999,-0.35758 0.0421,-0.10719 0.0842,-0.21439 0.12627,-0.32159 0.0421,-0.1072 0.0842,-0.21439 0.12626,-0.32159 0.0421,-0.1072 0.0842,-0.21439 0.12627,-0.32159 0.0421,-0.1072 0.0842,-0.2144 0.12627,-0.32159 0.0421,-0.1072 0.0842,-0.2144 0.12627,-0.32159 0.0421,-0.1072 0.0842,-0.2144 0.12627,-0.3216 0.0421,-0.10719 0.0842,-0.21439 0.12627,-0.32159 0.0421,-0.10719 0.0842,-0.21439 0.12627,-0.32159 0.0421,-0.1072 0.0842,-0.21439 0.12627,-0.32159 0.0421,-0.1072 0.0842,-0.21439 0.12627,-0.32159 0.0421,-0.1072 0.0842,-0.2144 0.12627,-0.32159 0.0421,-0.1072 0.0842,-0.2144 0.12626,-0.3216 0.0421,-0.10719 0.0842,-0.21439 0.12627,-0.32159 0.0421,-0.10719 0.0842,-0.21439 0.12627,-0.32159 0.0421,-0.1072 0.0842,-0.21439 0.12627,-0.32159 0.0421,-0.1072 0.0842,-0.21439 0.12627,-0.32159 0.0421,-0.1072 0.0842,-0.2144 0.12627,-0.32159 0.0421,-0.1072 0.0842,-0.2144 0.12627,-0.32159 0.0421,-0.1072 0.0842,-0.2144 0.12627,-0.3216 0.0421,-0.10719 0.0842,-0.21439 0.12627,-0.32159 0.0421,-0.10719 0.0842,-0.21439 0.12627,-0.32159 0.0421,-0.1072 0.0842,-0.21439 0.12627,-0.32159 0.0421,-0.1072 0.0842,-0.2144 0.12626,-0.32159 0.0421,-0.1072 0.0842,-0.2144 0.12627,-0.32159 0.0421,-0.1072 0.11028,-0.21698 0.18499,-0.32741 0.0747,-0.11042 0.15594,-0.22149 0.22412,-0.33127 0.0682,-0.10978 0.12332,-0.21827 0.14584,-0.32353 0.0225,-0.10526 0.0124,-0.20729 -0.0499,-0.30416 -0.0331,-0.0515 -0.0803,-0.0789 -0.13618,-0.0913 -0.0559,-0.0123 -0.12057,-0.01 -0.18874,-8.2e-4 -0.0682,0.009 -0.13984,0.0236 -0.20977,0.0353 -0.0699,0.0118 -0.13809,0.0206 -0.19925,0.0173 -0.0612,-0.003 -0.12232,-0.007 -0.18348,-0.01 -0.0612,-0.003 -0.12233,-0.007 -0.18349,-0.01 -0.0612,-0.003 -0.12232,-0.007 -0.18348,-0.01 -0.0612,-0.003 -0.12233,-0.007 -0.18349,-0.01 -0.0612,-0.003 -0.12232,-0.007 -0.18348,-0.01 -0.0612,-0.003 -0.12233,-0.007 -0.18349,-0.01 -0.0612,-0.003 -0.12232,-0.007 -0.18348,-0.01 -0.0612,-0.003 -0.12232,-0.007 -0.18349,-0.01 -0.0612,-0.003 -0.12232,-0.007 -0.18348,-0.01 -0.0612,-0.003 -0.12232,-0.007 -0.18349,-0.01 -0.0612,-0.003 -0.12232,-0.007 -0.18348,-0.01 -0.0612,-0.003 -0.12232,-0.007 -0.18349,-0.01 -0.0612,-0.003 -0.12232,-0.007 -0.18348,-0.01 -0.0612,-0.003 -0.12232,-0.007 -0.18348,-0.01 -0.0612,-0.003 -0.12233,-0.007 -0.18349,-0.01 -0.0612,-0.003 -0.12232,-0.007 -0.18348,-0.01 -0.0612,-0.003 -0.12233,-0.007 -0.18349,-0.01 -0.0612,-0.003 -0.12232,-0.007 -0.18348,-0.01 -0.0612,-0.003 -0.12233,-0.007 -0.18349,-0.01 -0.0612,-0.003 -0.12232,-0.007 -0.18348,-0.01 -0.0612,-0.003 -0.12233,-0.007 -0.18349,-0.01 -0.0612,-0.003 -0.12232,-0.007 -0.18348,-0.01 -0.0612,-0.003 -0.12232,-0.007 -0.18349,-0.01 -0.0612,-0.003 -0.12232,-0.007 -0.18348,-0.01 -0.0612,-0.003 -0.12946,0.006 -0.19955,0.0175 -0.0701,0.0119 -0.14195,0.0268 -0.21025,0.0357 -0.0683,0.009 -0.13303,0.0116 -0.18884,-7.6e-4 -0.0558,-0.0124 -0.10269,-0.04 -0.1353,-0.0918 -0.052,-0.0826 -0.0592,-0.16896 -0.0385,-0.25765 0.0207,-0.0887 0.0694,-0.17973 0.12923,-0.2717 0.0598,-0.092 0.13087,-0.18488 0.19631,-0.27732 0.0654,-0.0924 0.12528,-0.18441 0.16276,-0.27451 0.0375,-0.0901 0.075,-0.1802 0.11246,-0.27029 0.0375,-0.0901 0.075,-0.1802 0.11246,-0.2703 0.0375,-0.0901 0.075,-0.18019 0.11246,-0.27029 0.0375,-0.0901 0.075,-0.1802 0.11246,-0.2703 0.0375,-0.0901 0.075,-0.18019 0.11245,-0.27029 0.0375,-0.0901 0.075,-0.1802 0.11246,-0.2703 0.0375,-0.0901 0.075,-0.18019 0.11246,-0.27029 0.0375,-0.0901 0.075,-0.1802 0.11246,-0.2703 0.0375,-0.0901 0.075,-0.18019 0.11246,-0.27029 0.0375,-0.0901 0.075,-0.1802 0.11245,-0.2703 0.0375,-0.0901 0.075,-0.18019 0.11246,-0.27029 0.0375,-0.0901 0.075,-0.1802 0.11246,-0.2703 0.0375,-0.0901 0.075,-0.18019 0.11246,-0.27029 0.0375,-0.0901 0.075,-0.1802 0.11246,-0.27029 0.0375,-0.0901 0.075,-0.1802 0.11245,-0.2703 0.0375,-0.0901 0.075,-0.1802 0.11246,-0.27029 0.0375,-0.0901 0.075,-0.1802 0.11246,-0.2703 0.0375,-0.0901 0.075,-0.18019 0.11246,-0.27029 0.0375,-0.0901 0.075,-0.1802 0.11246,-0.2703 0.0375,-0.0901 0.075,-0.18019 0.11245,-0.27029 0.0375,-0.0901 0.075,-0.1802 0.11246,-0.2703 0.0375,-0.0901 0.075,-0.18019 0.11246,-0.27029 0.0375,-0.0901 0.075,-0.1802 0.11246,-0.2703 0.0375,-0.0901 0.075,-0.18019 0.11246,-0.27029 0.0375,-0.0901 0.0617,-0.21182 0.0826,-0.34145 0.0209,-0.12963 0.0385,-0.26716 0.0627,-0.38888 0.0242,-0.12173 0.0551,-0.22764 0.10251,-0.29402 0.0474,-0.0664 0.11145,-0.0932 0.20199,-0.0568 0.0877,0.0353 0.11446,0.0969 0.10312,0.17516 -0.0113,0.0782 -0.0608,0.17295 -0.12545,0.27429 -0.0647,0.10134 -0.14459,0.20929 -0.21688,0.31394 -0.0723,0.10465 -0.13697,0.20599 -0.17116,0.29411 -0.0342,0.0881 -0.0684,0.17625 -0.1026,0.26438 -0.0342,0.0881 -0.0684,0.17625 -0.10259,0.26437 -0.0342,0.0881 -0.0684,0.17625 -0.10259,0.26438 -0.0342,0.0881 -0.0684,0.17625 -0.1026,0.26437 -0.0342,0.0881 -0.0684,0.17626 -0.10259,0.26438 -0.0342,0.0881 -0.0684,0.17625 -0.10259,0.26438 -0.0342,0.0881 -0.0684,0.17625 -0.1026,0.26437 -0.0342,0.0881 -0.0684,0.17625 -0.10259,0.26438 -0.0342,0.0881 -0.0684,0.17625 -0.10259,0.26437 -0.0342,0.0881 -0.0684,0.17625 -0.1026,0.26438 -0.0342,0.0881 -0.0684,0.17625 -0.10259,0.26437 -0.0342,0.0881 -0.0684,0.17625 -0.10259,0.26438 -0.0342,0.0881 -0.0684,0.17625 -0.1026,0.26438 -0.0342,0.0881 -0.0684,0.17625 -0.10259,0.26437 -0.0342,0.0881 -0.0684,0.17625 -0.1026,0.26438 -0.0342,0.0881 -0.0684,0.17625 -0.10259,0.26437 -0.0342,0.0881 -0.0684,0.17625 -0.10259,0.26438 -0.0342,0.0881 -0.0684,0.17625 -0.1026,0.26437 -0.0342,0.0881 -0.0684,0.17625 -0.10259,0.26438 -0.0342,0.0881 -0.0684,0.17625 -0.10259,0.26437 -0.0342,0.0881 -0.0684,0.17626 -0.1026,0.26438 -0.0342,0.0881 -0.0684,0.17625 -0.10259,0.26438 -0.0342,0.0881 -0.0684,0.17625 -0.10259,0.26437 -0.0342,0.0881 -0.0684,0.17625 -0.1026,0.26438 -0.0342,0.0881 -0.0901,0.17863 -0.15138,0.26974 -0.0613,0.0911 -0.12803,0.18281 -0.18391,0.27332 -0.0559,0.0905 -0.10092,0.17983 -0.11885,0.26617 -0.0179,0.0863 -0.009,0.16969 0.0438,0.24827 0.0333,0.0498 0.0798,0.0753 0.13469,0.0857 0.0549,0.0104 0.11803,0.006 0.18452,-0.005 0.0665,-0.0108 0.13631,-0.0276 0.20446,-0.0415 0.0682,-0.0138 0.13464,-0.0246 0.19448,-0.0233 0.0598,0.001 0.1197,0.003 0.17954,0.004 0.0598,0.001 0.1197,0.003 0.17954,0.004 0.0598,0.001 0.1197,0.003 0.17954,0.004 0.0598,0.001 0.11969,0.003 0.17954,0.004 0.0598,0.001 0.11969,0.003 0.17954,0.004 0.0598,0.001 0.11969,0.003 0.17954,0.004 0.0598,0.001 0.11969,0.003 0.17954,0.004 0.0598,0.001 0.11969,0.003 0.17954,0.004 0.0598,0.001 0.11969,0.003 0.17953,0.004 0.0598,0.001 0.1197,0.003 0.17954,0.004 0.0598,0.001 0.1197,0.003 0.17954,0.004 0.0599,0.001 0.11969,0.003 0.17954,0.004 0.0598,0.001 0.11969,0.003 0.17954,0.004 0.0598,0.001 0.11969,0.003 0.17954,0.004 0.0598,0.001 0.11969,0.003 0.17954,0.004 0.0598,0.001 0.11969,0.003 0.17954,0.004 0.0598,0.001 0.11969,0.003 0.17953,0.004 0.0599,0.001 0.1197,0.003 0.17954,0.004 0.0598,0.001 0.1197,0.003 0.17954,0.004 0.0598,0.001 0.11969,0.003 0.17954,0.004 0.0598,0.001 0.11969,0.003 0.17954,0.004 0.0599,0.001 0.11969,0.003 0.17954,0.004 0.0598,0.001 0.11969,0.003 0.17954,0.004 0.0598,0.001 0.11969,0.003 0.17954,0.004 0.0598,0.001 0.12201,0.011 0.18477,0.0227 0.0628,0.0118 0.12609,0.0256 0.18827,0.0353 0.0622,0.01 0.12318,0.0152 0.18128,0.0102 0.0581,-0.005 0.11329,-0.0203 0.16383,-0.0524 z"
       id="path145"
       inkscape:connector-curvature="0"
       sodipodi:nodetypes="sssssssssssssssssssssssssssssssssssssssssssssssssssssssssssssssssssssssssssssssssssssssssssssssssssssssssssssssssssssssssssssssssssssssssssssssssssssssssssssssssssssssssssssssssssssssssssssssssssssssssssssssssssssssssssssssss" />
  </g>
</svg>
