<?xml version="1.0" encoding="UTF-8" standalone="no"?>
<!-- Created with Inkscape (http://www.inkscape.org/) -->

<svg
   xmlns:dc="http://purl.org/dc/elements/1.1/"
   xmlns:cc="http://creativecommons.org/ns#"
   xmlns:rdf="http://www.w3.org/1999/02/22-rdf-syntax-ns#"
   xmlns:svg="http://www.w3.org/2000/svg"
   xmlns="http://www.w3.org/2000/svg"
   xmlns:sodipodi="http://sodipodi.sourceforge.net/DTD/sodipodi-0.dtd"
   xmlns:inkscape="http://www.inkscape.org/namespaces/inkscape"
   width="744.09448819"
   height="1052.3622047"
   id="svg2"
   version="1.1"
   inkscape:version="0.92.3 (3ce5693, 2018-03-11)"
   sodipodi:docname="5.svg">
  <defs
     id="defs4">
    <inkscape:perspective
       sodipodi:type="inkscape:persp3d"
       inkscape:vp_x="0 : 526.18109 : 1"
       inkscape:vp_y="0 : 1000 : 0"
       inkscape:vp_z="744.09448 : 526.18109 : 1"
       inkscape:persp3d-origin="372.04724 : 350.78739 : 1"
       id="perspective3052" />
    <inkscape:path-effect
       effect="spiro"
       id="path-effect3864"
       is_visible="true" />
    <inkscape:path-effect
       effect="spiro"
       id="path-effect3860"
       is_visible="true" />
    <inkscape:path-effect
       effect="spiro"
       id="path-effect3854"
       is_visible="true" />
  </defs>
  <sodipodi:namedview
     id="base"
     pagecolor="#ffffff"
     bordercolor="#666666"
     borderopacity="1.0"
     inkscape:pageopacity="0.0"
     inkscape:pageshadow="2"
     inkscape:zoom="15.839192"
     inkscape:cx="527.71808"
     inkscape:cy="658.28091"
     inkscape:document-units="px"
     inkscape:current-layer="layer1"
     showgrid="false"
     inkscape:window-width="1366"
     inkscape:window-height="713"
     inkscape:window-x="0"
     inkscape:window-y="27"
     inkscape:window-maximized="1" />
  <metadata
     id="metadata7">
    <rdf:RDF>
      <cc:Work
         rdf:about="">
        <dc:format>image/svg+xml</dc:format>
        <dc:type
           rdf:resource="http://purl.org/dc/dcmitype/StillImage" />
        <dc:title></dc:title>
      </cc:Work>
    </rdf:RDF>
  </metadata>
  <g
     inkscape:label="Layer 1"
     inkscape:groupmode="layer"
     id="layer1">
    <path
       style="fill:none;stroke:#000000;stroke-width:1px;stroke-linecap:butt;stroke-linejoin:miter;stroke-opacity:1"
       d="m 514.375,399.23718 c -0.27185,-0.01 -0.54157,0.0258 -0.81076,0.0724 -0.26918,0.0466 -0.53782,0.10436 -0.80754,0.1397 -0.26972,0.0354 -0.53944,0.0707 -0.80916,0.10603 -0.26971,0.0353 -0.53943,0.0707 -0.80915,0.10603 -0.26972,0.0353 -0.53943,0.0707 -0.80915,0.10603 -0.26972,0.0353 -0.53944,0.0707 -0.80915,0.10602 -0.26972,0.0353 -0.54,0.0668 -0.80999,0.10022 -0.27,0.0334 -0.53972,0.0688 -0.80831,0.11184 -0.22622,0.0363 -0.45129,0.0791 -0.67608,0.12348 -0.22479,0.0444 -0.44929,0.0904 -0.67437,0.13322 -0.22508,0.0428 -0.45015,0.0856 -0.67523,0.12835 -0.22507,0.0428 -0.45014,0.0856 -0.67522,0.12835 -0.22508,0.0428 -0.45015,0.0856 -0.67523,0.12835 -0.22507,0.0428 -0.45014,0.0856 -0.67521,0.12835 -0.22508,0.0428 -0.48085,0.18711 -0.72127,0.28066 -0.24042,0.0936 -0.4655,0.13634 -0.62918,-0.024 -0.23989,-0.23493 -0.18409,-0.56603 -0.0544,-0.92118 0.12972,-0.35514 0.33337,-0.73432 0.38918,-1.06543 0.0558,-0.3311 0.11161,-0.6622 0.16741,-0.9933 0.0558,-0.3311 0.1116,-0.6622 0.16741,-0.9933 0.0558,-0.3311 0.11161,-0.6622 0.16741,-0.9933 0.0558,-0.33111 0.11161,-0.66221 0.16741,-0.99331 l 0.16741,-0.9933 0.16742,-0.99331 c 0.0558,-0.3311 0.11161,-0.6622 0.16741,-0.9933 0.0558,-0.3311 0.1116,-0.6622 0.16741,-0.99331 0.0558,-0.3311 0.11161,-0.6622 0.16741,-0.9933 0.0558,-0.3311 0.1116,-0.6622 0.16741,-0.9933 0.0558,-0.3311 0.11161,-0.6622 0.16741,-0.9933 0.0558,-0.33111 0.1116,-0.66221 0.16741,-0.99331 0.0558,-0.3311 0.0117,-0.71884 0.0176,-1.07826 0.006,-0.35943 0.0617,-0.69053 0.31721,-0.90835 0.35674,-0.30409 0.82549,-0.30782 1.32225,-0.23646 0.49675,0.0714 1.0215,0.21781 1.49025,0.21406 0.46875,-0.004 0.9375,-0.007 1.40625,-0.0112 0.46875,-0.004 0.9375,-0.007 1.40625,-0.0112 0.46875,-0.004 0.9375,-0.007 1.40625,-0.0112 0.46875,-0.004 0.9375,-0.007 1.40625,-0.0111 0.46875,-0.004 0.9375,-0.007 1.40625,-0.0111 0.46875,-0.004 0.9375,-0.007 1.40625,-0.0111 0.46875,-0.004 0.9375,-0.007 1.40625,-0.0111 0.46875,-0.004 0.9375,-0.007 1.40625,-0.0112 0.46875,-0.004 0.9375,-0.007 1.40625,-0.0111 0.46875,-0.004 0.9375,-0.007 1.40625,-0.0111 0.46875,-0.004 0.9375,-0.007 1.40625,-0.0111 0.46875,-0.004 0.9375,-0.007 1.40625,-0.0112 0.46875,-0.004 1.16905,-0.24364 1.75358,-0.36547 0.58453,-0.12183 1.05328,-0.12556 1.05892,0.34317 0.006,0.46133 -0.45576,0.46878 -1.03378,0.36276 -0.57803,-0.10602 -1.27277,-0.32551 -1.73408,-0.31806 -0.46131,0.007 -0.92261,0.0149 -1.38392,0.0223 -0.46131,0.007 -0.92262,0.0149 -1.38393,0.0223 -0.46131,0.007 -0.92262,0.0149 -1.38393,0.0223 -0.46131,0.007 -0.92262,0.0149 -1.38393,0.0223 -0.46131,0.007 -0.92262,0.0149 -1.38393,0.0223 -0.46131,0.007 -0.92262,0.0149 -1.38393,0.0223 -0.46131,0.007 -0.92262,0.0149 -1.38393,0.0223 -0.46131,0.007 -0.92262,0.0149 -1.38392,0.0223 -0.46131,0.007 -0.92262,0.0149 -1.38393,0.0223 -0.46131,0.007 -0.92262,0.0148 -1.38393,0.0223 l -1.38393,0.0224 -1.38393,0.0224 c -0.46131,0.007 -0.97817,-0.13156 -1.46726,-0.19736 -0.48908,-0.0658 -0.95039,-0.0584 -1.3006,0.24196 -0.23492,0.20146 -0.287,0.50652 -0.29338,0.83748 -0.006,0.33096 0.033,0.68782 -0.0191,0.99287 -0.0521,0.30506 -0.10417,0.61012 -0.15625,0.91518 -0.0521,0.30506 -0.10417,0.61012 -0.15625,0.91518 -0.0521,0.30506 -0.10417,0.61012 -0.15625,0.91518 -0.0521,0.30506 -0.10417,0.61012 -0.15625,0.91518 -0.0521,0.30506 -0.10417,0.61012 -0.15625,0.91518 -0.0521,0.30506 -0.10417,0.61012 -0.15625,0.91518 -0.0521,0.30506 -0.10417,0.61012 -0.15625,0.91518 -0.0521,0.30506 -0.10417,0.61012 -0.15625,0.91517 -0.0521,0.30506 -0.10417,0.61012 -0.15625,0.91518 -0.0521,0.30506 -0.10417,0.61012 -0.15625,0.91518 -0.0521,0.30506 -0.10417,0.61012 -0.15625,0.91518 -0.0521,0.30506 -0.10417,0.61012 -0.15625,0.91517 -0.0521,0.30506 -0.23412,0.64799 -0.35117,0.97198 -0.11706,0.32399 -0.16914,0.62906 0.0387,0.85838 0.31806,0.35098 0.79053,0.3175 1.3016,0.1879 0.51108,-0.1296 1.06075,-0.35531 1.53323,-0.38879 0.47247,-0.0335 0.94494,-0.067 1.41741,-0.10044 0.47247,-0.0335 0.94494,-0.067 1.41741,-0.10045 0.47247,-0.0335 0.94494,-0.067 1.41741,-0.10045 0.47247,-0.0335 0.94494,-0.067 1.41741,-0.10045 0.47247,-0.0335 0.94462,-0.095 1.41693,-0.14255 0.47231,-0.0475 0.94477,-0.081 1.41789,-0.0583 0.471,0.0226 0.93603,0.10068 1.39957,0.1927 0.46354,0.092 0.92558,0.19793 1.39061,0.27605 l 1.39509,0.23438 1.39509,0.23437 1.39509,0.23438 1.39509,0.23437 c 0.46503,0.0781 1.01203,0.0138 1.51805,0.0208 0.50602,0.007 0.97105,0.085 1.27212,0.44797 0.24589,0.2964 0.23844,0.68145 0.16765,1.08865 -0.0708,0.40721 -0.2049,0.83658 -0.21235,1.22162 -0.007,0.38505 -0.0149,0.77009 -0.0223,1.15514 -0.007,0.38504 -0.0148,0.77009 -0.0223,1.15513 l -0.0223,1.15513 -0.0224,1.15513 c -0.007,0.38504 -5e-5,0.77095 -6e-5,1.15643 -2e-5,0.38548 -0.007,0.77052 -0.0445,1.15384 -0.0373,0.38536 -0.10426,0.76669 -0.17864,1.147 -0.0744,0.38032 -0.15618,0.75963 -0.22314,1.14095 l -0.2009,1.14398 -0.20089,1.14397 c -0.067,0.38133 -0.13393,0.76265 -0.2009,1.14397 -0.067,0.38133 -0.13393,0.76265 -0.20089,1.14397 -0.067,0.38132 -0.0238,0.82349 -0.0357,1.23523 -0.0119,0.41175 -0.0789,0.79308 -0.36606,1.05272 -0.35383,0.3199 -0.82956,0.35477 -1.33576,0.3184 -0.5062,-0.0364 -1.04287,-0.14401 -1.5186,-0.10914 -0.47573,0.0349 -0.95145,0.0697 -1.42718,0.10463 -0.47572,0.0349 -0.95145,0.0698 -1.42717,0.10464 -0.47572,0.0349 -0.95145,0.0697 -1.42717,0.10463 -0.47573,0.0349 -0.95146,0.0698 -1.42718,0.10463 -0.47572,0.0349 -0.95081,0.0876 -1.42622,0.1314 -0.4754,0.0438 -0.95113,0.0787 -1.42813,0.0779 -0.45567,-7.8e-4 -0.91001,-0.0357 -1.36401,-0.0791 -0.454,-0.0434 -0.90767,-0.0953 -1.362,-0.1302 -0.45433,-0.0349 -0.90866,-0.0697 -1.36299,-0.10463 -0.45434,-0.0349 -0.90868,-0.0697 -1.36301,-0.10463 -0.45433,-0.0349 -0.90867,-0.0697 -1.363,-0.10463 -0.45434,-0.0349 -0.90868,-0.0698 -1.36301,-0.10464 -0.45433,-0.0349 -1.11213,-0.31379 -1.6682,-0.47069 -0.55607,-0.15689 -1.01041,-0.19177 -1.0578,0.26143 -0.0479,0.45768 0.40834,0.51814 0.99054,0.47929 0.58221,-0.0389 1.29044,-0.17703 1.74663,-0.11657 l 1.36858,0.18137 1.36858,0.18136 c 0.45619,0.0605 0.91239,0.12091 1.36858,0.18136 0.4562,0.0605 0.91239,0.12091 1.36859,0.18136 0.45619,0.0605 0.91046,0.15683 1.36569,0.23525 0.45524,0.0784 0.91143,0.13887 1.37147,0.12747 0.45893,-0.0114 0.91047,-0.0942 1.36017,-0.19477 0.4497,-0.10063 0.89755,-0.2191 1.3491,-0.30188 0.45154,-0.0828 0.90308,-0.16555 1.35463,-0.24832 0.45154,-0.0828 0.90308,-0.16555 1.35463,-0.24833 0.45154,-0.0828 0.90309,-0.16555 1.35463,-0.24833 0.45155,-0.0828 0.90309,-0.16555 1.35464,-0.24833 0.45154,-0.0828 0.96156,-0.0498 1.44235,-0.0747 0.48078,-0.0249 0.93232,-0.10766 1.26691,-0.42198 0.26962,-0.25329 0.35891,-0.61229 0.40311,-0.99772 0.0442,-0.38544 0.0433,-0.79729 0.13261,-1.1563 0.0893,-0.359 0.17857,-0.718 0.26786,-1.077 0.0893,-0.359 0.17856,-0.718 0.26785,-1.07701 0.0893,-0.359 0.17857,-0.71801 0.26786,-1.07701 0.0893,-0.359 0.17857,-0.718 0.26786,-1.07701 0.0893,-0.359 0.19896,-0.71414 0.29843,-1.0712 0.0995,-0.35707 0.18876,-0.71607 0.23728,-1.08282 0.0505,-0.38179 0.058,-0.76684 0.0546,-1.15269 -0.003,-0.38586 -0.0175,-0.77254 -0.01,-1.15758 l 0.0224,-1.15513 0.0223,-1.15513 c 0.007,-0.38504 0.0149,-0.77009 0.0223,-1.15513 0.007,-0.38505 0.0149,-0.77009 0.0223,-1.15514 0.007,-0.38505 0.14416,-0.81665 0.21627,-1.22498 0.0721,-0.40832 0.0796,-0.79336 -0.17157,-1.08529 -0.14928,-0.1735 -0.37621,-0.20326 -0.62256,-0.19709 -0.24635,0.006 -0.51212,0.0483 -0.73905,0.0185 -0.22693,-0.0298 -0.45387,-0.0595 -0.6808,-0.0893 -0.22694,-0.0298 -0.45388,-0.0595 -0.68081,-0.0893 -0.22693,-0.0298 -0.45387,-0.0595 -0.6808,-0.0893 -0.22694,-0.0298 -0.45388,-0.0595 -0.68081,-0.0893 -0.22693,-0.0298 -0.45445,-0.0556 -0.68168,-0.0833 -0.22723,-0.0278 -0.45417,-0.0575 -0.67992,-0.0952 -0.23964,-0.04 -0.47773,-0.0884 -0.71544,-0.13882 -0.23771,-0.0505 -0.47504,-0.10299 -0.71313,-0.15136 -0.23809,-0.0484 -0.47619,-0.0967 -0.71428,-0.14508 -0.2381,-0.0484 -0.4762,-0.0967 -0.71429,-0.14509 -0.23809,-0.0484 -0.47619,-0.0967 -0.71428,-0.14512 -0.2381,-0.0484 -0.4762,-0.0968 -0.71429,-0.14514 -0.23809,-0.0484 -0.47383,-0.11668 -0.71074,-0.17502 -0.23692,-0.0583 -0.71783,-0.10671 -0.71783,-0.11523 l 0,1.5e-4 z"
       id="path124"
       inkscape:connector-curvature="0"
       sodipodi:nodetypes="csssssssssssssssssssssscssssssssssssssssssssssssssssssssssssscssssssssssssssssssssssssssssscscssssssscssssscssssssssssssssssssssssscssssssssssssssssssssssscssssssssssssssssssssscc" />
  </g>
</svg>
