<?xml version="1.0" encoding="UTF-8" standalone="no"?>
<!-- Created with Inkscape (http://www.inkscape.org/) -->

<svg
   xmlns:dc="http://purl.org/dc/elements/1.1/"
   xmlns:cc="http://creativecommons.org/ns#"
   xmlns:rdf="http://www.w3.org/1999/02/22-rdf-syntax-ns#"
   xmlns:svg="http://www.w3.org/2000/svg"
   xmlns="http://www.w3.org/2000/svg"
   xmlns:sodipodi="http://sodipodi.sourceforge.net/DTD/sodipodi-0.dtd"
   xmlns:inkscape="http://www.inkscape.org/namespaces/inkscape"
   width="744.09448819"
   height="1052.3622047"
   id="svg2"
   version="1.1"
   inkscape:version="0.92.3 (3ce5693, 2018-03-11)"
   sodipodi:docname="6.svg">
  <defs
     id="defs4">
    <inkscape:perspective
       sodipodi:type="inkscape:persp3d"
       inkscape:vp_x="0 : 526.18109 : 1"
       inkscape:vp_y="0 : 1000 : 0"
       inkscape:vp_z="744.09448 : 526.18109 : 1"
       inkscape:persp3d-origin="372.04724 : 350.78739 : 1"
       id="perspective3052" />
    <inkscape:path-effect
       effect="spiro"
       id="path-effect3864"
       is_visible="true" />
    <inkscape:path-effect
       effect="spiro"
       id="path-effect3860"
       is_visible="true" />
    <inkscape:path-effect
       effect="spiro"
       id="path-effect3854"
       is_visible="true" />
  </defs>
  <sodipodi:namedview
     id="base"
     pagecolor="#ffffff"
     bordercolor="#666666"
     borderopacity="1.0"
     inkscape:pageopacity="0.0"
     inkscape:pageshadow="2"
     inkscape:zoom="7.919596"
     inkscape:cx="550.7983"
     inkscape:cy="643.2748"
     inkscape:document-units="px"
     inkscape:current-layer="layer1"
     showgrid="false"
     inkscape:window-width="1366"
     inkscape:window-height="713"
     inkscape:window-x="0"
     inkscape:window-y="27"
     inkscape:window-maximized="1" />
  <metadata
     id="metadata7">
    <rdf:RDF>
      <cc:Work
         rdf:about="">
        <dc:format>image/svg+xml</dc:format>
        <dc:type
           rdf:resource="http://purl.org/dc/dcmitype/StillImage" />
        <dc:title />
      </cc:Work>
    </rdf:RDF>
  </metadata>
  <g
     inkscape:label="Layer 1"
     inkscape:groupmode="layer"
     id="layer1">
    <path
       style="fill:none;stroke:#000000;stroke-width:1px;stroke-linecap:butt;stroke-linejoin:miter;stroke-opacity:1"
       d="m 535.75965,403.97052 c 0.0671,4.5e-4 0.13416,6.8e-4 0.20124,7.6e-4 0.0671,9e-5 0.13416,3e-5 0.20124,-8e-5 0.0671,-1.1e-4 0.13416,-2.8e-4 0.20124,-4.3e-4 0.0671,-1.4e-4 0.13416,-2.5e-4 0.20124,-2.5e-4 0.0671,0 0.13417,0 0.20125,0 0.0671,0 0.13416,0 0.20124,0 0.0671,0 0.13416,0 0.20124,0 0.0671,0 0.13416,0 0.20124,0 0.0671,0 0.13416,0 0.20124,0 0.0671,0 0.13416,0 0.20124,0 0.0671,0 0.13416,0 0.20124,0 0.0671,0 0.13416,0 0.20124,0 0.0671,0 0.13417,0 0.20125,0 0.0671,0 0.13416,0 0.20124,0 0.0671,0 0.13416,0 0.20124,0 0.0671,0 0.13416,0 0.20124,0 0.0671,0 0.13416,0 0.20124,0 0.0671,0 0.13416,0 0.20124,0 0.0671,0 0.13416,0 0.20124,0 0.0671,0 0.13416,0 0.20124,0 0.0671,0 0.13417,0 0.20125,0 0.0671,0 0.13416,0 0.20124,0 0.0671,0 0.13416,0 0.20124,0 0.0671,0 0.13416,0 0.20124,0 0.0671,0 0.13416,0 0.20124,0 0.0671,0 0.13416,0 0.20124,0 0.0671,0 0.13416,0 0.20124,0 0.0671,0 0.13416,0 0.20124,0 0.0671,0 0.1393,-0.0121 0.21279,-0.0272 0.0735,-0.0151 0.14827,-0.0332 0.22049,-0.0453 0.0722,-0.0121 0.14185,-0.0181 0.20509,-0.009 0.0632,0.009 0.12004,0.0332 0.1666,0.0815 0.0996,0.10329 0.14672,0.22662 0.16111,0.36247 0.0144,0.13585 -0.004,0.28423 -0.0354,0.43762 -0.0315,0.15339 -0.076,0.31178 -0.11406,0.46768 -0.038,0.15589 -0.0695,0.30928 -0.0747,0.45265 -0.005,0.14336 -0.0105,0.28673 -0.0158,0.4301 -0.005,0.14337 -0.0105,0.28674 -0.0158,0.4301 -0.005,0.14337 -0.0105,0.28674 -0.0158,0.43011 -0.005,0.14337 -0.0105,0.28673 -0.0158,0.4301 -0.005,0.14337 -0.0105,0.28674 -0.0158,0.43011 -0.005,0.14336 -0.0105,0.28673 -0.0158,0.4301 -0.005,0.14337 -0.0105,0.28674 -0.0158,0.4301 -0.005,0.14337 -0.0105,0.28674 -0.0158,0.43011 -0.005,0.14337 -0.0105,0.28673 -0.0158,0.4301 -0.005,0.14337 -0.0105,0.28674 -0.0158,0.43011 -0.005,0.14336 -0.0105,0.28673 -0.0158,0.4301 -0.005,0.14337 -0.0105,0.28674 -0.0158,0.43011 -0.005,0.14336 -0.0105,0.28673 -0.0158,0.4301 -0.005,0.14337 -0.0105,0.28674 -0.0158,0.4301 -0.005,0.14337 -0.0105,0.28674 -0.0158,0.43011 -0.005,0.14337 -0.0105,0.28673 -0.0158,0.4301 -0.005,0.14337 -0.0105,0.28674 -0.0158,0.43011 -0.005,0.14336 -0.0105,0.28673 -0.0158,0.4301 -0.005,0.14337 -0.0105,0.28674 -0.0158,0.4301 -0.005,0.14337 -0.0105,0.28674 -0.0158,0.43011 -0.005,0.14337 -0.0105,0.28673 -0.0158,0.4301 -0.005,0.14337 -0.0105,0.28674 -0.0158,0.43011 -0.005,0.14336 -0.0105,0.28673 -0.0158,0.4301 -0.005,0.14337 -0.0105,0.28674 -0.0158,0.4301 -0.005,0.14337 0.014,0.29769 0.0394,0.45475 0.0254,0.15705 0.0569,0.31684 0.0761,0.47116 0.0192,0.15432 0.0262,0.30316 0.003,0.43832 -0.0236,0.13516 -0.0779,0.25662 -0.1812,0.35619 -0.11742,0.11319 -0.25768,0.16979 -0.41222,0.19101 -0.15453,0.0212 -0.32334,0.007 -0.49785,-0.0212 -0.17452,-0.0283 -0.35475,-0.0707 -0.53212,-0.10612 -0.17737,-0.0354 -0.35188,-0.0637 -0.51498,-0.0637 -0.1631,0 -0.3262,0 -0.48929,0 -0.1631,0 -0.3262,0 -0.4893,0 -0.16309,0 -0.32619,0 -0.48929,0 -0.1631,0 -0.32619,0 -0.48929,0 -0.1631,0 -0.3262,0 -0.4893,0 -0.16309,0 -0.32619,0 -0.48929,0 -0.1631,0 -0.32619,0 -0.48929,0 -0.1631,0 -0.3262,0 -0.48929,0 -0.1631,0 -0.3262,0 -0.4893,0 -0.16309,0 -0.32619,0 -0.48929,0 -0.1631,0 -0.32619,0 -0.48929,0 -0.1631,0 -0.3262,0 -0.4893,0 -0.16309,0 -0.32619,0 -0.48929,0 -0.1631,0 -0.32619,0 -0.48929,0 -0.1631,0 -0.3262,0 -0.48929,0 -0.1631,0 -0.3262,0 -0.4893,0 -0.16309,0 -0.32619,0 -0.48929,0 -0.1631,0 -0.32619,0 -0.48929,0 -0.1631,0 -0.3262,0 -0.48929,0 -0.1631,0 -0.3262,0 -0.4893,0 -0.1631,0 -0.32619,0 -0.48929,0 -0.1631,0 -0.3262,0 -0.48929,0 -0.1631,0 -0.3262,0 -0.4893,0 -0.16309,0 -0.32619,0 -0.48929,0 -0.1631,0 -0.33795,0.0286 -0.51575,0.0644 -0.17779,0.0358 -0.35853,0.0788 -0.53338,0.10742 -0.17486,0.0287 -0.34383,0.043 -0.49811,0.0215 -0.15428,-0.0215 -0.29386,-0.0788 -0.40993,-0.19336 -0.0705,-0.0696 -0.10636,-0.15386 -0.12063,-0.24736 -0.0143,-0.0935 -0.007,-0.19619 0.009,-0.30257 0.016,-0.10638 0.0407,-0.21644 0.061,-0.32466 0.0204,-0.10822 0.0364,-0.2146 0.0352,-0.31362 -0.003,-0.26105 -0.006,-0.52209 -0.009,-0.78314 -0.003,-0.26104 -0.006,-0.52209 -0.009,-0.78313 -0.003,-0.26105 -0.006,-0.5221 -0.009,-0.78314 -0.003,-0.26105 -0.006,-0.5221 -0.008,-0.78315 -0.004,-0.36906 -0.008,-0.73812 -0.0114,-1.10719 -0.004,-0.36906 -0.007,-0.73812 -0.0109,-1.10719 -0.004,-0.36907 -0.007,-0.73813 -0.0102,-1.1072 -0.003,-0.36907 -0.006,-0.73814 -0.009,-1.10721 -0.003,-0.42307 -0.007,-0.84614 -0.01,-1.26921 -0.003,-0.42307 -0.006,-0.84615 -0.009,-1.26922 -0.003,-0.42308 -0.005,-0.84616 -0.008,-1.26923 -0.002,-0.42308 -0.004,-0.84616 -0.006,-1.26924 -0.002,-0.42307 -0.003,-0.84615 -0.005,-1.26922 -0.002,-0.42308 -0.003,-0.84615 -0.004,-1.26923 -9.8e-4,-0.42307 -0.002,-0.84615 -0.002,-1.26923 -1.4e-4,-0.42307 2.1e-4,-0.84615 0.001,-1.26922 8.7e-4,-0.36908 0.002,-0.73816 0.003,-1.10724 10e-4,-0.36908 0.002,-0.73816 0.004,-1.10723 0.002,-0.36907 0.004,-0.73814 0.008,-1.1072 0.004,-0.36905 0.008,-0.7381 0.0143,-1.10712 0.004,-0.2611 0.007,-0.52234 0.009,-0.78361 0.002,-0.26126 0.005,-0.52255 0.009,-0.78375 0.004,-0.2612 0.0105,-0.52231 0.0206,-0.78321 0.0101,-0.26091 0.0241,-0.52161 0.044,-0.78199 0.008,-0.0995 0.002,-0.20665 -0.005,-0.31559 -0.007,-0.10894 -0.0171,-0.21969 -0.0186,-0.32644 -0.001,-0.10675 0.005,-0.20951 0.0308,-0.30248 0.0255,-0.093 0.0697,-0.17613 0.1432,-0.2437 0.0549,-0.0505 0.11954,-0.0772 0.19035,-0.0892 0.0708,-0.012 0.14774,-0.009 0.22712,-4e-4 0.0794,0.009 0.16122,0.0233 0.24183,0.0349 0.0806,0.0116 0.15998,0.0201 0.23445,0.0167 0.17019,-0.008 0.34037,-0.0158 0.51055,-0.024 0.17017,-0.008 0.34034,-0.0166 0.5105,-0.025 0.17016,-0.008 0.34032,-0.017 0.51048,-0.0255 0.17016,-0.009 0.34032,-0.0171 0.51048,-0.0256 0.23331,-0.0116 0.46662,-0.0233 0.69992,-0.035 0.2333,-0.0117 0.46661,-0.0235 0.69991,-0.0353 0.2333,-0.0118 0.4666,-0.0237 0.6999,-0.0355 0.23329,-0.0119 0.46659,-0.0238 0.69989,-0.0356 0.26389,-0.0134 0.52777,-0.0269 0.79166,-0.0404 0.26388,-0.0135 0.52776,-0.027 0.79165,-0.0405 0.26388,-0.0135 0.52776,-0.0271 0.79164,-0.0406 0.26388,-0.0136 0.52776,-0.0271 0.79164,-0.0407 0.26191,-0.0135 0.52382,-0.027 0.78573,-0.0405 0.26191,-0.0135 0.52382,-0.027 0.78573,-0.0405 0.26191,-0.0135 0.52382,-0.0271 0.78573,-0.0406 0.26191,-0.0135 0.52382,-0.0271 0.78573,-0.0406 0.22738,-0.0118 0.45476,-0.0236 0.68215,-0.0353 0.22738,-0.0118 0.45476,-0.0236 0.68215,-0.0354 0.22738,-0.0118 0.45476,-0.0236 0.68214,-0.0354 0.22739,-0.0118 0.45477,-0.0236 0.68215,-0.0354 0.1603,-0.008 0.32061,-0.0167 0.48091,-0.025 0.1603,-0.008 0.3206,-0.0167 0.48091,-0.025 0.1603,-0.008 0.3206,-0.0167 0.4809,-0.025 0.16031,-0.008 0.32061,-0.0167 0.48091,-0.0251 0.0607,-0.003 0.1352,-0.0223 0.2132,-0.0453 0.078,-0.0231 0.15946,-0.0501 0.23399,-0.0692 0.0745,-0.0191 0.14213,-0.0302 0.19241,-0.0214 0.0503,0.009 0.0832,0.0374 0.0884,0.098 0.0151,0.17555 -0.0648,0.27384 -0.20409,0.32386 -0.1393,0.05 -0.33799,0.0517 -0.56044,0.0342 -0.22245,-0.0176 -0.46865,-0.0545 -0.70298,-0.0817 -0.23433,-0.0272 -0.45678,-0.0448 -0.63171,-0.0238 -0.17494,0.021 -0.34987,0.0421 -0.52481,0.0631 -0.17493,0.021 -0.34987,0.0421 -0.5248,0.0631 -0.17494,0.021 -0.34987,0.0421 -0.52481,0.0631 -0.17493,0.0211 -0.34987,0.0421 -0.52481,0.0631 -0.17493,0.021 -0.34987,0.0421 -0.5248,0.0631 -0.17494,0.0211 -0.34987,0.0421 -0.52481,0.0631 -0.17493,0.021 -0.34987,0.0421 -0.5248,0.0631 -0.17494,0.0211 -0.34987,0.0421 -0.52481,0.0631 -0.17493,0.021 -0.34987,0.0421 -0.5248,0.0631 -0.17494,0.0211 -0.34987,0.0421 -0.52481,0.0631 -0.17493,0.021 -0.34987,0.0421 -0.5248,0.0631 -0.17494,0.0211 -0.34987,0.0421 -0.52481,0.0631 -0.17494,0.0211 -0.34987,0.0421 -0.52481,0.0631 -0.17493,0.021 -0.34987,0.0421 -0.5248,0.0631 -0.17494,0.0211 -0.34987,0.0421 -0.52481,0.0631 -0.17493,0.021 -0.34987,0.0421 -0.5248,0.0631 -0.17494,0.0211 -0.34987,0.0421 -0.52481,0.0631 -0.17493,0.021 -0.34987,0.0421 -0.5248,0.0631 -0.17494,0.0211 -0.34987,0.0421 -0.52481,0.0631 -0.17493,0.021 -0.34987,0.0421 -0.52481,0.0631 -0.17493,0.0211 -0.34987,0.0421 -0.5248,0.0631 -0.17494,0.021 -0.34987,0.0421 -0.52481,0.0631 -0.17493,0.0211 -0.34987,0.0421 -0.5248,0.0631 -0.17494,0.021 -0.34987,0.0421 -0.52481,0.0631 -0.17493,0.0211 -0.36388,0.0148 -0.55634,0.002 -0.19245,-0.013 -0.38841,-0.0328 -0.57736,-0.0391 -0.18895,-0.006 -0.37089,0.001 -0.53531,0.0427 -0.16443,0.0415 -0.31133,0.11704 -0.43021,0.24709 -0.0888,0.0971 -0.13514,0.21146 -0.155,0.33654 -0.0199,0.12508 -0.0132,0.26091 0.004,0.40104 0.0173,0.14013 0.0451,0.28456 0.0677,0.42684 0.0226,0.14228 0.0398,0.28241 0.0359,0.41394 -0.004,0.13153 -0.008,0.26306 -0.0118,0.39459 -0.004,0.13153 -0.008,0.26306 -0.0118,0.39459 -0.004,0.13153 -0.008,0.26306 -0.0118,0.39459 -0.004,0.13153 -0.008,0.26306 -0.0118,0.39459 -0.004,0.13154 -0.008,0.26307 -0.0118,0.3946 -0.004,0.13153 -0.008,0.26306 -0.0118,0.39459 -0.004,0.13153 -0.008,0.26306 -0.0118,0.39459 -0.004,0.13153 -0.008,0.26306 -0.0118,0.39459 -0.004,0.13153 -0.008,0.26306 -0.0118,0.39459 -0.004,0.13153 -0.008,0.26306 -0.0118,0.39459 -0.004,0.13153 -0.008,0.26306 -0.0118,0.39459 -0.004,0.13153 -0.008,0.26306 -0.0118,0.39459 -0.004,0.13153 -0.008,0.26306 -0.0118,0.39459 -0.004,0.13153 -0.008,0.26306 -0.0118,0.39459 -0.004,0.13153 -0.008,0.26306 -0.0118,0.39459 -0.004,0.13153 -0.008,0.26306 -0.0118,0.39459 -0.004,0.13153 -0.008,0.26306 -0.0118,0.39459 -0.004,0.13153 -0.008,0.26306 -0.0118,0.39459 -0.004,0.13153 -0.008,0.26306 -0.0118,0.39459 -0.004,0.13153 -0.008,0.26306 -0.0118,0.3946 -0.004,0.13153 -0.008,0.26306 -0.0118,0.39459 -0.004,0.13153 -0.008,0.26306 -0.0118,0.39459 -0.004,0.13153 -0.008,0.26306 -0.0118,0.39459 -0.004,0.13153 -0.008,0.26306 -0.0118,0.39459 -0.004,0.13153 -0.0316,0.27218 -0.0652,0.41511 -0.0336,0.14293 -0.0732,0.28814 -0.10086,0.42879 -0.0277,0.14065 -0.0435,0.27674 -0.0296,0.40143 0.0139,0.12469 0.0574,0.23798 0.14839,0.33303 0.0673,0.0703 0.14964,0.10612 0.24135,0.12038 0.0917,0.0143 0.19279,0.007 0.29762,-0.009 0.10484,-0.0159 0.21343,-0.0405 0.32014,-0.0607 0.10671,-0.0203 0.21155,-0.0362 0.30888,-0.0349 0.0973,0.001 0.19466,0.003 0.292,0.004 0.0973,0.001 0.19466,0.003 0.29199,0.004 0.0973,0.001 0.19467,0.003 0.292,0.004 0.0973,0.001 0.19467,0.003 0.292,0.004 0.0973,0.001 0.19466,0.003 0.29199,0.004 0.0973,0.001 0.19467,0.003 0.292,0.004 0.0973,0.001 0.19467,0.003 0.292,0.004 0.0973,0.001 0.19466,0.003 0.292,0.004 0.0973,0.001 0.19466,0.003 0.29199,0.004 0.0973,0.001 0.19467,0.003 0.292,0.004 0.0973,0.001 0.19467,0.003 0.292,0.004 0.0973,0.001 0.19466,0.003 0.29199,0.004 0.0973,0.001 0.19467,0.003 0.292,0.004 0.0973,0.001 0.19467,0.003 0.292,0.004 0.0973,0.001 0.19466,0.003 0.292,0.004 0.0973,0.001 0.19466,0.003 0.29199,0.004 0.0973,0.001 0.19467,0.003 0.292,0.004 0.0973,0.001 0.19467,0.003 0.292,0.004 0.0973,0.001 0.19466,0.003 0.292,0.004 0.0973,0.001 0.19466,0.003 0.29199,0.004 0.0973,0.001 0.19467,0.003 0.292,0.004 0.0973,0.001 0.19466,0.003 0.292,0.004 0.0973,0.001 0.19466,0.003 0.29199,0.004 0.0973,0.001 0.19467,0.003 0.292,0.004 0.0973,0.001 0.19466,0.003 0.29199,0.004 0.0973,0.002 0.19466,0.003 0.292,0.005 0.0973,0.001 0.19466,0.003 0.29199,0.004 0.0973,0.001 0.19467,0.002 0.29201,0.003 z"
       id="path12"
       inkscape:connector-curvature="0"
       sodipodi:nodetypes="sssssssssssssssssssssssssssssssssssssssssssssssssssssssssssssssssssssssssssssssssssssssssssssssssssssssssssssssssssssssssssssssssssssssssssssssssssssssssssssssssssssssssssssssssssssssssssssssssssssssssssssssssssssssssssssssssssssssssssssssssssssssssssssssss" />
  </g>
</svg>
