<?xml version="1.0" encoding="UTF-8" standalone="no"?>
<!-- Created with Inkscape (http://www.inkscape.org/) -->

<svg
   xmlns:dc="http://purl.org/dc/elements/1.1/"
   xmlns:cc="http://creativecommons.org/ns#"
   xmlns:rdf="http://www.w3.org/1999/02/22-rdf-syntax-ns#"
   xmlns:svg="http://www.w3.org/2000/svg"
   xmlns="http://www.w3.org/2000/svg"
   xmlns:sodipodi="http://sodipodi.sourceforge.net/DTD/sodipodi-0.dtd"
   xmlns:inkscape="http://www.inkscape.org/namespaces/inkscape"
   width="744.09448819"
   height="1052.3622047"
   id="svg2"
   version="1.1"
   inkscape:version="0.92.3 (3ce5693, 2018-03-11)"
   sodipodi:docname="7.svg">
  <defs
     id="defs4">
    <inkscape:perspective
       sodipodi:type="inkscape:persp3d"
       inkscape:vp_x="0 : 526.18109 : 1"
       inkscape:vp_y="0 : 1000 : 0"
       inkscape:vp_z="744.09448 : 526.18109 : 1"
       inkscape:persp3d-origin="372.04724 : 350.78739 : 1"
       id="perspective3052" />
    <inkscape:path-effect
       effect="spiro"
       id="path-effect3864"
       is_visible="true" />
    <inkscape:path-effect
       effect="spiro"
       id="path-effect3860"
       is_visible="true" />
    <inkscape:path-effect
       effect="spiro"
       id="path-effect3854"
       is_visible="true" />
  </defs>
  <sodipodi:namedview
     id="base"
     pagecolor="#ffffff"
     bordercolor="#666666"
     borderopacity="1.0"
     inkscape:pageopacity="0.0"
     inkscape:pageshadow="2"
     inkscape:zoom="1.979899"
     inkscape:cx="526.4979"
     inkscape:cy="674.35284"
     inkscape:document-units="px"
     inkscape:current-layer="layer1"
     showgrid="false"
     inkscape:window-width="1366"
     inkscape:window-height="713"
     inkscape:window-x="0"
     inkscape:window-y="27"
     inkscape:window-maximized="1" />
  <metadata
     id="metadata7">
    <rdf:RDF>
      <cc:Work
         rdf:about="">
        <dc:format>image/svg+xml</dc:format>
        <dc:type
           rdf:resource="http://purl.org/dc/dcmitype/StillImage" />
        <dc:title />
      </cc:Work>
    </rdf:RDF>
  </metadata>
  <g
     inkscape:label="Layer 1"
     inkscape:groupmode="layer"
     id="layer1">
    <path
       style="fill:none;stroke:#000000;stroke-width:1px;stroke-linecap:butt;stroke-linejoin:miter;stroke-opacity:1"
       d="m 464.28571,413.07647 c -0.49226,0.78995 -0.99821,1.5712 -1.50758,2.35027 -0.50938,0.77908 -1.02218,1.55598 -1.52813,2.33723 -0.50595,0.78125 -1.0119,1.5625 -1.51786,2.34375 -0.50595,0.78125 -1.01191,1.5625 -1.51786,2.34375 -0.50595,0.78125 -1.01191,1.5625 -1.51786,2.34375 -0.50595,0.78125 -1.0119,1.5625 -1.51785,2.34375 -0.50595,0.78125 -1.0119,1.5625 -1.51786,2.34375 -0.50595,0.78125 -1.01191,1.5625 -1.51786,2.34375 -0.50595,0.78125 -1.0119,1.5625 -1.51785,2.34375 -0.50595,0.78125 -1.01191,1.5625 -1.51786,2.34375 -0.50595,0.78125 -1.01191,1.5625 -1.51786,2.34375 -0.50595,0.78125 -1.0119,1.5625 -1.51785,2.34375 -0.50595,0.78125 -1.0119,1.5625 -1.51786,2.34375 -0.50595,0.78125 -1.01191,1.5625 -1.51786,2.34375 -0.50595,0.78125 -1.01191,1.5625 -1.51786,2.34375 -0.50595,0.78125 -1.0119,1.5625 -1.51785,2.34375 -0.50595,0.78125 -1.0119,1.5625 -1.51786,2.34375 -0.50595,0.78125 -1.0119,1.5625 -1.51785,2.34375 -0.50595,0.78125 -1.0119,1.5625 -1.51786,2.34375 -0.50595,0.78125 -1.01191,1.5625 -1.51786,2.34375 -0.50595,0.78125 -1.01191,1.5625 -1.51786,2.34375 -0.50595,0.78125 -1.0119,1.5625 -1.51785,2.34375 -0.50595,0.78125 -1.0119,1.5625 -1.51786,2.34375 -0.50595,0.78125 -1.01191,1.5625 -1.51786,2.34375 -0.50595,0.78125 -1.0119,1.5625 -1.51785,2.34375 -0.50595,0.78125 -1.01191,1.5625 -1.51786,2.34375 -0.50595,0.78125 -1.01191,1.5625 -1.51786,2.34375 -0.50595,0.78125 -1.0119,1.5625 -1.51785,2.34375 -0.50595,0.78125 -1.0119,1.5625 -1.51786,2.34375 -0.50595,0.78125 -1.01191,1.5625 -1.51786,2.34375 -0.50595,0.78125 -0.87329,2.2046 -1.30994,3.30691 -0.43664,1.1023 -0.94259,1.88355 -1.72577,1.38059 -1.49189,-0.95809 -0.53951,-2.45363 1.02394,-4.08352 1.56345,-1.6299 3.73796,-3.39416 4.69035,-4.88969 0.95239,-1.49554 1.90477,-2.99107 2.85714,-4.48661 0.95238,-1.49554 1.90476,-2.99107 2.85714,-4.48661 0.95238,-1.49554 1.90476,-2.99107 2.85714,-4.48661 0.95238,-1.49553 1.90476,-2.99107 2.85715,-4.4866 0.95238,-1.49553 1.90476,-2.99107 2.85714,-4.48661 0.95238,-1.49554 1.90476,-2.99108 2.85714,-4.48661 0.95238,-1.49554 1.90476,-2.99107 2.85714,-4.48661 0.95239,-1.49553 1.90477,-2.99107 2.85715,-4.4866 0.95238,-1.49554 1.90476,-2.99107 2.85714,-4.48661 0.95238,-1.49553 1.90476,-2.99107 2.85714,-4.48661 0.95238,-1.49554 1.90476,-2.99107 2.85714,-4.48661 0.95239,-1.49553 1.90477,-2.99107 2.85715,-4.4866 0.95238,-1.49554 1.90476,-2.99107 2.85714,-4.48661 0.95238,-1.49553 1.90477,-2.99107 2.85715,-4.48661 l 2.85714,-4.48661 2.85714,-4.4866 c 0.95238,-1.49554 1.90476,-2.99107 2.85714,-4.48661 0.95238,-1.49553 1.90476,-2.99107 2.85715,-4.4866 0.95239,-1.49554 1.90477,-2.99107 2.85714,-4.48661 0.95238,-1.49554 1.90476,-2.99108 2.85714,-4.48661 0.95238,-1.49554 1.90476,-2.99107 2.85714,-4.48661 0.95239,-1.49553 1.90477,-2.99107 2.85715,-4.4866 0.95238,-1.49554 1.90476,-2.99107 2.85714,-4.48661 0.95238,-1.49554 1.90476,-2.99108 2.85714,-4.48661 0.95238,-1.49554 1.90476,-2.99107 2.85715,-4.48661 0.95238,-1.49553 1.90476,-2.99107 2.85714,-4.4866 0.95238,-1.49554 1.90476,-2.99107 2.85714,-4.48661 0.95238,-1.49553 1.90476,-2.99107 2.85714,-4.48661 0.95238,-1.49554 2.80455,-2.96007 4.20682,-4.4401 1.40228,-1.48004 2.35466,-2.97557 1.50747,-4.53311 -0.47997,-0.8824 -1.48443,-0.88985 -2.62002,-0.67855 -1.13559,0.2113 -2.40231,0.64135 -3.40677,0.63395 -1.00446,-0.007 -2.00892,-0.0149 -3.01339,-0.0223 -1.00446,-0.007 -2.00893,-0.0149 -3.01339,-0.0223 -1.00447,-0.007 -2.00893,-0.0149 -3.0134,-0.0223 -1.00446,-0.007 -2.00893,-0.0149 -3.01339,-0.0223 -1.00447,-0.007 -2.00893,-0.0149 -3.01339,-0.0223 -1.00446,-0.007 -2.00893,-0.0149 -3.01339,-0.0223 -1.00447,-0.007 -2.00893,-0.0149 -3.0134,-0.0223 -1.00446,-0.007 -2.00893,-0.0149 -3.01339,-0.0223 -1.00447,-0.007 -2.00893,-0.0148 -3.01339,-0.0223 -1.00447,-0.007 -2.00893,-0.0149 -3.01339,-0.0223 -1.00447,-0.007 -2.00893,-0.0148 -3.0134,-0.0223 -1.00446,-0.007 -2.00893,-0.0149 -3.01339,-0.0223 -1.00447,-0.007 -2.00893,-0.0148 -3.01339,-0.0223 -1.00447,-0.007 -2.00893,-0.0149 -3.01339,-0.0223 -1.00447,-0.007 -2.00893,-0.0148 -3.0134,-0.0223 -1.00446,-0.007 -2.00893,-0.0149 -3.01339,-0.0223 -1.00447,-0.007 -2.00893,-0.0148 -3.0134,-0.0223 -1.00446,-0.007 -2.00893,-0.0149 -3.01339,-0.0223 -1.00446,-0.007 -2.00892,-0.0148 -3.01339,-0.0223 -1.00446,-0.007 -2.00893,-0.0149 -3.01339,-0.0223 -1.00447,-0.007 -2.00893,-0.0148 -3.0134,-0.0223 -1.00446,-0.007 -2.00893,-0.0149 -3.01339,-0.0223 -1.00447,-0.007 -2.00893,-0.0148 -3.01339,-0.0223 -1.00446,-0.007 -2.00893,-0.0149 -3.01339,-0.0223 -1.00447,-0.007 -2.00893,-0.0148 -3.0134,-0.0223 -1.00446,-0.007 -2.00893,-0.0149 -3.01339,-0.0223 -1.00447,-0.007 -2.00893,-0.0149 -3.01339,-0.0223 -1.00447,-0.007 -2.00893,-0.0149 -3.01339,-0.0223 -1.00447,-0.007 -2.50333,-0.52075 -3.75499,-0.78114 -1.25166,-0.2604 -2.25613,-0.26785 -2.2718,0.73654 -0.0152,0.97672 0.96132,0.99997 2.18583,0.78485 1.22452,-0.21511 2.69698,-0.6686 3.67354,-0.64534 0.97656,0.0233 1.95313,0.0465 2.92969,0.0698 0.97656,0.0232 1.95312,0.0465 2.92969,0.0697 0.97656,0.0232 1.95312,0.0465 2.92968,0.0697 0.97657,0.0232 1.95313,0.0465 2.92969,0.0698 0.97656,0.0233 1.95313,0.0465 2.92969,0.0698 0.97656,0.0233 1.95312,0.0465 2.92969,0.0698 0.97656,0.0232 1.95312,0.0465 2.92968,0.0697 0.97657,0.0232 1.95313,0.0465 2.92969,0.0698 0.97656,0.0233 1.95313,0.0465 2.92969,0.0698 0.97656,0.0233 1.95312,0.0465 2.92969,0.0697 0.97656,0.0233 1.95312,0.0465 2.92968,0.0697 0.97657,0.0233 1.95313,0.0465 2.92969,0.0698 0.97656,0.0233 1.95313,0.0465 2.92969,0.0698 0.97656,0.0233 1.95312,0.0465 2.92969,0.0697 l 2.92968,0.0697 2.92969,0.0697 c 0.97656,0.0233 1.95313,0.0465 2.92969,0.0697 0.97656,0.0233 1.95312,0.0465 2.92969,0.0698 0.97656,0.0233 1.95312,0.0465 2.92968,0.0697 0.97657,0.0233 1.95313,0.0465 2.92969,0.0698 0.97656,0.0233 1.95313,0.0465 2.92969,0.0698 0.97656,0.0233 1.95312,0.0465 2.92969,0.0697 0.97656,0.0233 1.95312,0.0465 2.92968,0.0697 0.97657,0.0233 1.95313,0.0465 2.92969,0.0698 0.97656,0.0233 1.95313,0.0465 2.92969,0.0698 0.97656,0.0232 1.95312,0.0465 2.92969,0.0697 0.97656,0.0232 1.95312,0.0465 2.92968,0.0697 0.97657,0.0233 1.95313,0.0465 2.92969,0.0698 0.97656,0.0233 2.20572,-0.36965 3.30857,-0.55448 1.10286,-0.18483 2.07942,-0.16159 2.55081,0.69399 0.39293,0.71319 -0.0256,1.41166 -0.64699,2.10646 -0.62139,0.6948 -1.44565,1.38591 -1.86417,2.08439 -0.41853,0.69847 -0.83705,1.39695 -1.25558,2.09542 -0.41853,0.69848 -0.83706,1.39695 -1.25558,2.09543 -0.41853,0.69848 -0.83705,1.39695 -1.25558,2.09542 -0.41853,0.69847 -0.83706,1.39694 -1.25558,2.09542 -0.41853,0.69848 -0.83705,1.39695 -1.25558,2.09543 -0.41853,0.69847 -0.83706,1.39694 -1.25559,2.09542 -0.41853,0.69847 -0.83705,1.39695 -1.25558,2.09542 -0.41852,0.69848 -0.83705,1.39695 -1.25558,2.09543 -0.41853,0.69847 -0.83705,1.39695 -1.25558,2.09542 -0.41852,0.69848 -0.83705,1.39695 -1.25558,2.09543 -0.41853,0.69847 -0.83706,1.39695 -1.25558,2.09542 -0.41853,0.69848 -0.83706,1.39695 -1.25558,2.09543 -0.41853,0.69847 -0.83705,1.39695 -1.25558,2.09542 -0.41853,0.69848 -0.83706,1.39695 -1.25558,2.09542 -0.41853,0.69847 -0.83705,1.39695 -1.25558,2.09542 -0.41853,0.69848 -0.83706,1.39695 -1.25558,2.09543 -0.41853,0.69847 -0.83705,1.39695 -1.25558,2.09542 -0.41853,0.69848 -0.83706,1.39695 -1.25558,2.09543 -0.41853,0.69848 -0.83705,1.39695 -1.25558,2.09543 -0.41853,0.69847 -0.83706,1.39694 -1.25558,2.09542 -0.41853,0.69848 -0.83705,1.39695 -1.25558,2.09543 -0.41853,0.69847 -0.83706,1.39694 -1.25559,2.09542 -0.41853,0.69847 -0.83705,1.39695 -1.25558,2.09542 -0.41852,0.69848 -0.83705,1.39695 -1.25558,2.09543 -0.41853,0.69847 -0.83705,1.39694 -1.25558,2.09542 -0.41852,0.69847 -0.83705,1.39694 -1.25558,2.09542 -0.41853,0.69847 -0.83706,1.39695 -1.25558,2.09542 -0.41853,0.69848 -0.83706,1.39695 -1.25558,2.09543 -0.41853,0.69847 -0.831,1.40065 -1.24649,2.10098 -0.4155,0.70032 -1.26467,1.3988 -1.26467,2.08987 l 0,-3.5e-4 z"
       id="path80"
       inkscape:connector-curvature="0"
       sodipodi:nodetypes="csssssssssssssssssssssssssssssssssssssssssssssssscssssssssssssssssssssssssssssssssssssssssssssssssssssssssssssssscssssssssssssssssssssssssssssssssssssssssssssssscc" />
  </g>
</svg>
