<?xml version="1.0" encoding="UTF-8" standalone="no"?>
<!-- Created with Inkscape (http://www.inkscape.org/) -->

<svg
   xmlns:dc="http://purl.org/dc/elements/1.1/"
   xmlns:cc="http://creativecommons.org/ns#"
   xmlns:rdf="http://www.w3.org/1999/02/22-rdf-syntax-ns#"
   xmlns:svg="http://www.w3.org/2000/svg"
   xmlns="http://www.w3.org/2000/svg"
   xmlns:sodipodi="http://sodipodi.sourceforge.net/DTD/sodipodi-0.dtd"
   xmlns:inkscape="http://www.inkscape.org/namespaces/inkscape"
   width="744.09448819"
   height="1052.3622047"
   id="svg2"
   version="1.1"
   inkscape:version="0.92.3 (3ce5693, 2018-03-11)"
   sodipodi:docname="8.svg">
  <defs
     id="defs4">
    <inkscape:perspective
       sodipodi:type="inkscape:persp3d"
       inkscape:vp_x="0 : 526.18109 : 1"
       inkscape:vp_y="0 : 1000 : 0"
       inkscape:vp_z="744.09448 : 526.18109 : 1"
       inkscape:persp3d-origin="372.04724 : 350.78739 : 1"
       id="perspective3052" />
    <inkscape:path-effect
       effect="spiro"
       id="path-effect3864"
       is_visible="true" />
    <inkscape:path-effect
       effect="spiro"
       id="path-effect3860"
       is_visible="true" />
    <inkscape:path-effect
       effect="spiro"
       id="path-effect3854"
       is_visible="true" />
  </defs>
  <sodipodi:namedview
     id="base"
     pagecolor="#ffffff"
     bordercolor="#666666"
     borderopacity="1.0"
     inkscape:pageopacity="0.0"
     inkscape:pageshadow="2"
     inkscape:zoom="11.2"
     inkscape:cx="414.75488"
     inkscape:cy="637.1482"
     inkscape:document-units="px"
     inkscape:current-layer="layer1"
     showgrid="false"
     inkscape:window-width="1366"
     inkscape:window-height="713"
     inkscape:window-x="0"
     inkscape:window-y="27"
     inkscape:window-maximized="1" />
  <metadata
     id="metadata7">
    <rdf:RDF>
      <cc:Work
         rdf:about="">
        <dc:format>image/svg+xml</dc:format>
        <dc:type
           rdf:resource="http://purl.org/dc/dcmitype/StillImage" />
        <dc:title />
      </cc:Work>
    </rdf:RDF>
  </metadata>
  <g
     inkscape:label="Layer 1"
     inkscape:groupmode="layer"
     id="layer1">
    <path
       style="fill:none;stroke:#000000;stroke-width:1px;stroke-linecap:butt;stroke-linejoin:miter;stroke-opacity:1"
       d="m 408.48214,417.71933 c -0.0837,-0.0818 -0.16557,-0.16553 -0.24694,-0.24971 -0.0814,-0.0842 -0.16229,-0.16882 -0.24413,-0.25252 -0.0818,-0.0837 -0.16369,-0.16741 -0.24554,-0.25112 -0.0818,-0.0837 -0.16369,-0.16741 -0.24553,-0.25112 -0.0818,-0.0837 -0.16369,-0.16741 -0.24554,-0.25111 -0.0818,-0.0837 -0.16369,-0.16741 -0.24553,-0.25112 -0.0819,-0.0837 -0.16369,-0.16741 -0.24554,-0.25111 -0.0818,-0.0837 -0.16369,-0.16741 -0.24553,-0.25112 -0.0818,-0.0837 -0.1637,-0.16741 -0.24554,-0.25112 -0.0818,-0.0837 -0.16369,-0.16741 -0.24554,-0.25111 -0.0818,-0.0837 -0.16369,-0.16741 -0.24553,-0.25112 -0.0818,-0.0837 -0.16369,-0.16741 -0.24554,-0.25112 -0.0818,-0.0837 -0.16369,-0.16741 -0.24553,-0.25111 -0.0819,-0.0837 -0.16369,-0.16741 -0.24554,-0.25112 -0.0818,-0.0837 -0.16369,-0.16741 -0.24553,-0.25111 -0.0818,-0.0837 -0.16369,-0.16741 -0.24554,-0.25112 -0.0818,-0.0837 -0.16369,-0.16741 -0.24554,-0.25112 -0.0818,-0.0837 -0.16369,-0.16741 -0.24553,-0.25111 -0.0818,-0.0837 -0.16369,-0.16741 -0.24554,-0.25112 -0.0818,-0.0837 -0.16369,-0.16741 -0.24553,-0.25112 -0.0819,-0.0837 -0.16369,-0.16741 -0.24554,-0.25111 -0.0818,-0.0837 -0.16369,-0.16741 -0.24553,-0.25112 -0.0818,-0.0837 -0.16369,-0.16741 -0.24554,-0.25111 -0.0818,-0.0837 -0.16369,-0.16741 -0.24553,-0.25112 -0.0819,-0.0837 -0.1637,-0.16741 -0.24554,-0.25112 -0.0818,-0.0837 -0.16369,-0.16741 -0.24554,-0.25111 -0.0818,-0.0837 -0.16369,-0.16741 -0.24553,-0.25112 -0.0819,-0.0837 -0.16369,-0.16741 -0.24554,-0.25111 -0.0818,-0.0837 -0.16369,-0.16742 -0.24553,-0.25112 -0.0818,-0.0837 -0.16369,-0.16741 -0.24554,-0.25112 -0.0818,-0.0837 -0.2051,-0.15073 -0.30765,-0.22609 -0.10255,-0.0754 -0.1844,-0.15907 -0.18342,-0.27614 2.1e-4,-0.0249 0.009,-0.0341 0.0273,-0.0456 0.0179,-0.0115 0.0444,-0.0253 0.079,-0.0596 0.0347,-0.0343 0.0775,-0.0766 0.12782,-0.12625 0.0503,-0.0497 0.10819,-0.10677 0.17302,-0.17068 0.0648,-0.0639 0.13662,-0.13465 0.21481,-0.21163 0.0782,-0.077 0.16277,-0.16019 0.25318,-0.24906 0.0904,-0.0889 0.18664,-0.1834 0.28813,-0.283 0.10149,-0.0996 0.20824,-0.20428 0.31967,-0.31344 0.11143,-0.10917 0.22755,-0.22283 0.34779,-0.34039 0.12024,-0.11756 0.24459,-0.23903 0.37249,-0.36383 0.1279,-0.12479 0.25935,-0.25291 0.39378,-0.38377 0.13443,-0.13086 0.27183,-0.26447 0.41165,-0.40023 0.13981,-0.13575 0.28203,-0.27367 0.42609,-0.41316 0.14407,-0.1395 0.28997,-0.28057 0.43714,-0.42262 0.14717,-0.14206 0.29561,-0.28511 0.44475,-0.42857 0.14914,-0.14346 0.29898,-0.28733 0.44896,-0.43103 0.14997,-0.14369 0.30007,-0.28721 0.44974,-0.42997 0.14966,-0.14277 0.29889,-0.28477 0.4471,-0.42544 0.14822,-0.14066 0.29543,-0.27998 0.44106,-0.41738 0.14563,-0.1374 0.28969,-0.27288 0.43159,-0.40585 0.14191,-0.13297 0.28167,-0.26343 0.41871,-0.3908 0.13704,-0.12738 0.27137,-0.25166 0.40241,-0.37227 0.13104,-0.12061 0.2588,-0.23755 0.38269,-0.35023 0.1239,-0.11268 0.24395,-0.2211 0.35956,-0.32469 0.11562,-0.10358 0.22681,-0.20233 0.33301,-0.29565 0.1062,-0.0933 0.20741,-0.18123 0.30305,-0.26312 0.0956,-0.0819 0.18571,-0.15779 0.26965,-0.22709 0.0839,-0.0693 0.16175,-0.13202 0.23286,-0.18756 0.0711,-0.0555 0.13551,-0.10391 0.19264,-0.14453 0.0571,-0.0406 0.10699,-0.0735 0.149,-0.098 0.042,-0.0245 0.0762,-0.0407 0.10196,-0.048 0.0258,-0.007 0.0431,-0.006 0.0515,0.006 0.008,0.0112 0.025,0.0282 0.0494,0.0506 0.0244,0.0225 0.0566,0.0504 0.096,0.0834 0.0394,0.033 0.086,0.0711 0.13937,0.11397 0.0533,0.0428 0.11338,0.0904 0.1796,0.14225 0.0662,0.0519 0.13863,0.1081 0.21668,0.16828 0.0781,0.0602 0.16177,0.12432 0.25061,0.19204 0.0888,0.0677 0.18281,0.13904 0.28138,0.21357 0.0986,0.0745 0.20174,0.15225 0.30898,0.23282 0.10725,0.0806 0.21858,0.16397 0.33345,0.24982 0.11487,0.0859 0.2333,0.17418 0.35475,0.26458 0.12145,0.0904 0.24592,0.18287 0.37289,0.27706 0.12697,0.0942 0.25645,0.19007 0.38789,0.28729 0.13144,0.0972 0.26486,0.19577 0.39972,0.29528 0.13487,0.0995 0.27118,0.19996 0.40841,0.30099 0.13723,0.10104 0.27538,0.20265 0.41393,0.30446 0.13854,0.10182 0.27749,0.20383 0.4163,0.30568 0.13881,0.10184 0.27749,0.2035 0.41551,0.30462 0.13803,0.10112 0.27539,0.20168 0.41158,0.30132 0.13618,0.0996 0.27119,0.19836 0.40448,0.29577 0.13329,0.0974 0.26488,0.19352 0.39423,0.28795 0.12935,0.0944 0.25647,0.18718 0.38082,0.27788 0.12436,0.0907 0.24596,0.17934 0.36427,0.26555 0.11831,0.0862 0.23333,0.16999 0.34454,0.25097 0.11121,0.081 0.21861,0.15914 0.32168,0.23413 0.10306,0.075 0.20178,0.14679 0.29564,0.21503 0.0939,0.0682 0.18286,0.13293 0.26647,0.19368 0.0836,0.0608 0.16182,0.11757 0.23413,0.17008 0.0723,0.0525 0.13869,0.1007 0.19863,0.14421 0.06,0.0435 0.11345,0.0823 0.15999,0.11609 0.0465,0.0338 0.0861,0.0625 0.11818,0.0857 0.0321,0.0233 0.0559,0.031 0.0721,0.0379 0.0162,0.007 0.0247,0.0131 0.0262,0.0333 0.0235,0.3168 -0.20348,0.53908 -0.49301,0.73774 -0.28953,0.19865 -0.64166,0.37368 -0.8686,0.59597 -0.22693,0.22228 -0.45387,0.44456 -0.6808,0.66685 -0.22693,0.22228 -0.45387,0.44457 -0.6808,0.66685 -0.22694,0.22229 -0.45387,0.44457 -0.68081,0.66685 -0.22693,0.22229 -0.45387,0.44457 -0.6808,0.66686 -0.22694,0.22228 -0.45387,0.44457 -0.6808,0.66685 -0.22694,0.22228 -0.45387,0.44457 -0.68081,0.66685 -0.22693,0.22229 -0.45387,0.44457 -0.6808,0.66686 -0.22694,0.22228 -0.45387,0.44456 -0.6808,0.66685 -0.22694,0.22228 -0.45387,0.44457 -0.68081,0.66685 -0.22693,0.22229 -0.45387,0.44457 -0.6808,0.66685 -0.22694,0.22229 -0.45387,0.44457 -0.6808,0.66686 -0.22694,0.22228 -0.45387,0.44457 -0.68081,0.66685 -0.22693,0.22228 -0.45387,0.44457 -0.6808,0.66685 -0.22694,0.22229 -0.45387,0.44457 -0.68081,0.66686 -0.22693,0.22228 -0.45386,0.44456 -0.6808,0.66685 -0.22693,0.22228 -0.45387,0.44457 -0.6808,0.66685 -0.22694,0.22228 -0.45387,0.44457 -0.68081,0.66685 -0.22693,0.22229 -0.45386,0.44457 -0.6808,0.66686 -0.22693,0.22228 -0.45387,0.44456 -0.6808,0.66685 -0.22694,0.22228 -0.45387,0.44457 -0.68081,0.66685 -0.22693,0.22229 -0.45386,0.44457 -0.6808,0.66685 -0.22693,0.22229 -0.45387,0.44457 -0.6808,0.66686 -0.22694,0.22228 -0.45387,0.44457 -0.68081,0.66685 -0.22693,0.22228 -0.45386,0.44457 -0.6808,0.66685 -0.22693,0.22229 -0.45387,0.44457 -0.6808,0.66686 -0.22694,0.22228 -0.45387,0.44456 -0.68081,0.66685 -0.22693,0.22228 -0.45387,0.44457 -0.6808,0.66685 -0.22693,0.22229 -0.45387,0.44457 -0.6808,0.66685 -0.22694,0.22229 -0.5753,0.39708 -0.86295,0.59562 -0.28765,0.19854 -0.51458,0.42083 -0.49866,0.73809 0.007,0.13085 0.10887,0.2127 0.23512,0.28229 0.12624,0.0696 0.27641,0.12694 0.37872,0.20878 0.10231,0.0818 0.20461,0.16369 0.30692,0.24554 0.1023,0.0818 0.20461,0.16369 0.30692,0.24553 0.1023,0.0819 0.20461,0.16369 0.30692,0.24554 0.1023,0.0818 0.20461,0.16369 0.30692,0.24553 0.1023,0.0818 0.20461,0.16369 0.30692,0.24554 0.1023,0.0818 0.20461,0.16369 0.30691,0.24553 0.10231,0.0818 0.20462,0.1637 0.30692,0.24554 0.10231,0.0818 0.20462,0.16369 0.30692,0.24554 0.10231,0.0818 0.20462,0.16369 0.30692,0.24553 0.10231,0.0819 0.20462,0.16369 0.30692,0.24554 0.10231,0.0818 0.20462,0.16369 0.30692,0.24553 0.10231,0.0818 0.20461,0.16369 0.30692,0.24554 0.10231,0.0818 0.20461,0.16369 0.30692,0.24553 0.10231,0.0818 0.20461,0.16369 0.30692,0.24554 0.10231,0.0818 0.20461,0.16369 0.30692,0.24554 0.10231,0.0818 0.20461,0.16369 0.30692,0.24553 0.10231,0.0819 0.20461,0.16369 0.30692,0.24554 0.1023,0.0818 0.20461,0.16369 0.30692,0.24553 0.1023,0.0818 0.20461,0.16369 0.30692,0.24554 0.1023,0.0818 0.20461,0.16369 0.30692,0.24553 0.1023,0.0818 0.20461,0.16369 0.30692,0.24554 0.1023,0.0818 0.20461,0.16369 0.30691,0.24554 0.10231,0.0818 0.20462,0.16369 0.30692,0.24553 0.10231,0.0819 0.20462,0.16369 0.30692,0.24554 0.10231,0.0818 0.20462,0.16369 0.30692,0.24553 0.10231,0.0818 0.20462,0.16369 0.30692,0.24554 0.10231,0.0818 0.20462,0.16369 0.30692,0.24553 0.10231,0.0818 0.20461,0.16369 0.30692,0.24554 0.10231,0.0818 0.19032,0.20738 0.28548,0.31107 0.0951,0.10369 0.19746,0.18554 0.32836,0.18 0.15118,-0.006 0.26092,-0.11056 0.36031,-0.23917 0.0994,-0.12861 0.18843,-0.28166 0.29817,-0.38583 0.10975,-0.10417 0.2195,-0.20833 0.32924,-0.3125 0.10975,-0.10417 0.2195,-0.20833 0.32924,-0.3125 0.10975,-0.10417 0.2195,-0.20833 0.32925,-0.3125 0.10974,-0.10417 0.21949,-0.20833 0.32924,-0.3125 0.10974,-0.10417 0.21949,-0.20833 0.32924,-0.3125 0.10975,-0.10417 0.21949,-0.20833 0.32924,-0.3125 0.10975,-0.10417 0.21949,-0.20833 0.32924,-0.3125 0.10975,-0.10417 0.2195,-0.20833 0.32924,-0.3125 0.10975,-0.10417 0.2195,-0.20833 0.32924,-0.3125 0.10975,-0.10417 0.2195,-0.20833 0.32925,-0.3125 0.10974,-0.10417 0.21949,-0.20833 0.32924,-0.3125 0.10974,-0.10417 0.21949,-0.20833 0.32924,-0.3125 0.10974,-0.10417 0.21949,-0.20833 0.32924,-0.3125 0.10975,-0.10417 0.21949,-0.20833 0.32924,-0.3125 0.10975,-0.10417 0.21949,-0.20833 0.32924,-0.3125 0.10975,-0.10417 0.2195,-0.20833 0.32924,-0.3125 0.10975,-0.10417 0.2195,-0.20833 0.32924,-0.3125 0.10975,-0.10417 0.2195,-0.20833 0.32925,-0.3125 0.10974,-0.10417 0.21949,-0.20833 0.32924,-0.3125 0.10974,-0.10417 0.21949,-0.20833 0.32924,-0.3125 0.10974,-0.10417 0.21949,-0.20833 0.32924,-0.3125 0.10975,-0.10417 0.21949,-0.20833 0.32924,-0.3125 0.10975,-0.10417 0.21949,-0.20833 0.32924,-0.3125 0.10975,-0.10417 0.2195,-0.20833 0.32924,-0.3125 0.10975,-0.10417 0.2195,-0.20833 0.32924,-0.3125 0.10975,-0.10417 0.2195,-0.20833 0.32924,-0.3125 0.10975,-0.10417 0.2195,-0.20833 0.32925,-0.3125 0.10974,-0.10417 0.21949,-0.20833 0.32924,-0.3125 0.10974,-0.10417 0.27467,-0.18476 0.41201,-0.27714 0.13733,-0.0924 0.24708,-0.19655 0.24647,-0.34786 -5.4e-4,-0.1349 -0.0991,-0.22697 -0.22223,-0.30834 -0.12309,-0.0814 -0.2707,-0.15204 -0.36929,-0.24411 -0.0986,-0.0921 -0.19717,-0.18416 -0.29576,-0.27623 -0.0986,-0.0921 -0.19717,-0.18415 -0.29576,-0.27623 -0.0986,-0.0921 -0.19717,-0.18415 -0.29576,-0.27623 -0.0986,-0.0921 -0.19717,-0.18415 -0.29575,-0.27622 -0.0986,-0.0921 -0.19718,-0.18416 -0.29576,-0.27623 -0.0986,-0.0921 -0.19718,-0.18415 -0.29576,-0.27623 -0.0986,-0.0921 -0.19718,-0.18415 -0.29576,-0.27623 -0.0986,-0.0921 -0.19717,-0.18415 -0.29576,-0.27623 -0.0986,-0.0921 -0.19717,-0.18415 -0.29576,-0.27622 -0.0986,-0.0921 -0.19717,-0.18415 -0.29576,-0.27623 -0.0986,-0.0921 -0.19717,-0.18415 -0.29576,-0.27623 -0.0986,-0.0921 -0.19717,-0.18415 -0.29576,-0.27623 -0.0986,-0.0921 -0.19717,-0.18415 -0.29576,-0.27622 -0.0986,-0.0921 -0.19717,-0.18415 -0.29575,-0.27623 -0.0986,-0.0921 -0.19718,-0.18415 -0.29576,-0.27623 -0.0986,-0.0921 -0.19718,-0.18415 -0.29576,-0.27623 -0.0986,-0.0921 -0.19718,-0.18415 -0.29576,-0.27622 -0.0986,-0.0921 -0.19717,-0.18415 -0.29576,-0.27623 -0.0986,-0.0921 -0.19717,-0.18415 -0.29576,-0.27623 -0.0986,-0.0921 -0.19717,-0.18415 -0.29576,-0.27623 -0.0986,-0.0921 -0.19717,-0.18415 -0.29576,-0.27622 -0.0986,-0.0921 -0.19717,-0.18415 -0.29576,-0.27623 -0.0986,-0.0921 -0.19717,-0.18415 -0.29576,-0.27623 -0.0986,-0.0921 -0.19717,-0.18415 -0.29576,-0.27623 -0.0986,-0.0921 -0.19717,-0.18415 -0.29575,-0.27622 -0.0986,-0.0921 -0.19718,-0.18415 -0.29576,-0.27623 -0.0986,-0.0921 -0.19718,-0.18415 -0.29576,-0.27623 -0.0986,-0.0921 -0.19718,-0.18415 -0.29576,-0.27623 -0.0986,-0.0921 -0.19823,-0.18304 -0.29735,-0.27456 -0.0991,-0.0915 -0.1977,-0.1836 -0.29417,-0.27789 z"
       id="path111"
       inkscape:connector-curvature="0"
       sodipodi:nodetypes="sssssssssssssssssssssssssssssssssssssssssssssssssssssssssssssssssssssssssssssssssssssssssssssssssssssssssssssssssssssssssssssssssssssssssssssssssssssssssssssssssssssssssssssssssssssssssssssssssssssssssssssssssssssssssssssssss" />
  </g>
</svg>
