<?xml version="1.0" encoding="UTF-8" standalone="no"?>
<!-- Created with Inkscape (http://www.inkscape.org/) -->

<svg
   xmlns:dc="http://purl.org/dc/elements/1.1/"
   xmlns:cc="http://creativecommons.org/ns#"
   xmlns:rdf="http://www.w3.org/1999/02/22-rdf-syntax-ns#"
   xmlns:svg="http://www.w3.org/2000/svg"
   xmlns="http://www.w3.org/2000/svg"
   xmlns:sodipodi="http://sodipodi.sourceforge.net/DTD/sodipodi-0.dtd"
   xmlns:inkscape="http://www.inkscape.org/namespaces/inkscape"
   width="744.09448819"
   height="1052.3622047"
   id="svg2"
   version="1.1"
   inkscape:version="0.92.3 (3ce5693, 2018-03-11)"
   sodipodi:docname="nine.svg">
  <defs
     id="defs4">
    <inkscape:perspective
       sodipodi:type="inkscape:persp3d"
       inkscape:vp_x="0 : 526.18109 : 1"
       inkscape:vp_y="0 : 1000 : 0"
       inkscape:vp_z="744.09448 : 526.18109 : 1"
       inkscape:persp3d-origin="372.04724 : 350.78739 : 1"
       id="perspective3052" />
    <inkscape:path-effect
       effect="spiro"
       id="path-effect3864"
       is_visible="true" />
    <inkscape:path-effect
       effect="spiro"
       id="path-effect3860"
       is_visible="true" />
    <inkscape:path-effect
       effect="spiro"
       id="path-effect3854"
       is_visible="true" />
  </defs>
  <sodipodi:namedview
     id="base"
     pagecolor="#ffffff"
     bordercolor="#666666"
     borderopacity="1.0"
     inkscape:pageopacity="0.0"
     inkscape:pageshadow="2"
     inkscape:zoom="3.959798"
     inkscape:cx="440.99764"
     inkscape:cy="667.02883"
     inkscape:document-units="px"
     inkscape:current-layer="layer1"
     showgrid="false"
     inkscape:window-width="1366"
     inkscape:window-height="713"
     inkscape:window-x="0"
     inkscape:window-y="27"
     inkscape:window-maximized="1" />
  <metadata
     id="metadata7">
    <rdf:RDF>
      <cc:Work
         rdf:about="">
        <dc:format>image/svg+xml</dc:format>
        <dc:type
           rdf:resource="http://purl.org/dc/dcmitype/StillImage" />
        <dc:title></dc:title>
      </cc:Work>
    </rdf:RDF>
  </metadata>
  <g
     inkscape:label="Layer 1"
     inkscape:groupmode="layer"
     id="layer1">
    <path
       style="fill:none;stroke:#000000;stroke-width:1px;stroke-linecap:butt;stroke-linejoin:miter;stroke-opacity:1"
       d="m 420.5132,397.67216 c 0.11342,-0.13054 0.23828,-0.27989 0.37341,-0.44798 0.13513,-0.16808 0.28053,-0.35491 0.43502,-0.5604 0.15449,-0.20549 0.31808,-0.42965 0.48959,-0.67241 0.17151,-0.24276 0.35093,-0.50412 0.5371,-0.78401 0.18617,-0.27989 0.37909,-0.57832 0.57757,-0.89521 0.19848,-0.31689 0.40254,-0.65225 0.61098,-1.00601 0.20845,-0.35375 0.42129,-0.7259 0.63735,-1.11638 0.21606,-0.39048 0.43534,-0.79929 0.65666,-1.22637 0.22132,-0.42707 0.44259,-0.87519 0.66351,-1.34186 0.22092,-0.46666 0.44149,-0.95187 0.6614,-1.45311 0.21991,-0.50124 0.43917,-1.01852 0.65747,-1.54932 0.2183,-0.5308 0.43564,-1.07512 0.65172,-1.63046 0.21608,-0.55534 0.43089,-1.12169 0.64415,-1.69655 0.21325,-0.57486 0.42493,-1.15822 0.63475,-1.74758 0.20982,-0.58936 0.41777,-1.18472 0.62355,-1.78356 0.20578,-0.59885 0.40939,-1.20118 0.61053,-1.80449 0.20113,-0.60331 0.397,-1.21387 0.5866,-1.83075 0.1896,-0.61688 0.37294,-1.24008 0.54901,-1.86865 0.17607,-0.62858 0.34488,-1.26253 0.50542,-1.90091 0.16054,-0.63839 0.31281,-1.28121 0.45581,-1.92753 0.14301,-0.64632 0.27674,-1.29614 0.40021,-1.94851 0.12347,-0.65238 0.23667,-1.30731 0.3386,-1.96385 0.10193,-0.65655 0.19259,-1.31472 0.27098,-1.97356 0.0784,-0.65884 0.14451,-1.31836 0.19737,-1.97762 0.0528,-0.65926 0.0924,-1.31826 0.11772,-1.97605 0.0253,-0.65779 0.0363,-1.31439 0.0321,-1.96884 -0.004,-0.65445 -0.0238,-1.30676 -0.0596,-1.95598 -0.0358,-0.64923 -0.0879,-1.29537 -0.15719,-1.9375 -0.0693,-0.64212 -0.15594,-1.28023 -0.26081,-1.91337 -0.10488,-0.63314 -0.22803,-1.26132 -0.37044,-1.8836 -0.14242,-0.62228 -0.3041,-1.23866 -0.48605,-1.8482 -0.18196,-0.60953 -0.38418,-1.21223 -0.60766,-1.80715 -0.18093,-0.48162 -0.37093,-0.94987 -0.56974,-1.40494 -0.1988,-0.45507 -0.40641,-0.89696 -0.62254,-1.32586 -0.21614,-0.42891 -0.4408,-0.84483 -0.67372,-1.24795 -0.23292,-0.40312 -0.47409,-0.79345 -0.72325,-1.17117 -0.24916,-0.37773 -0.5063,-0.74285 -0.77115,-1.09556 -0.26485,-0.35271 -0.53741,-0.69301 -0.8174,-1.0211 -0.28,-0.32808 -0.56743,-0.64395 -0.86202,-0.94779 -0.2946,-0.30384 -0.59636,-0.59566 -0.905,-0.87564 -0.30865,-0.27998 -0.62419,-0.54813 -0.94635,-0.80464 -0.32216,-0.2565 -0.65095,-0.50137 -0.98608,-0.73478 -0.33513,-0.23341 -0.67661,-0.45537 -1.02416,-0.66608 -0.34756,-0.2107 -0.70119,-0.41014 -1.06063,-0.59852 -0.35944,-0.18838 -0.72469,-0.36569 -1.09546,-0.53213 -0.37078,-0.16643 -0.74709,-0.32199 -1.12867,-0.46687 -0.38157,-0.14487 -0.7684,-0.27907 -1.16023,-0.40277 -0.39182,-0.1237 -0.78863,-0.23691 -1.19016,-0.33982 -0.40153,-0.10291 -0.80778,-0.19552 -1.21847,-0.27802 -0.4107,-0.0825 -0.82584,-0.1549 -1.24515,-0.21738 -0.41931,-0.0625 -0.8428,-0.11504 -1.27018,-0.15787 -0.42739,-0.0428 -0.85868,-0.076 -1.2936,-0.0995 -0.43492,-0.0236 -0.87346,-0.0376 -1.31537,-0.0423 -0.44191,-0.005 -0.88717,-7e-5 -1.33552,0.0137 -0.44835,0.0138 -0.89978,0.0367 -1.35403,0.0686 -0.45425,0.0319 -0.91131,0.0727 -1.37091,0.12234 -0.45961,0.0496 -0.92175,0.10798 -1.38617,0.17493 -0.46441,0.0669 -0.9311,0.14246 -1.39978,0.22636 -0.46869,0.0839 -0.93937,0.17618 -1.41178,0.27666 -0.4724,0.10047 -0.94654,0.20913 -1.42212,0.32579 -0.47559,0.11666 -0.95263,0.24131 -1.43086,0.37377 -0.47822,0.13247 -0.95763,0.27274 -1.43794,0.42062 -0.48032,0.14788 -0.96154,0.30337 -1.44341,0.46629 -0.48186,0.16292 -0.96437,0.33326 -1.44723,0.51083 -0.5813,0.21376 -1.14186,0.45051 -1.68208,0.7088 -0.54023,0.25829 -1.06011,0.53812 -1.56005,0.83805 -0.49993,0.29993 -0.97991,0.61996 -1.44033,0.95864 -0.46041,0.33869 -0.90127,0.69604 -1.32294,1.0706 -0.42168,0.37456 -0.82418,0.76634 -1.20789,1.17389 -0.38371,0.40755 -0.74863,0.83088 -1.09515,1.26854 -0.34652,0.43766 -0.67463,0.88965 -0.98474,1.35453 -0.3101,0.46488 -0.60219,0.94266 -0.87665,1.43188 -0.27447,0.48922 -0.53131,0.9899 -0.77091,1.50058 -0.23959,0.51068 -0.46195,1.03136 -0.66746,1.56062 -0.20551,0.52925 -0.39417,1.06707 -0.56636,1.61201 -0.1722,0.54494 -0.32793,1.09701 -0.46758,1.65476 -0.13966,0.55775 -0.26323,1.12118 -0.37112,1.68885 -0.10789,0.56767 -0.20009,1.13958 -0.277,1.71429 -0.0769,0.57472 -0.1385,1.15222 -0.18518,1.73109 -0.0467,0.57887 -0.0785,1.15909 -0.0957,1.73923 -0.0172,0.58014 -0.02,1.16019 -0.009,1.73872 0.0114,0.57853 0.037,1.15553 0.0763,1.72956 0.0393,0.57403 0.0924,1.1451 0.15877,1.71175 0.0664,0.56666 0.1462,1.1289 0.23895,1.68529 0.0928,0.5564 0.19849,1.10694 0.3168,1.65018 0.11832,0.54325 0.24923,1.0792 0.39233,1.60642 0.1431,0.52722 0.29841,1.04571 0.46553,1.55401 0.16711,0.50831 0.34604,1.00644 0.5364,1.49295 0.19035,0.48651 0.39213,0.9614 0.60494,1.42324 0.21282,0.46183 0.43667,0.9106 0.67118,1.34487 0.2345,0.43427 0.47965,0.85404 0.73507,1.25786 0.25541,0.40382 0.52109,0.7917 0.79664,1.1622 0.27555,0.37049 0.56097,0.7236 0.85589,1.05788 0.29491,0.33428 0.59931,0.64973 0.91281,0.94492 0.31349,0.29518 0.63609,0.5701 0.9674,0.8233 0.33131,0.25321 0.67133,0.4847 1.01968,0.69304 0.66556,0.39807 1.32798,0.76895 1.98672,1.11421 0.65875,0.34525 1.31383,0.66487 1.96471,0.96041 0.65088,0.29553 1.29757,0.56697 1.93953,0.81587 0.64197,0.2489 1.27922,0.47526 1.91122,0.68061 0.632,0.20536 1.25876,0.38971 1.87975,0.55461 0.62098,0.16491 1.2362,0.31035 1.84513,0.43789 0.60892,0.12753 1.21155,0.23716 1.80736,0.33042 0.59581,0.0933 1.18481,0.17016 1.76646,0.23223 0.58164,0.0621 1.15595,0.10933 1.72239,0.1433 0.56643,0.034 1.125,0.0547 1.67518,0.0636 0.55017,0.009 1.09196,0.006 1.62482,-0.007 0.53287,-0.013 1.05681,-0.0361 1.57132,-0.0679 0.5145,-0.0318 1.01956,-0.0722 1.51466,-0.11972 0.49509,-0.0475 0.98022,-0.10214 1.45486,-0.16231 0.47463,-0.0602 0.93878,-0.12589 1.39191,-0.19562 0.45312,-0.0697 0.89524,-0.14347 1.32581,-0.21967 0.43057,-0.0762 0.8496,-0.15487 1.25656,-0.23445 0.40696,-0.0796 0.80186,-0.16009 1.18416,-0.23997 0.38231,-0.0799 0.75202,-0.15914 1.10862,-0.23623 0.3566,-0.0771 0.70009,-0.152 1.02993,-0.2232 0.32984,-0.0712 0.64604,-0.13869 0.94808,-0.20092 0.30204,-0.0622 0.58991,-0.1192 0.86309,-0.16937 0.27319,-0.0502 0.53168,-0.0935 0.77496,-0.12854 0.24328,-0.035 0.47134,-0.0617 0.68367,-0.0785 0.21232,-0.0168 0.40891,-0.0236 0.58923,-0.0191 0.18032,0.005 0.34438,0.0206 0.49165,0.0495 0.14727,0.029 0.27775,0.0709 0.39092,0.12743 0.11317,0.0565 0.20902,0.12751 0.28704,0.2146 0.078,0.0871 0.13819,0.19025 0.18001,0.31103 0.0418,0.12078 0.0653,0.25917 0.0698,0.41673 0.005,0.15755 -0.01,0.33427 -0.0435,0.53169 -0.0337,0.19742 -0.0869,0.41554 -0.15996,0.65592 -0.2576,0.84725 -0.54892,1.67922 -0.87162,2.49605 -0.32269,0.81683 -0.67675,1.61852 -1.05981,2.40518 -0.38307,0.78667 -0.79514,1.55832 -1.23387,2.31507 -0.43872,0.75676 -0.90409,1.49862 -1.39376,2.22573 -0.48966,0.7271 -1.00361,1.43944 -1.53949,2.13714 -0.53588,0.6977 -1.09369,1.38076 -1.67107,2.04931 -0.57738,0.66856 -1.17433,1.3226 -1.7885,1.96227 -0.61416,0.63966 -1.24553,1.26494 -1.89175,1.87596 -0.64623,0.61102 -1.3073,1.20779 -1.98087,1.79043 -0.67357,0.58265 -1.35963,1.15116 -2.05582,1.70567 -0.69619,0.55451 -1.40251,1.09502 -2.1166,1.62166 -0.7141,0.52664 -1.43597,1.0394 -2.16325,1.53841 -0.72728,0.49902 -1.45997,0.98429 -2.19572,1.45594 -0.73574,0.47165 -1.47455,0.92968 -2.21404,1.37422 -0.7395,0.44453 -1.47968,0.87558 -2.21821,1.29326 -0.73852,0.41768 -1.47538,0.82199 -2.20821,1.21307 -0.73284,0.39108 -1.46165,0.76891 -2.18407,1.13364 -0.72243,0.36473 -1.43847,0.71634 -2.14576,1.05498 -0.7073,0.33863 -1.40585,0.66427 -2.0933,0.97707 -0.68745,0.31279 -1.36379,0.61272 -2.02667,0.89993 -0.66288,0.2872 -1.3123,0.56167 -1.9459,0.82355 -0.6336,0.26187 -1.25137,0.51114 -1.85096,0.74793 -0.59959,0.2368 -1.181,0.46112 -1.74187,0.67309 -0.56087,0.21197 -1.1012,0.41159 -1.61862,0.59899 -0.51743,0.1874 -1.01195,0.36258 -1.48122,0.52567 -0.46926,0.16308 -0.91326,0.31407 -1.32965,0.4531 -0.41638,0.13902 -0.80514,0.26608 -1.16393,0.3813 -0.35878,0.11522 -0.68758,0.2186 -0.98405,0.31026 -0.29646,0.0917 -0.56059,0.17162 -0.79002,0.23999 -0.22942,0.0684 -0.42415,0.12515 -0.58182,0.17048 -0.15767,0.0453 -0.27829,0.0792 -0.35948,0.10172 -0.0812,0.0225 -0.12297,0.0337 -0.12297,0.0337 0,0 0.0286,-0.009 0.0844,-0.0268 0.0558,-0.0178 0.13893,-0.0446 0.24793,-0.0802 0.109,-0.0356 0.24392,-0.08 0.40341,-0.13332 0.1595,-0.0533 0.34357,-0.11537 0.55088,-0.18623 0.20731,-0.0709 0.43787,-0.15052 0.69032,-0.2389 0.25246,-0.0884 0.52683,-0.1855 0.82176,-0.29132 0.29493,-0.10582 0.61043,-0.22033 0.94516,-0.3435 0.33473,-0.12317 0.6887,-0.25499 1.06056,-0.39543 0.37185,-0.14044 0.76161,-0.2895 1.16792,-0.44713 0.40632,-0.15763 0.82919,-0.32383 1.26728,-0.49858 0.4381,-0.17474 0.89141,-0.35801 1.35862,-0.54978 0.4672,-0.19177 0.94829,-0.39204 1.44193,-0.60075 0.49364,-0.20872 0.99982,-0.42589 1.51723,-0.65148 0.5174,-0.22558 1.04601,-0.45958 1.5845,-0.70195 0.53849,-0.24237 1.08686,-0.49311 1.64376,-0.75218 0.55691,-0.25908 1.12236,-0.52648 1.69501,-0.80218 0.57265,-0.2757 1.15529,-0.55271 1.74589,-0.83274 0.59061,-0.28004 1.18917,-0.56309 1.79366,-0.85087 0.60449,-0.28777 1.2149,-0.58027 1.82921,-0.8792 0.61431,-0.29892 1.2325,-0.60427 1.85256,-0.91775 0.62006,-0.31348 1.24197,-0.6351 1.86371,-0.96654 0.62173,-0.33144 1.2433,-0.67272 1.86265,-1.02553 0.61935,-0.35281 1.23649,-0.71716 1.84938,-1.09475 0.6129,-0.37759 1.22155,-0.76842 1.82393,-1.17419 0.60237,-0.40577 1.20056,-0.8237 1.7934,-1.25269 0.59284,-0.42899 1.18034,-0.86904 1.76132,-1.31908 0.58098,-0.45004 1.15546,-0.91005 1.72226,-1.37896 0.5668,-0.46891 1.12593,-0.94671 1.67622,-1.43231 0.5503,-0.48561 1.09176,-0.97902 1.62323,-1.47915 0.53146,-0.50013 1.05293,-1.00698 1.56324,-1.51946 0.51031,-0.51248 1.00947,-1.03059 1.4963,-1.55325 0.48683,-0.52266 0.96134,-1.04987 1.42237,-1.58053 z"
       id="path3886"
       inkscape:connector-curvature="0"
       sodipodi:nodetypes="sssssssssssssssssssssssssssssssssssssssssssssssssssssssssssssssssssssssssssssssssssssssssssssssssssssssssssssssssssssssssssssssssssssssssssssssssssssssssssssssscssssssssssssssssssssssssssssssss" />
  </g>
</svg>
